<?xml version="1.0" encoding="UTF-8"?>
<svg id="Capa_2" data-name="Capa 2" xmlns="http://www.w3.org/2000/svg" viewBox="0 0 1301.33 1301.33">
  <defs>
    <style>
      .cls-1 {
        fill: #232c3f;
      }

      .cls-2, .cls-3 {
        fill: #fff;
      }

      .cls-3 {
        opacity: 0;
      }

      .cls-4 {
        fill: #cbcfd6;
      }

      .cls-5 {
        fill: #42547a;
      }

      .cls-6 {
        fill: #49adf5;
      }

      .cls-7 {
        fill: #37639b;
      }
    </style>
  </defs>
  <g id="Capa_1-2" data-name="Capa 1">
    <g>
      <g>
        <path class="cls-2" d="M783.23,443.86l-7.25-14.24c-5.1,1-10.28.49-15.52-1.51-7.32-2.81-15.96-5.59-22.12-9.03-16.43-9.17-26.27-23.68-29.52-43.54-4.91-3.83-9.31-8.13-13.2-12.89.32-.65.63-1.31.94-1.96,6.69-14.35,11.88-29.39,15.5-44.8,1.99-.36,3.95-1.13,5.88-2.2,1.57-3.98,2.36-7.45,2.37-10.42.07-11.87-3.2-22.84-9.8-32.9-5.25-7.99-11.56-13.41-18.95-16.26-22.59-8.7-47.81-1.42-63.14,17.71-3.08,3.84-4.59,7.51-4.53,11.01.06,3.79,1.64,7.47,4.74,11.05l.46.09c-.18.55-.36,1.1-.54,1.66-1.07,3.27-2.14,6.55-3.21,9.82-13.35-1.84-26.47,4.35-29.01,18.13-4.58,24.72,9.72,49.67,31.23,61.32.53.29.83.89.74,1.49-2.69,17.65,4.38,35.28,15.75,48.19,13.7,15.55,30.7,25.23,50.15,31.77,9.43,3.17,20.35,6.49,32.75,9.95,6.18,1.72,11.52,2.89,16.02,3.52,1.75.24,3.52-.09,5.07-.94,11-6.01,20.81-13.9,29.43-23.68,2.47-2.8,4.41-5.83,5.83-9.11.32-.73.29-1.55-.06-2.25Z"/>
        <rect class="cls-3" width="1301.33" height="1301.33"/>
        <path class="cls-6" d="M778.95,280.97c-3.37-2.34-6.53-4.6-9.48-6.8-3.81-2.84-7.58-2.92-11.31-.24-2.63,1.88-4.84,5.62-6.64,11.2-.94,2.9-1.97,8.93-3.1,18.09-8.46,4.77-20.55,11.45-30.5,10.46,1.57-3.98,2.36-7.45,2.37-10.42.07-11.87-3.2-22.84-9.8-32.9-5.25-7.99-11.56-13.41-18.95-16.26-22.59-8.7-47.81-1.42-63.14,17.71-3.08,3.84-4.59,7.5-4.53,11.01.06,3.79,1.64,7.47,4.74,11.05-19.82-6.18-37.9-15.27-54.23-27.27-7.83-5.76-14.25-11.51-19.25-17.26-5.31-6.1-10.63-13-15.96-20.69-2.79-4.03-5.14-8.42-7.07-13.17-.18-.46.05-.97.52-1.15.2-.08.43-.08.63,0,2.27.84,4.14,1.44,5.62,1.83,12.06,3.18,24.3,6.04,36.72,8.56.75.16,1.49-.34,1.64-1.1.04-.2.04-.4,0-.6-.08-.31-.42-.64-1.01-1-.4-.24-.83-.59-1.28-1.04-8.82-8.8-16.62-17.94-23.39-27.44-2.82-3.95-5.26-8.33-7.31-13.14-4.42-10.33-8.34-18.91-10.31-28.68-.09-.44.19-.87.64-.96.22-.04.46,0,.64.13,8.14,5.78,17.47,10.99,27.98,15.64,27.66,12.23,51.4,19.18,84.41,27.51,4.9,1.24,19.15,5.78,42.73,13.64,15.99,5.33,31,12.39,45.05,21.19,6.09,3.83,10.68,7.19,13.77,10.09,4.5,4.22,8.52,8.18,12.05,11.9,7.01,7.4,15.28,19.36,17.76,30.1Z"/>
        <path class="cls-2" d="M778.95,280.97c3.43,7.36,5.51,15.35,6.22,23.98.02.24-.15.45-.39.48-.2.02-.38-.1-.45-.28-1.12-2.75-1.81-4.4-2.07-4.95-5.38-11.45-18.74-12.71-24.64-.44-.22.46-.63.81-1.12.95l-8.08,2.52c1.13-9.16,2.16-15.19,3.1-18.09,1.8-5.59,4.02-9.32,6.64-11.2,3.73-2.68,7.5-2.6,11.31.24,2.95,2.19,6.11,4.46,9.48,6.8Z"/>
        <ellipse class="cls-2" cx="671.68" cy="296.17" rx="5" ry="5.42" transform="translate(138.36 800.6) rotate(-67.2)"/>
        <ellipse class="cls-2" cx="767.48" cy="300.67" rx="3.02" ry="3.99" transform="translate(279.57 965.03) rotate(-75.1)"/>
        <path class="cls-6" d="M685.45,495.82c-13.32-1.67-25.84-4.36-37.56-8.06-6.61-2.1-12.62-3.91-19.95-5.44-12.56-2.6-25.27-6.58-38.11-11.96-5.31-5.59-11.74-10.98-19.31-16.19-6.63-4.56-13.84-6.74-21.62-6.55-.5.01-.98.13-1.42.36-3.91,1.95-7.57,1.33-11.75,1.71l-3.5.26c-.66.04-1.23-.45-1.27-1.11,0-.05,0-.1,0-.16.5-8.47,1.98-15.48,2.39-23.19.22-4.18,1.67-21.53,4.33-52.07,1.99-22.95,5.35-44.7,7.99-65.05.13-1.08.36-1.97.68-2.67.26-.56.92-.8,1.48-.55.35.16.6.5.63.88.51,4.88,1.04,11.81,3.14,18.15,6.54,19.87,13.47,39.34,24.67,56.07,8.58,12.83,18.7,26.29,30.38,40.38,5.05,6.09,8.94,10.43,11.67,13.02,5.3,5.01,9.57,11.31,15.83,16.63,6.13,5.23,12.98,11.39,20.54,18.45.73.68,5.95,5.1,15.64,13.24,5.1,4.29,10.14,8.91,15.12,13.86Z"/>
        <path class="cls-5" d="M460.72,415.65c-4.29,8.82-7.43,17.76-9.44,26.83-2.2,10.01-3.16,20.61-2.85,31.82.28,10.69,2.64,21.25,7.07,31.68.44,1.02.14,2.2-.72,2.9-4.82,3.87-10.39,7.49-16.72,10.87-3.31,1.76-7.4,2.87-12.28,3.32-1.08.1-1.87,1.06-1.77,2.14.02.17.05.33.11.49.76,2.03,1.93,3.52,3.53,4.45-11.16-1.74-22.12-4.5-32.86-8.29-22.3-7.85-38.93-23.83-52.41-42.87-5.03-7.1-8.08-15.95-10.19-23.62-.8-2.87-1.26-5.94-1.39-9.21-.04-.9.66-1.66,1.56-1.7.32-.01.64.07.92.24,5.36,3.2,12.55,9.21,18.6,12.13,1.76.85,7.26,3.94,16.49,9.29,6.78,3.94,15.75,7.37,23.36,9.53.26.08.54-.06.63-.33.06-.19,0-.39-.14-.52-2.99-2.9-6.73-4.56-9.89-6.75-11.21-7.77-21.89-16.76-32.03-26.95-3.91-3.94-7.02-8.35-11.05-13.05-1-1.16-2.25-3.65-3.78-7.47-.19-.47-.42-.92-.69-1.34-5.15-7.99-8.33-13.77-9.51-17.34-.77-2.32-2-7.67-3.71-16.07-.77-3.74-.57-8.31-.08-11.64.23-1.53,1.66-2.59,3.18-2.36.08.01.16.03.24.05,4.82,1.16,8.08,4.18,13.23,8.15,2.79,2.14,5.19,4.29,7.2,6.45,4.05,4.33,9.38,9.27,13.8,14.54,7.98,9.53,16.56,18.61,25.73,27.23,1.37,1.29,3.02,1.87,4.95,1.74.25-.02.44-.23.42-.48,0-.09-.04-.18-.1-.26-15.9-19.22-30.46-39.37-41.6-61.53-1.69-3.35-2.43-7.75-4.55-11.91-6.29-12.38-9.43-25.76-9.41-40.12,0-3.58.08-5.54.24-5.87,2.2-4.67,9.6-1,12.46,1.43,1.93,1.66,5.79,5.3,11.57,10.9.3.29.56.63.77,1,1.45,2.49,5.53,7.42,12.25,14.81,3.05,3.35,6.58,8.07,10.59,14.16,3.28,4.98,6.61,9.83,9.98,14.54,10.43,14.57,21.26,30.7,32.48,48.41.14.2.41.25.61.12.13-.09.2-.24.19-.39-.33-3.32-1-7.44-1.92-10.66-3.57-12.34-5.9-25.14-6.98-38.39-.5-5.96,0-10.04.27-16.02.14-2.95,1.06-5.77,2.75-8.46.77-1.24,2.24-1.8,3.52-1.34,4.58,1.65,10.48,13.15,11.94,16.82.39.97.86,1.91,1.4,2.81,6.43,10.66,10.51,21.28,15.6,34.13,1.99,5.04,4.65,9.26,5.66,14.38.1.49.28.95.54,1.37,1.71,2.78,2.45,4.85,2.22,6.22Z"/>
        <path class="cls-7" d="M848.9,348.45c-2.81-.41-5.48-1.22-8-2.42-4.03-1.91-6.57-3.04-7.64-3.38-10.39-3.28-17.64-5.09-27.3-9.14-5.55-2.33-10.17-4.02-13.86-5.09-12.31-3.55-22.16-6.41-29.55-8.58-3.59-1.05-10.31-2.24-20.16-3.59,6.22-3.41,12.53-5.29,18.92-5.63.78-.05,1.56.05,2.31.29,9.21,2.88,18.17,4.77,27.59,8.35,5.76,2.19,12.46,4.64,20.1,7.32,12.22,4.29,24.56,10.5,37.01,18.63.95.62,1.54,1.47,1.78,2.55.03.13-.37.36-1.19.68Z"/>
        <path class="cls-5" d="M742.38,316.26c9.85,1.35,16.57,2.55,20.16,3.59,7.39,2.16,17.24,5.02,29.55,8.58,3.69,1.07,8.32,2.76,13.86,5.09,9.66,4.05,16.91,5.86,27.3,9.14,1.07.34,3.61,1.47,7.64,3.38,2.53,1.2,5.19,2,8,2.42-13.31.18-26.62-.17-39.94-1.04-42.48-2.81-64.46-4.14-93.85-7.44-.74-.08-1.31-.71-1.31-1.46v-11.52c0-.93.6-1.75,1.48-2.02l27.11-8.7Z"/>
        <path class="cls-5" d="M759.76,384.31c-5.76.1-12-.91-18.72-3.02-9.55-3.01-16.48-5.81-20.78-8.4-4.21-2.54-8.94-6.33-14.21-11.37-1.8-1.71-2.92-3.16-3.37-4.33-.1-.27.04-.58.3-.68.13-.05.27-.04.39.01,11.4,4.88,23.32,7.99,35.77,9.32.9.09,1.66.69,1.96,1.54.63,1.72,1.62,3.23,2.96,4.53,5.03,4.84,10.32,8.73,15.87,11.67.19.09.26.32.16.51-.07.13-.2.21-.34.21Z"/>
        <path class="cls-1" d="M796.92,384.49c-16.66,4.27-34.35-2.43-46.19-14.5-.5-.52-.49-1.35.02-1.85.24-.23.56-.37.9-.37,9.5-.04,17.14.21,22.91.74,3.35.32,7.25,2.34,10.12,4.95,4.09,3.68,8.24,6.95,12.46,9.79.31.22.39.65.17.97-.09.13-.23.23-.38.27Z"/>
        <path class="cls-4" d="M775.98,429.62c-5.1,1-10.28.49-15.52-1.51-7.32-2.81-15.96-5.59-22.12-9.03-16.43-9.17-26.27-23.68-29.52-43.54,6.52,4.91,13.41,8.67,20.66,11.28,12.01,4.32,23.99,6.57,35.95,6.77.14,0,.24.12.24.26.35,12.82,4.65,24.24,10.31,35.77Z"/>
        <path class="cls-6" d="M460.72,415.65c1.03,2.23,1.77,4.14,2.23,5.71.35,1.17.68,2.12.95,2.7,11.97,26.47,23.75,52.05,42.55,74.34,7.38,8.74,15.97,16.57,25.78,23.48.93.65,1.86,1.15,2.81,1.49.36.12.76-.08.88-.44.06-.19.04-.4-.06-.57-1.1-1.85-2.21-3.32-3.34-4.41-1.77-1.71-3.07-3.06-3.88-4.03-8.28-9.8-16.09-20.92-23.44-33.37-1.11-1.88-1.06-3.51.15-4.89,10.84-12.35,24.08-17.79,39.71-16.31,21.49,2.04,36.12,19.84,43.04,40.08l2.76,11.55c.59,4.8,1.22,9.86.94,14.51-.35,5.5-.61,11.01-.77,16.54-.41,14.45-4.76,28.81-10.07,42.18-.22.85-.6,1.58-1.15,2.2-.14.15-.38.15-.53.01-.07-.07-.11-.17-.12-.27l.26-10.54c0-.45-.35-.82-.81-.82-.26,0-.51.12-.67.32l-5.03,6.75c-.88.78-1.56,1.75-2.04,2.91-.18.43-.5.79-.91,1.01-1.71.94-3.03,2.43-3.94,4.47-.18.39-.45.72-.8.97-1.34.95-2.72,2.15-4.15,3.61-8.86,9-21.5,18.94-34.04,22.59-5.82,1.7-10.02,2.75-12.61,3.16-3.11.49-8.56.22-16.34-.82-.32-.05-.63-.14-.92-.26l-3.78-1.57c-.62-.25-.91-.96-.66-1.58.02-.05.04-.1.07-.15,3.16-5.59,8.23-12.2,13.5-18.03,4.37-4.83,8.61-11.16,12.71-19,.44-.85.63-1.55.57-2.11-.07-.75-.76-1.28-1.54-1.19-.22.03-.43.1-.62.22-5.73,3.67-11.46,6.82-17.18,9.44-10.31,4.72-20.36,5.94-30.16,3.67-2.7-.62-4.94-1.59-6.72-2.9-1.21-.89-1.92-2.3-1.93-3.81-.02-3.04.54-5.9,1.68-8.58,3.94-9.23,8-16.86,12.2-22.88.45-.64.3-1.53-.33-1.98-.28-.2-.62-.29-.96-.26-18.18,1.71-33.1-3.79-44.74-16.5l-1.63-2.16c-1.6-.94-2.78-2.42-3.53-4.45-.37-1.02.15-2.15,1.17-2.52.16-.06.32-.09.49-.11,4.87-.45,8.96-1.56,12.28-3.32,6.32-3.38,11.89-7.01,16.72-10.87.87-.7,1.16-1.88.72-2.9-4.43-10.43-6.79-20.99-7.07-31.68-.3-11.2.65-21.81,2.85-31.82,2-9.07,5.15-18.02,9.44-26.83Z"/>
        <path class="cls-5" d="M589.83,470.36l4.02,6.48c-6.19-.59-9.36-4.59-14.53-9.47-11.77-12.47-26.3-18.37-43.6-17.68,4.18-.38,7.84.24,11.75-1.71.44-.23.92-.35,1.42-.36,7.78-.19,14.99,1.99,21.62,6.55,7.57,5.2,14.01,10.6,19.31,16.19Z"/>
        <path class="cls-1" d="M593.85,476.84c7.08,13.11,12.71,26.85,16.9,41.22,3.42,11.78,6.65,23.24,9.69,34.4,1.06,8.97,2.72,20.79,4.98,35.46,5.06,32.75,4.74,65.96-.97,99.65-.55,3.26-2.62,11.68-6.19,25.26-.07.27-.12.54-.14.82-.21,2.57-1.03,5.72-2.46,9.45-5.94,15.51-10.44,32.58-13.51,51.21l-.29-3.46c-.03-.45-.43-.79-.87-.75-.26.02-.5.16-.64.39-4.02,6.49-6.69,13.46-8.03,20.91-1.37,7.64-1.63,19.01-4.26,27-4.21,12.9-14.69,30.7-28.46,34.87-9.16,2.77-15.05-.59-17.67-10.07-6.19-22.41-10.4-47.58-15.03-69.93-2.82-13.58-3.44-25.75-5.22-38.52-2.49-17.96-3.85-29.59-4.09-34.9-.62-13.79-1.09-29.83-1.4-48.13-.02-1.07.75-1.99,1.8-2.16,14.98-2.49,27.5-10.3,38.28-20.17,10.97-10.07,18.05-22.63,21.22-37.68.1-.48-.04-.99-.38-1.36-1.98-2.15-4.39-1.79-7.22,1.1,1.61-3.11,2.62-6.31,3.04-9.59l5.03-6.75c.28-.36.8-.43,1.16-.16.21.16.32.4.32.66l-.26,10.54c0,.21.17.38.38.37.1,0,.2-.04.27-.12.54-.62.93-1.36,1.15-2.2,3.59-2.89,6.06-6.46,7.38-10.71,3.28-10.43,5.98-21.19,6.19-31.95.2-10.37-1.02-20.56-3.67-30.56l-2.76-11.55c2.57,1.37,3.61-.46,3.14-5.48-.97-10.16-4.94-19.02-11.93-26.58,5.16,4.88,8.34,8.88,14.53,9.47Z"/>
        <path class="cls-2" d="M685.45,495.82c4.2,2.36,8.96,4.87,14.3,7.55,17.71,8.9,35.84,15.37,54.41,19.4,1.36.3,2.78-.02,3.88-.88,4.13-3.19,7.96-6.65,11.49-10.39,10.37-10.94,19.38-22.92,27.03-35.94.23-.4.74-.54,1.13-.31.15.09.27.22.35.38,7.67,16.6,12.41,32.9,16.6,51.87,3.56,16.17,4.14,34.63,1.74,55.39-.68-.77-1.29-.23-1.81,1.6-.03.08-.11.14-.2.14-.15,0-.28-.02-.38-.06-.02,0-.05,0-.06.03,0,0,0,0,0,0-1.77,3.21-3.37,6.35-4.8,9.41-5.81,12.52-13.61,23.01-23.99,31.64-20.58,17.08-44.23,26.43-70.78,23.03-21.47-2.73-39.53-13.29-53.76-29.13-14.87-16.57-26.14-36.79-34.13-57.13-1.09-2.77-3.1-6.09-6.03-9.97-3.04-11.15-6.27-22.62-9.69-34.4-4.19-14.38-9.82-28.12-16.9-41.22l-4.02-6.48c12.85,5.38,25.55,9.36,38.11,11.96,7.32,1.53,13.33,3.34,19.95,5.44,11.72,3.7,24.24,6.39,37.56,8.06Z"/>
        <path class="cls-6" d="M839.99,656.15c-3.46-2.17-4.9-5.8-4.3-10.87.38-3.22.54-6.24.48-9.05-.23-9.97.59-22.05-.12-32.95-1.12-17.16-2.03-28.39-2.73-33.69-.36-2.64-1.81-6.09-4.33-10.36-.72-19.01-4.42-37.83-8.56-55.87-.06-.31.13-.61.44-.68.22-.05.45.04.58.23,8.94,13.05,16.16,27.55,21.67,43.52,12.66,36.74,11.62,73.32-3.13,109.72Z"/>
        <path class="cls-7" d="M580.97,584.2c5.32-13.36,9.66-27.72,10.07-42.18.16-5.53.42-11.04.77-16.54.29-4.65-.35-9.71-.94-14.51,2.65,10.01,3.87,20.19,3.67,30.56-.21,10.77-2.91,21.52-6.19,31.95-1.33,4.25-3.79,7.82-7.38,10.71Z"/>
        <path class="cls-7" d="M429.28,532.31c11.65,12.71,26.56,18.22,44.74,16.5.78-.08,1.48.49,1.55,1.27.03.34-.06.68-.26.96-4.2,6.02-8.27,13.65-12.2,22.88-1.14,2.68-1.7,5.54-1.68,8.58,0,1.5.73,2.91,1.93,3.81,1.78,1.31,4.02,2.28,6.72,2.9,9.8,2.28,19.85,1.05,30.16-3.67,5.73-2.62,11.46-5.76,17.18-9.44.66-.42,1.53-.25,1.95.37.12.18.19.38.21.59.06.56-.13,1.27-.57,2.11-4.11,7.83-8.35,14.16-12.71,19-5.27,5.83-10.34,12.44-13.5,18.03-.33.58-.13,1.32.44,1.65.05.03.1.05.15.07l3.78,1.57c.29.12.6.21.92.26,7.78,1.04,13.23,1.31,16.34.82,2.59-.4,6.79-1.45,12.61-3.16,12.53-3.65,25.17-13.59,34.04-22.59,1.43-1.46,2.81-2.66,4.15-3.61.35-.25.62-.58.8-.97.92-2.04,2.23-3.53,3.94-4.47.41-.22.73-.58.91-1.01.48-1.17,1.16-2.14,2.04-2.91-.41,3.28-1.42,6.48-3.04,9.59-6,11.14-14.06,20.75-24.18,28.81-7.21,5.75-14.94,9.97-23.19,12.65-11.47,3.72-19.09,5.83-22.88,6.33-3.31.42-7.54.34-12.67-.24-5.15-.59-9.37-1.1-12.64-1.53-18.35-2.39-35.91-17.67-45.41-32.65-7.61-12.01-13.64-22.71-18.09-32.1-7.32-15.42-12.05-23.3-20.02-39.29-.3-.59-.42-1.12-.35-1.59.09-.73.76-1.24,1.5-1.15.05,0,.11.02.16.03,12.09,3.12,24.35,3.97,36.77,2.54.5-.06.63-.38.39-.95Z"/>
        <path class="cls-4" d="M816.37,582.9c-.78,10.28-2.16,19.59-4.17,27.94-4.95,20.73-11.29,39.94-19,57.64-6.54,15.01-16.16,31.43-28.86,49.26-2.38,3.34-7.41,9.21-15.1,17.59-6.72,7.33-12.19,12.8-16.38,16.4-31.86,27.3-68.47,43.63-109.62,45.72-6.82.35-12.26,0-16.32-1.07-6.75-1.8-5.87-15.52-4.77-22.08,3.07-18.62,7.58-35.69,13.51-51.21,1.43-3.73,2.25-6.89,2.46-9.45.02-.27.07-.54.14-.82,3.57-13.58,5.64-22,6.19-25.26,5.71-33.68,6.03-66.9.97-99.65-2.27-14.67-3.93-26.49-4.98-35.46,2.93,3.88,4.94,7.2,6.03,9.97,7.99,20.34,19.25,40.56,34.13,57.13,14.22,15.84,32.29,26.4,53.76,29.13,26.55,3.4,50.19-5.95,70.78-23.03,10.39-8.62,18.18-19.12,23.99-31.64,1.43-3.06,3.03-6.2,4.8-9.41,0-.02.03-.04.06-.03,0,0,0,0,0,0,.1.04.23.06.38.06.09,0,.17-.06.2-.14.52-1.83,1.13-2.37,1.81-1.6Z"/>
        <path class="cls-5" d="M839.99,656.15c-.92,5.33-1.79,9.06-2.63,11.19-2.36,6.06-5.57,12.62-9.63,19.68-.81,1.4-1.75,2.51-2.84,3.34-.26.19-.63.13-.82-.13-.1-.14-.14-.31-.1-.47,1.21-4.92,2.54-11.9,3.99-20.93.81-5.07,1.12-10.61.94-16.6-.17-5.57-.48-11.12-.94-16.67-3-3.8-4.97-8.13-5.9-13.02,4.33-20.87,6.64-41.97,6.93-63.3,2.53,4.27,3.97,7.72,4.33,10.36.7,5.3,1.62,16.53,2.73,33.69.71,10.9-.11,22.98.12,32.95.06,2.81-.1,5.82-.48,9.05-.59,5.07.84,8.7,4.3,10.87Z"/>
        <path class="cls-5" d="M822.05,622.54c.94,4.88,2.9,9.22,5.9,13.02-1.06,2.5-1.65,4.43-1.78,5.81-1.44,15.61-4.79,30.81-10.04,45.57-3.04,8.53-6.6,15.78-10.69,21.76-2.51,3.67-6.52,9.06-12.05,16.14-1.79,2.31-5.63,5.92-11.52,10.86-5.36,4.5-13.08,6.67-19.68,7.85-.38.06-.73-.2-.79-.58-.03-.19.02-.37.13-.52,3.79-4.9,10.64-14.26,20.57-28.07,6.04-8.41,9.02-14.62,14.89-26.26,10.58-20.96,18.94-42.82,25.07-65.58Z"/>
        <path class="cls-1" d="M771.52,957.9c-9.5-2.94-20.95-3.63-30.17-4.75-9.08-1.09-17.81-1.68-26.19-1.77-.29,0-.54-.2-.62-.48-5.98-20.81-10.33-42.15-13.04-64.04-1.33-10.75-2.06-20.23-2.18-28.43,0-.33.16-.64.43-.82,1.51-.99,2.96-2,4.36-3.04h-37.66c2.01,2.23,4.5,4.09,7.61,5.44.36.16.62.48.7.87,6.67,34.1,12.02,60.37,16.05,78.81.12.56.53,3.1,1.22,7.62.71,4.67-1.38,6.79-5.71,8.63-4.55,1.94-7.58,3.33-11.23,7.07-.27.28-.46.62-.56.98-1.82,6.89,6.03,7.81,10.52,8.2,4.73.4,15.89-.71,24.11.7,23.1,3.98,35.61,6.1,37.52,6.35,6.53.87,12.54,1.11,18.04.74.06,0,.13-.02.19-.03.49-.14.78-.65.64-1.15-.84-3.02-2.58-5.18-5.2-6.49-7.54-3.75-15.88-6.51-25.02-8.28-6.25-1.21-13.96-2.57-23.13-4.07-.56-.09-1.06-.41-1.37-.89l-.06-.09c-.05-.08-.08-.17-.07-.27.01-.25.22-.44.47-.43,13.91.77,27.34,3.28,40.29,7.54,3.32,1.09,6.04,2.47,8.18,4.15,1.41,1.11,2.31,1.77,2.7,1.97.32.16.67.27,1.02.3l24.05,2.21c.15.01.3,0,.44-.06.47-.19.69-.73.5-1.2-3.19-7.71-8.79-12.81-16.81-15.29Z"/>
        <path class="cls-1" d="M865.62,350.46c-3.79-8.44-14.24-14.98-22.67-19.63-14.78-8.15-30.35-14.78-46.71-19.89-.47-.15-.83-.55-.92-1.04-.28-1.63-.47-3.87-.56-6.7,0-.22-.02-.44-.03-.67-.02-.41-.04-.81-.06-1.22,0-.04,0-.09,0-.13-.29-5.66-1.07-11.08-2.34-16.25-.26-.12-.51-.25-.77-.38-4.51-14.96-13.23-29.35-22.88-40.21-10.25-11.56-23.73-21.77-40.45-30.64-18.32-9.73-38.06-17.54-59.22-23.42-30.16-8.37-55.9-14.38-83.39-24.96-23.1-8.9-43.96-20.95-62.56-36.15-.07-.06-.16-.09-.25-.11-.26-.03-.51.16-.54.42-.91,9.32-.71,18.02,2.11,27.32,2.56,8.43,3.84,12.66,3.85,12.7,4.05,12.82,12.19,25.87,20.11,38.33.09.15.12.33.07.49-.09.33-.43.52-.76.43l-32.21-10.22c-.06-.02-.12-.02-.17,0-.18.04-.29.22-.25.4,4.43,15.75,11.57,30.53,21.41,44.34,3.6,5.07,5.81,8.2,6.61,9.38.37.56.47,1.26.26,1.89-6.34,19.15-11.02,39.81-14.03,61.99-.84,6.15-1.82,15.09-2.94,26.8-3.56,37.2-5.92,64.01-7.07,80.43-.82,11.62-1.59,21.25-2.33,28.89-.07.65-.42,1.24-.97,1.6-6.64,4.39-12.4,8.05-17.23,13.67-.04.05-.09.09-.14.13-.3.2-.7.11-.9-.19-15.16-22.8-24.61-47.99-34.85-74.34-6.84-17.58-13.66-32.92-20.46-46.04-5.39-10.39-16.46-25.97-28.75-15.18-7.81,6.87-7.82,26.92-6.73,36.17.02.13-.04.27-.15.34-.16.1-.38.06-.48-.1-8.67-11.85-16.94-23.35-24.81-34.5-8.16-11.59-17.24-21.64-27.23-30.16-5.16-4.39-13.86-8.64-20.64-5.66-11.43,5.03-9.45,24.95-7.54,34.47,2.32,11.57,6.31,22.93,11.99,34.1.1.19.08.42-.06.58-.18.22-.51.24-.72.06-5.33-4.33-14.38-7.78-20.22-3.53-8.03,5.83-6.12,22.74-3.84,31.29,3.73,13.95,10.07,26.7,19.01,38.25.06.08.08.17.08.26-.01.22-.2.4-.43.39-1.3-.11-2.83-.21-4.61-.3-11.78-.59-4.39,25.75-2.14,31.29,10.07,24.7,26.42,44.11,49.05,58.23.57.35,1.04.83,1.39,1.4,1.55,2.51,2.8,4.72,3.74,6.63,4.17,8.46,10.76,21.99,19.77,40.59,5.87,12.12,13.04,24.63,21.52,37.52,1.73,2.64,3.35,4.83,4.86,6.58,4.35,5,8.4,10.21,13.09,14.22,17.47,14.97,38.26,21.61,62.38,19.92.01,0,.02,0,.03,0,.48-.02.87.36.89.85l.51,21.79c.02.61-.06,1.22-.24,1.8-8.74,28.72-22.04,55.47-39.9,80.26-26.29,36.47-60.06,67.58-96.15,94.18-3.95,2.91-13.75,10.28-29.42,22.11-2.96,2.23-4.62,4.09-4.98,5.56-1.31,5.29,2.28,8.85,6.67,11.1,15.73,8.09,32.09,14.04,49.83,17.09,21.86,3.76,42.63,4.42,62.32,1.99,17.64-2.16,34.47-9.06,49.8-20.34,12.27-9.04,23.34-18.99,33.19-29.84.06-.07.15-.11.24-.11.18,0,.34.15.35.34.07,2.57,9.82,7.13,9.82,6.86,0-.09.01-.18.04-.27.14-.44.61-.69,1.05-.55,5.99,1.93,11.79,1.98,17.41.14.05-.01.1-.02.14-.02.28,0,.5.22.51.49,0,.32,9.62-3.87,9.62-3.87,0-.48.21-.94.59-1.25,12.55-10.49,21.38-23.47,26.47-38.93.88-2.64,2.06-6.15,3.55-10.53.15-.44.58-.73,1.06-.69,16.47,1.4,33.3.51,50.5-2.66,0,0,0,0,.01,0,.76-.13,1.49.38,1.62,1.14,2.7,15.75,4.17,31.32,9.06,45.83.28.85.42,1.74.42,2.63,0,0,9.58,7.46,9.57,6.49,0-.09.01-.18.04-.26.14-.49.65-.77,1.14-.63,6.78,1.93,13.11,2.11,19.01.54.05-.01.1-.02.16-.02.36,0,.65.28.66.64l9.97-5.68c0-.46.14-.91.39-1.3,4.84-7.27,9.53-15.33,14.07-24.19,11.83-23.13,22.1-47.63,30.81-73.48.23-.71.84-1.23,1.57-1.36,12.62-2.19,23.74-5.78,34.75-13.92,9.47-7.01,16.91-14.54,22.32-22.61.27-.4,1.64-1.15,4.11-2.23,5.29-2.36,10.07-7.81,12.91-12.17,26.7-40.86,41.86-94.7,30.47-143.14-7.92-33.64-23.6-63.17-47.02-88.58-2.5-2.71-3.78-4.1-3.85-4.17-.75-.87-1.39-1.84-1.89-2.88-6.38-13.17-11.53-23.39-15.43-30.67-5.29-9.82-10.03-21.04-12.96-30.79-.63-2.11-.98-5.29-1.03-9.51v-.02c0-.46.39-.82.85-.82,11.02.16,17.3.15,18.83-.05,9.52-1.17,19.5-4.64,29.94-10.4,1.79-.99,3.37-2.35,4.73-4.08.15-.19.22-.43.21-.67-.03-.56-.5-.99-1.06-.96-13.73.66-26.62-.3-37.71-9.3-.07-.06-.11-.14-.12-.23-.02-.2.12-.38.32-.4,15.04-1.21,29.98-3.07,44.83-5.57,9.82-1.65,19.14-4.75,27.98-9.3,1.17-.6,1.66-2.01,1.12-3.2ZM763.62,299.65h0c.15-.55.49-1,.96-1.35,2.57-.08,4.82,2.1,5.26,5.06-.87.42-1.99.53-3.14.23-2.13-.57-3.51-2.33-3.08-3.94ZM443.42,889.29c-4.97,2.4-11.17,7.5-18.38,7.52-13.88.04-26.79-1.31-38.73-4.06-.2-.05-.38-.17-.51-.34-.27-.39-.18-.93.2-1.2l2.76-1.92s.08-.04.12-.06c16.09-7.65,27.42-13.8,33.99-18.45,5.99-4.24,10.18-7.1,12.58-8.58,4.71-2.91,7.58-4.86,8.59-5.84,1.04-1.01,2.9-2.39,5.59-4.15.84-.54,2.61-2.03,5.33-4.45,6.01-5.33,12.38-9.77,18.29-15.51,9.79-9.53,19.24-19.41,28.37-29.63l3.04-10.22c.02-.08.03-.16.01-.24-.05-.28-.32-.46-.6-.41l-2.1.45-10.43,9.88c-12.32,12.81-23.19,25.29-38.36,36.74-10.56,7.97-19.66,14.6-27.3,19.87-5.95,4.12-19.63,12.09-41.03,23.92-1.93,1.07-6.77,3.13-14.5,6.19-.48.19-1.01.25-1.52.17-8.29-1.43-16.67-6.19-24.15-9.75-.18-.08-.33-.21-.44-.38-.34-.5-.2-1.17.29-1.51,22.38-15.48,44.94-31.97,67.36-51.51,9.83-8.58,18.93-17.45,27.32-26.62,7.04-7.72,12.04-12.49,17.05-18.68,8.73-10.74,16.18-20.73,22.35-29.96,8.65-12.94,16.57-29.3,23.47-42.96.09-.17.26-.28.45-.3.32-.04.62.19.65.52l2.36,25.5,2.01,15.33c3.35,16.75,6.39,33.54,9.11,50.38.89,5.59,2.33,12.32,4.41,17.98.23.63.11,1.33-.32,1.86l-13.64,16.52c-10.18,11.72-21.29,22.48-33.34,32.29-7.14,5.83-16.29,11.07-22.67,16.61-2.28,1.98-4.84,3.66-7.69,5.03ZM528.74,847.19c-8.24,8.91-14.47,14.06-26.31,24.3-5.32,4.59-10.21,8.16-14.69,10.71-9.17,5.21-18.19,9.12-27.05,11.72-3.19.93-6.26,1.39-9.2,1.39-.15,0-.29-.05-.4-.13-.31-.23-.38-.66-.15-.97.28-.37.59-.65.92-.85,10.28-5.91,19.56-12.57,27.83-19.98,1.87-1.67,2.95-2.7,3.25-3.1,1.42-1.84,3.34-2.63,5.04-4.29,6.52-6.39,11.04-11.05,13.56-13.97,3.86-4.47,6.9-7.62,9.14-9.45.14-.11.27-.24.38-.38l11.11-13.91c.12-.14.27-.25.45-.31.49-.15,1,.12,1.15.61l5.32,17c.18.56.05,1.17-.35,1.6ZM725.68,800.17c-4.74,13.61-11.69,28.78-20.72,41.01-6.57,8.88-11.3,12.11-21.96,11.72-.9-.03-1.7-.61-2.02-1.46-3.41-9.26-3.71-18.8-4-28.83-.23-8.3.71-16.11,2.82-23.44.2-.69.65-1.28,1.25-1.66,2.94-1.88,8.01-4.3,15.21-7.26,11.36-4.67,23-10.86,32.06-18.33,4.5-3.71,7.38-6.07,8.65-7.07.08-.07.17-.1.27-.1.24,0,.44.2.45.45.09,13.38-7.91,23.25-12.02,34.97ZM820.65,502.78c.26-.19.62-.13.8.13,8.94,13.05,16.16,27.55,21.67,43.52,12.66,36.74,11.62,73.32-3.13,109.72-.92,5.33-1.79,9.06-2.63,11.19-2.36,6.06-5.57,12.62-9.63,19.68-.81,1.4-1.75,2.51-2.84,3.34-.14.1-.31.14-.47.1-.32-.07-.52-.39-.45-.7,1.21-4.92,2.54-11.9,3.99-20.93.81-5.07,1.12-10.61.94-16.6-.17-5.57-.48-11.12-.94-16.67-1.06,2.5-1.65,4.43-1.78,5.81-1.44,15.61-4.79,30.81-10.04,45.57-3.04,8.53-6.6,15.78-10.69,21.76-2.51,3.67-6.52,9.06-12.05,16.14-1.79,2.31-5.63,5.92-11.52,10.86-5.36,4.5-13.08,6.67-19.68,7.85-.19.03-.37-.02-.52-.13-.31-.23-.37-.67-.14-.97,3.79-4.9,10.64-14.26,20.57-28.07,6.04-8.41,9.02-14.62,14.89-26.26,10.58-20.96,18.94-42.82,25.07-65.58,4.33-20.87,6.64-41.97,6.93-63.3-.72-19.01-4.42-37.83-8.56-55.87-.05-.22.04-.45.23-.58ZM796.56,475.57c.09-.15.22-.27.38-.35.42-.19.91,0,1.1.42,7.67,16.6,12.41,32.9,16.6,51.87,3.56,16.17,4.14,34.63,1.74,55.39-.78,10.28-2.16,19.59-4.17,27.94-4.95,20.73-11.29,39.94-19,57.64-6.54,15.01-16.16,31.43-28.86,49.26-2.38,3.34-7.41,9.21-15.1,17.59-6.72,7.33-12.19,12.8-16.38,16.4-31.86,27.3-68.47,43.63-109.62,45.72-6.82.35-12.26,0-16.32-1.07-6.75-1.8-5.87-15.52-4.77-22.08l-.29-3.46c-.02-.26-.16-.5-.39-.64-.39-.23-.89-.11-1.12.27-4.02,6.49-6.69,13.46-8.03,20.91-1.37,7.64-1.63,19.01-4.26,27-4.21,12.9-14.69,30.7-28.46,34.87-9.16,2.77-15.05-.59-17.67-10.07-6.19-22.41-10.4-47.58-15.03-69.93-2.82-13.58-3.44-25.75-5.22-38.52-2.49-17.96-3.85-29.59-4.09-34.9-.62-13.79-1.09-29.83-1.4-48.13-.02-1.07.75-1.99,1.8-2.16,14.98-2.49,27.5-10.3,38.28-20.17,10.97-10.07,18.04-22.63,21.22-37.68.1-.48-.04-.99-.38-1.36-1.98-2.15-4.39-1.79-7.22,1.1-6,11.14-14.06,20.75-24.18,28.81-7.21,5.75-14.94,9.97-23.19,12.65-11.47,3.72-19.09,5.83-22.88,6.33-3.31.42-7.54.34-12.67-.24-5.15-.59-9.37-1.1-12.64-1.53-18.35-2.39-35.91-17.67-45.41-32.65-7.61-12.01-13.64-22.71-18.09-32.1-7.32-15.42-12.05-23.3-20.02-39.29-.3-.59-.42-1.12-.35-1.59,0-.05.02-.11.03-.16.18-.71.91-1.14,1.63-.96,12.09,3.12,24.35,3.97,36.77,2.54.5-.06.63-.38.39-.95l-1.63-2.16c-11.16-1.74-22.12-4.5-32.86-8.29-22.3-7.85-38.93-23.83-52.41-42.87-5.03-7.1-8.08-15.95-10.19-23.62-.8-2.87-1.26-5.94-1.39-9.21-.01-.32.07-.64.24-.92.47-.77,1.47-1.01,2.24-.55,5.36,3.2,12.55,9.21,18.6,12.13,1.76.85,7.26,3.94,16.49,9.29,6.78,3.94,15.75,7.37,23.36,9.53.19.06.39,0,.52-.14.18-.2.17-.52-.04-.7-2.99-2.9-6.74-4.56-9.89-6.75-11.21-7.77-21.89-16.76-32.03-26.95-3.91-3.94-7.02-8.35-11.05-13.05-1-1.16-2.26-3.65-3.78-7.47-.19-.47-.42-.92-.69-1.34-5.15-7.99-8.33-13.77-9.51-17.34-.76-2.32-2-7.67-3.71-16.07-.77-3.74-.57-8.31-.08-11.64.01-.08.03-.16.05-.25.37-1.51,1.88-2.43,3.38-2.07,4.82,1.16,8.08,4.18,13.23,8.15,2.79,2.14,5.19,4.29,7.2,6.45,4.05,4.33,9.38,9.27,13.8,14.54,7.98,9.53,16.56,18.61,25.73,27.23,1.37,1.29,3.02,1.87,4.95,1.74.09,0,.18-.04.26-.1.19-.16.22-.44.06-.64-15.9-19.22-30.46-39.37-41.6-61.53-1.69-3.35-2.43-7.75-4.55-11.91-6.29-12.38-9.43-25.76-9.41-40.12,0-3.58.08-5.54.24-5.87,2.2-4.67,9.6-1,12.46,1.43,1.93,1.66,5.79,5.3,11.57,10.9.3.29.56.63.77,1,1.45,2.49,5.53,7.42,12.25,14.81,3.05,3.35,6.58,8.07,10.59,14.16,3.28,4.98,6.61,9.83,9.98,14.54,10.43,14.57,21.26,30.7,32.48,48.41.09.13.24.2.39.19.24-.02.42-.22.41-.46-.33-3.32-1-7.44-1.92-10.66-3.57-12.34-5.9-25.14-6.98-38.39-.5-5.96,0-10.04.27-16.02.14-2.95,1.06-5.77,2.75-8.46.77-1.24,2.24-1.8,3.52-1.34,4.58,1.65,10.48,13.15,11.94,16.82.39.97.86,1.91,1.4,2.81,6.43,10.66,10.51,21.28,15.6,34.13,1.99,5.04,4.65,9.26,5.66,14.38.1.49.28.95.54,1.37,1.71,2.78,2.45,4.85,2.22,6.22,1.03,2.23,1.77,4.14,2.23,5.71.35,1.17.68,2.12.95,2.7,11.97,26.47,23.75,52.05,42.55,74.34,7.38,8.74,15.97,16.57,25.78,23.48.93.65,1.86,1.15,2.81,1.49.19.06.4.04.57-.06.33-.19.44-.62.25-.95-1.1-1.85-2.21-3.32-3.34-4.41-1.77-1.71-3.07-3.06-3.88-4.03-8.28-9.8-16.09-20.92-23.44-33.37-1.11-1.88-1.06-3.51.15-4.89,10.84-12.35,24.08-17.79,39.71-16.31,21.49,2.04,36.12,19.84,43.04,40.08,2.57,1.37,3.61-.46,3.14-5.48-.97-10.16-4.94-19.02-11.93-26.58-11.77-12.47-26.3-18.37-43.6-17.68l-3.5.26c-.05,0-.1,0-.16,0-.66-.04-1.16-.61-1.11-1.27.5-8.47,1.98-15.48,2.39-23.19.22-4.18,1.67-21.53,4.33-52.07,1.99-22.95,5.35-44.7,7.99-65.05.13-1.08.36-1.97.68-2.67.17-.36.51-.6.9-.64.61-.07,1.16.37,1.22.98.51,4.88,1.04,11.81,3.14,18.15,6.54,19.87,13.47,39.34,24.67,56.07,8.58,12.83,18.7,26.29,30.38,40.38,5.05,6.09,8.94,10.43,11.67,13.02,5.3,5.01,9.57,11.31,15.83,16.63,6.13,5.23,12.98,11.39,20.54,18.45.73.68,5.95,5.1,15.64,13.24,5.1,4.29,10.14,8.91,15.12,13.86,4.2,2.36,8.96,4.87,14.3,7.55,17.71,8.9,35.84,15.37,54.41,19.4,1.36.3,2.78-.02,3.88-.88,4.13-3.19,7.96-6.65,11.49-10.39,10.37-10.94,19.38-22.92,27.03-35.94ZM775.98,429.62l7.25,14.24c.35.7.38,1.52.06,2.25-1.42,3.27-3.36,6.31-5.83,9.11-8.62,9.78-18.43,17.67-29.43,23.68-1.55.84-3.33,1.17-5.07.94-4.5-.62-9.84-1.8-16.02-3.52-12.4-3.46-23.32-6.78-32.75-9.95-19.45-6.54-36.45-16.22-50.15-31.77-11.37-12.91-18.44-30.53-15.75-48.19.09-.61-.21-1.2-.74-1.49-21.5-11.66-35.8-36.6-31.23-61.32,2.66-14.42,16.9-20.54,30.87-17.83,1.12.22,1.99,1.11,2.16,2.23l.45,3.05c.03.19.1.38.2.55.44.74,1.39.99,2.13.55,1.49-.89,3.19-2.26,4.94-3.5v-19.82c-1.49,1.56-2.88,3.25-4.14,5.06-.31.46-.87.69-1.4.57l-2.9-.57c-19.82-6.18-37.9-15.27-54.23-27.27-7.83-5.76-14.25-11.51-19.25-17.26-5.31-6.1-10.63-13-15.96-20.69-2.79-4.03-5.14-8.42-7.07-13.17-.08-.2-.08-.42,0-.62.17-.46.69-.71,1.16-.54,2.26.84,4.14,1.44,5.62,1.83,12.06,3.18,24.3,6.04,36.72,8.56.19.04.4.04.59,0,.75-.17,1.21-.93,1.04-1.68-.08-.31-.42-.64-1.01-1-.4-.24-.83-.59-1.28-1.04-8.82-8.8-16.62-17.94-23.39-27.44-2.82-3.95-5.26-8.33-7.31-13.14-4.42-10.33-8.34-18.91-10.31-28.68-.05-.22,0-.45.13-.63.26-.37.78-.46,1.15-.2,8.14,5.78,17.47,10.99,27.98,15.64,27.66,12.23,51.4,19.18,84.41,27.51,4.9,1.24,19.15,5.78,42.73,13.64,15.99,5.33,31,12.39,45.05,21.19,6.09,3.83,10.68,7.19,13.77,10.09,4.5,4.22,8.52,8.18,12.05,11.9,6.86,7.24,14.92,18.86,17.58,29.42-3.33-2.02-7-2.68-11.02-1.94-11.55,2.13-16.27,13.23-16.65,24.04l-2.69.84c-8.46,4.77-20.55,11.45-30.5,10.46-4.45,2.49-9.06,3.32-13.95,1.31-2.67-1.1-5.82-2.29-9.43-3.57v9.74c5.86,1.51,11.56,5.66,11.27,12.09-.23,5.09-6.15,9.45-11.14,7.66-5.42-1.93-9.32-4.02-12.91.98-.06.08-.1.17-.14.26-.26.65.06,1.39.72,1.66,1.25.49,2.26,1.49,3.02,2.99,5.78,11.46,13.6,21.04,23.47,28.74,6.52,4.91,13.41,8.67,20.66,11.28,12.01,4.32,24,6.57,35.95,6.77.14,0,.24.12.24.26.35,12.82,4.65,24.24,10.31,35.77ZM739.15,365.85c.9.09,1.66.69,1.96,1.54.63,1.72,1.62,3.23,2.96,4.53,5.03,4.84,10.32,8.73,15.87,11.67.13.06.21.19.21.33,0,.21-.17.39-.39.4-5.76.1-12-.91-18.72-3.02-9.55-3.01-16.48-5.81-20.78-8.4-4.21-2.54-8.94-6.33-14.21-11.37-1.8-1.71-2.92-3.16-3.37-4.33-.05-.13-.04-.27.01-.4.12-.27.42-.38.68-.26,11.4,4.88,23.32,7.99,35.77,9.32ZM797.13,383.26c.13.09.23.23.27.38.1.37-.11.75-.48.86-16.66,4.27-34.35-2.43-46.19-14.5-.23-.24-.37-.57-.37-.91,0-.72.57-1.31,1.29-1.31,9.5-.04,17.14.21,22.91.74,3.35.32,7.25,2.34,10.12,4.95,4.09,3.68,8.24,6.95,12.46,9.79ZM848.9,348.45c-13.31.18-26.62-.17-39.94-1.04-42.48-2.81-64.46-4.14-93.85-7.44-.74-.08-1.31-.71-1.31-1.46v-11.52c0-.93.6-1.75,1.48-2.02l27.11-8.7c6.22-3.41,12.53-5.29,18.92-5.63.78-.05,1.56.05,2.31.29,9.21,2.88,18.17,4.77,27.59,8.35,5.76,2.19,12.46,4.64,20.1,7.32,12.22,4.29,24.56,10.5,37.01,18.63.95.62,1.54,1.47,1.78,2.55.03.13-.37.36-1.19.68Z"/>
        <path class="cls-1" d="M627.03,962.27c-15.74-3.14-31.34-4.68-47.33-5.58-.23-.01-.42-.18-.47-.4-4.56-21.31-7.66-42.77-9.32-64.4-.76-9.94-.98-19.82-.65-29.62.03-.64.38-1.22.94-1.54,3.16-1.78,6.15-3.85,8.98-6.15h-39.32c1.2,1.42,2.53,2.77,4.03,4.01.31.27.52.64.57,1.05,4.41,32.81,8.26,60.33,11.53,82.54.56,3.79.87,6.84.92,9.17.08,3.55-1.32,6.08-4.2,7.57-4.29,2.21-17.03,5.42-15.45,12.43,1.41,6.22,19.02,5.14,24.03,5.12,3.21-.01,6.55.36,10.01,1.11,15.5,3.39,30.65,6.81,44.53,8.25,3.13.32,7.33.37,12.61.13.05,0,.11-.01.16-.03.32-.1.49-.44.39-.75-.81-2.61-2.01-4.45-3.58-5.53-3.36-2.29-7.46-4.22-12.29-5.81-12.13-3.97-24.65-6.9-37.58-8.79-.39-.06-.71-.32-.84-.68l-.11-.29c-.03-.07-.04-.15-.03-.22.02-.28.26-.49.54-.46,8.27.68,17.17,2.12,26.7,4.32,9.78,2.25,17.47,5.58,23.09,9.98.48.38,1.06.61,1.67.69l24.43,3.17c.14.02.27,0,.4-.04.47-.16.71-.68.55-1.14-3.99-10.94-13.63-15.84-24.92-18.09Z"/>
        <g>
          <path class="cls-1" d="M702.43,308.6c0,10.59-4.53,20.12-11.74,26.76-4.22-15.43-18.36-26.76-35.12-26.76-9.53,0-18.17,3.65-24.67,9.65-.86-3.07-1.31-6.31-1.31-9.65,0-20.12,16.31-36.43,36.43-36.43s36.41,16.31,36.41,36.43Z"/>
          <circle class="cls-2" cx="673.1" cy="295.95" r="10.16"/>
          <path class="cls-2" d="M760.6,302.87c1.53.18,3.07.36,4.6.53,2.52.28,5.04.55,7.57.79.12-.56.16-1.15.11-1.75-.27-3.42-3.26-5.98-6.68-5.71-3.24.26-5.7,2.95-5.72,6.14.04,0,.08-.01.12,0Z"/>
        </g>
      </g>
      <path class="cls-6" d="M505.54,733.3c-.83,8.8-2.49,18.65-2.37,26.56.12,8.4.67,16.61,1.66,24.64.17,1.35-.25,2.71-1.15,3.73l-12.14,13.83c-12.32,12.81-23.19,25.29-38.36,36.74-10.56,7.97-19.66,14.6-27.3,19.87-5.95,4.12-19.63,12.09-41.03,23.92-1.93,1.07-6.77,3.13-14.5,6.19-.48.19-1.01.25-1.53.17-8.29-1.43-16.67-6.19-24.15-9.75-.54-.25-.78-.9-.53-1.44.08-.18.21-.33.38-.44,22.38-15.48,44.94-31.97,67.36-51.51,9.83-8.58,18.93-17.45,27.32-26.62,7.04-7.72,12.04-12.49,17.05-18.68,8.73-10.74,16.18-20.73,22.35-29.96,8.65-12.94,16.57-29.3,23.47-42.96.16-.29.51-.39.8-.24.17.09.28.26.3.45l2.36,25.5Z"/>
      <path class="cls-7" d="M507.55,748.63l-.98,37.25c-.01.37-.14.73-.36,1.01l-4.23,5.3-10.43,9.88,12.14-13.83c.9-1.02,1.32-2.38,1.15-3.73-.99-8.03-1.54-16.25-1.66-24.64-.12-7.91,1.54-17.76,2.37-26.56l2.01,15.33Z"/>
      <path class="cls-5" d="M507.11,835.37c1.48-6.87,1.35-14.41-.38-22.64-.95-4.49-2.65-7.86-5.1-10.12l3.04-10.22c.08-.27-.08-.56-.35-.64-.08-.02-.16-.03-.24-.01l-2.1.45,4.23-5.3c.23-.28.35-.64.36-1.01l.98-37.25c3.35,16.75,6.39,33.54,9.11,50.38.89,5.59,2.33,12.32,4.41,17.98.23.63.11,1.33-.32,1.86l-13.64,16.52Z"/>
      <path class="cls-1" d="M737.7,765.2c.09,13.38-7.91,23.25-12.02,34.97-4.74,13.61-11.69,28.78-20.72,41.01-6.57,8.88-11.3,12.11-21.96,11.72-.9-.03-1.7-.61-2.02-1.46-3.41-9.26-3.71-18.8-4-28.83-.23-8.3.71-16.11,2.82-23.44.2-.69.65-1.28,1.25-1.66,2.94-1.88,8.01-4.3,15.21-7.26,11.36-4.67,23-10.86,32.06-18.33,4.5-3.71,7.38-6.07,8.65-7.07.18-.16.46-.13.62.06.07.08.1.18.11.28Z"/>
      <path class="cls-7" d="M507.11,835.37c-10.18,11.72-21.29,22.48-33.34,32.29-7.14,5.83-16.29,11.07-22.67,16.61-2.28,1.98-4.84,3.66-7.69,5.03-4.97,2.4-11.17,7.5-18.38,7.52-13.88.04-26.79-1.31-38.73-4.06-.46-.11-.75-.57-.64-1.03.05-.2.17-.38.34-.51l2.76-1.92s.08-.04.12-.06c16.09-7.65,27.42-13.8,33.99-18.45,5.99-4.24,10.18-7.1,12.58-8.58,4.71-2.91,7.58-4.86,8.59-5.84,1.04-1.01,2.9-2.39,5.59-4.15.84-.54,2.61-2.03,5.33-4.45,6.01-5.33,12.38-9.77,18.29-15.51,9.79-9.53,19.24-19.41,28.37-29.63,2.46,2.26,4.16,5.63,5.1,10.12,1.73,8.22,1.86,15.77.38,22.64Z"/>
      <path class="cls-7" d="M451.5,895.3c-.38,0-.69-.31-.69-.7,0-.15.05-.29.13-.4.28-.37.59-.65.92-.85,10.28-5.91,19.56-12.57,27.83-19.98,1.87-1.67,2.95-2.7,3.25-3.1,1.42-1.84,3.34-2.63,5.04-4.29,6.52-6.39,11.04-11.05,13.56-13.97,3.86-4.47,6.9-7.62,9.14-9.45.14-.11.27-.24.38-.38l11.11-13.91c.32-.4.9-.46,1.29-.15.14.12.25.27.31.45l5.32,17c.18.56.05,1.17-.35,1.6-8.24,8.91-14.47,14.06-26.31,24.3-5.32,4.59-10.21,8.16-14.69,10.71-9.17,5.21-18.19,9.12-27.05,11.72-3.19.93-6.26,1.39-9.2,1.39Z"/>
      <path class="cls-1" d="M706.08,367.08s-.03.09-.04.13c0-.05.02-.09.04-.13Z"/>
      <path class="cls-1" d="M754.58,390.79c.04.36.06.72.04,1.07,0,0,0,0,0,0,0,0,0,0,0,0,.02-.35,0-.71-.04-1.07Z"/>
      <path class="cls-1" d="M754.49,392.45s0,.04-.01.06c-.01.03-.03.05-.04.08.02-.05.04-.1.05-.15Z"/>
      <path class="cls-1" d="M754.33,392.81c-.03.06-.07.11-.1.17.04-.05.07-.11.1-.17Z"/>
      <path class="cls-1" d="M754.09,393.14c-.05.05-.09.11-.14.16.05-.05.1-.1.14-.16Z"/>
      <path class="cls-1" d="M753.8,393.43c-.06.04-.11.09-.17.12.06-.04.11-.08.17-.12Z"/>
      <path class="cls-1" d="M753.45,393.66c-.06.03-.12.06-.18.09.06-.03.12-.06.18-.09Z"/>
      <path class="cls-1" d="M753.06,393.81c-.07.02-.14.04-.21.05.07-.01.14-.03.21-.05Z"/>
      <path class="cls-1" d="M752.66,393.89c-.08,0-.16.01-.23.01.08,0,.16,0,.23-.01Z"/>
      <path class="cls-1" d="M706.13,366.95s.06-.08.09-.12c-.03.04-.07.07-.09.12Z"/>
      <path class="cls-1" d="M706.3,366.75c.08-.06.17-.12.28-.14-.1.02-.2.07-.28.14Z"/>
      <path class="cls-1" d="M706.06,367.48s0-.02-.01-.02c0-.03,0-.07,0-.1,0,.04,0,.08.01.12Z"/>
    </g>
  </g>
</svg>