<svg width="463" height="609" viewBox="0 0 463 609" fill="none" xmlns="http://www.w3.org/2000/svg">
<path d="M372.14 435.95C331.76 491.07 284.71 547.86 239.89 599.8C238.54 601.37 232.58 608.57 231.44 608.36C229.09 606.33 226.83 604.13 224.75 601.82C194.92 568.78 163.81 528.55 135.66 493.5C49.9701 386.78 -48.8198 264.95 27.1402 122.83C126.51 -63.0905 402.33 -31.1405 455.46 172.69C482.89 277.92 430.98 355.62 372.13 435.95H372.14ZM408.18 232.64C407.59 189.14 393.33 146.5 364.46 113.87C310.6 52.9695 220.38 36.7295 148.29 74.8795C133.36 65.7395 119.93 54.4295 106.29 43.5395C105.44 62.8095 108.78 81.7294 112.21 100.53C59.1802 148.53 40.9201 227.95 67.0401 294.87C67.8801 297.03 74.2102 311.23 75.0202 311.69C75.8202 312.15 77.1702 311.91 77.9602 311.33C99.2702 284.91 120.61 257.32 132.35 225C136.61 213.28 142.95 193.08 140.47 180.94C139.77 177.53 134.08 170.91 132.08 167.06C123.17 149.91 117.98 130.69 116.91 111.38C121.85 116.64 127.93 120.83 134.63 123.5C131.53 116.95 128.09 110.42 125.77 103.52C122.1 92.6295 119.37 80.3295 119.46 68.8395C142.69 86.6295 167.6 99.8195 196.18 107.01C262.08 123.6 332.37 127.88 359.12 204.25C360.43 207.99 363.88 224.63 364.69 225.51C366.08 227.02 387.26 234.72 391.44 236.71C401.87 241.69 414.7 248.87 423.63 256.15C425.86 257.97 435.5 266.92 436.3 268.79C437.05 270.52 435.65 270.12 434.92 270.4C408.93 280.16 378.06 280.68 350.78 282.45C348.09 282.62 339.25 283.44 337.55 284.41C333.18 286.91 320.51 302.51 316.89 307.28C297.42 333.01 290.16 361.91 287.5 393.79C337.78 378.01 380.91 341.3 398.86 291.05C416.82 288.85 433.47 280.97 451.5 279.39C448.81 256.58 425.95 243.4 408.18 232.62V232.64ZM274.34 180.2C288.32 176.56 302.21 183.39 313.13 191.52C323.95 199.58 320.74 198.55 325.77 209.25C326.55 210.91 331.69 220.8 332.31 221.06C335.45 222.33 347.56 213.92 348.8 211.58C352.17 205.21 337.02 180.8 332.45 175.23C284.36 116.58 208.4 133.01 148.48 100.03C145.98 98.6494 134.33 89.4495 132.6 91.1195C137.9 111.16 151.06 128.37 167.01 141.23C154.31 142.83 143.19 135.34 131.59 131.61C139.09 160.24 169.17 192.95 198.37 199.97C203.48 201.2 214.09 201.05 217.64 202.47C218.39 202.77 224.19 209.2 228.78 211.07C231.76 212.28 252.24 217.74 254.63 217.73C258.16 217.71 260.2 212.64 259.15 211.59C258.98 211.42 255.74 211.33 254.3 210.87C252.24 210.22 248.1 209.41 247.01 207.55C262.67 201.97 282.13 199.33 293 214.69C297.84 221.52 295.89 227.35 307.28 227.82C317 228.22 315.77 218.9 314.59 211.33C311.85 193.8 290.23 182.61 274.34 180.21V180.2ZM281.17 212.76C275.85 213.68 276.12 221.32 280.11 222.52C289.74 225.41 290.41 211.15 281.17 212.76ZM257.85 230.11C250.19 224.01 216.01 222.48 208.23 228.73C206.46 230.15 204.87 238.08 204.61 240.56C202.97 256.31 208.7 279.9 221.78 289.95C223.89 291.57 232.68 295.51 232.83 296.13C233.53 299.09 226.46 299.51 226.68 305.2C227.02 313.86 242.95 331.2 249.51 337.14C258.71 345.48 269.5 352.32 280.88 357.35C282.53 356.99 284.37 345.89 285.19 343.41C291.06 325.55 300.63 308.4 312.84 294.12C315.82 290.64 325.93 282.68 325.93 279.06C325.93 276.63 323.37 267.83 322.13 265.54C316.74 255.6 306.1 257.18 296.61 258.15C301.8 252.78 309.8 243.41 300.62 237.45C292.92 232.45 284.12 244.65 272.88 242.91C263.8 241.5 262.32 233.68 257.85 230.12V230.11ZM197.17 309C196.62 308.45 194.19 308.39 192.96 307.66C175.48 297.23 164.99 275.12 159.42 256.14C158.64 253.5 158.44 247.73 157.39 246.02C156.79 245.05 150.43 242.22 148.47 240.77C146.75 239.49 141.04 232.89 139.7 233.86C131.63 257.59 117.61 278.71 102.65 298.56C99.6302 302.56 83.6402 320.17 83.1402 322.69C82.5502 325.7 93.9602 339.13 96.6402 342.19C131.82 382.34 176.74 401.29 230.24 401.95C236.27 402.02 274.66 399.09 276.92 395.89C277.47 395.11 278.1 382.85 277.49 382.11C276.43 380.82 268.98 378.2 266.56 376.77C245.99 364.62 209.95 335.83 198.9 314.85C198.07 313.27 197.75 309.6 197.16 309H197.17Z" fill="#3C4555"/>
<path d="M197.17 309C197.77 309.6 198.08 313.28 198.91 314.85C209.96 335.83 246 364.62 266.57 376.77C268.99 378.2 276.44 380.82 277.5 382.11C278.11 382.85 277.47 395.11 276.93 395.89C274.68 399.09 236.28 402.03 230.25 401.95C176.75 401.29 131.83 382.34 96.6501 342.19C93.9601 339.12 82.5601 325.7 83.1501 322.69C83.6401 320.17 99.6401 302.56 102.66 298.56C117.62 278.7 131.64 257.59 139.71 233.86C141.04 232.89 146.76 239.49 148.48 240.77C150.44 242.22 156.8 245.05 157.4 246.02C158.45 247.73 158.66 253.49 159.43 256.14C165 275.12 175.49 297.23 192.97 307.66C194.19 308.39 196.63 308.45 197.18 309H197.17Z" fill="#09A9E7"/>
<path d="M217.65 202.47C214.1 201.05 203.49 201.2 198.38 199.97C169.18 192.95 139.1 160.24 131.6 131.61C143.2 135.33 154.33 142.82 167.02 141.23C151.07 128.37 137.91 111.16 132.61 91.1196C134.34 89.4496 145.99 98.6495 148.49 100.03C208.41 133.01 284.37 116.58 332.46 175.23C337.03 180.8 352.18 205.2 348.81 211.58C347.57 213.92 335.45 222.34 332.32 221.06C331.69 220.81 326.56 210.92 325.78 209.25C320.74 198.55 323.95 199.58 313.14 191.52C302.22 183.38 288.33 176.56 274.35 180.2C260.27 178.08 241.91 183.01 229.9 190.92C225.73 193.67 219.83 198.08 217.66 202.47H217.65Z" fill="#09A9E7"/>
<path d="M281.17 212.76C290.41 211.16 289.74 225.41 280.11 222.52C276.12 221.32 275.85 213.68 281.17 212.76Z" fill="#FDFDFC"/>
</svg>
