<svg width="838" height="838" viewBox="0 0 838 838" fill="none" xmlns="http://www.w3.org/2000/svg">
<path d="M86.7401 562.2C87.5101 561.53 87.97 561.1 90.81 559.9L96.29 557.6C99.53 556.24 100.26 554.64 99.21 552.15L98.42 550.26L84.23 556.22L81.9301 550.74L116.78 536.1L120.25 544.36C122.63 550.04 121.02 553.58 115.64 555.84L112.9 556.99C109.32 558.5 106.54 558.31 104.37 556.36L104.27 556.4C104.27 559.62 102.06 561.6 98.4301 563.13L93.05 565.39C91.36 566.1 90.13 566.67 89.07 567.77L86.73 562.19L86.7401 562.2ZM114.1 543.67L103.39 548.17L104.29 550.31C105.15 552.35 106.57 553.22 109.36 552.05L112.8 550.61C115.29 549.56 116.03 548.26 115.21 546.32L114.1 543.68V543.67Z" fill="#09A9E7"/>
<path d="M114.99 571L118.69 578.27L113.88 580.72L110.18 573.45L100.31 578.47L104.96 587.62L100.15 590.07L92.81 575.63L126.51 558.5L133.85 572.94L129.04 575.39L124.39 566.24L115 571.01L114.99 571Z" fill="#09A9E7"/>
<path d="M114.51 614.52L111.41 609.39L116.75 604.97L112.98 598.73L106.58 601.4L103.76 596.73L139.24 582.36L143.74 589.8L114.51 614.52ZM117.76 596.72L120.72 601.62L135.63 589.33L135.57 589.24L117.76 596.72Z" fill="#09A9E7"/>
<path d="M140.51 627.17L136.41 630.08C131.48 633.58 126.91 633.12 123.53 628.36C120.15 623.6 121.22 619.14 126.15 615.64L142.18 604.26C147.11 600.76 151.68 601.22 155.06 605.98C158.44 610.74 157.37 615.2 152.44 618.7L149.45 620.83L146.2 616.25L149.5 613.91C151.7 612.35 151.85 610.78 150.76 609.24C149.67 607.7 148.14 607.32 145.94 608.89L129.29 620.71C127.09 622.27 126.98 623.8 128.08 625.35C129.17 626.89 130.65 627.3 132.86 625.73L137.26 622.6L140.51 627.18V627.17Z" fill="#09A9E7"/>
<path d="M138.33 647.11L134.54 642.54L163.62 618.4L167.41 622.97L154.95 633.32L159.26 638.51L171.72 628.16L175.58 632.81L146.5 656.95L142.64 652.3L155.1 641.95L150.79 636.76L138.33 647.1V647.11Z" fill="#09A9E7"/>
<path d="M175.3 669L187.37 645.56L191.85 649.86L183.16 665.4L183.24 665.48L198.4 656.15L202.49 660.07L179.58 673.12L170.91 682.16L166.62 678.05L175.29 669.01L175.3 669Z" fill="#09A9E7"/>
<path d="M199.61 669.57C203.47 664.92 208.13 664.29 212.62 668.02C217.11 671.74 217.35 676.44 213.49 681.09L200.94 696.21C197.08 700.86 192.42 701.49 187.93 697.76C183.44 694.04 183.2 689.34 187.06 684.69L199.61 669.57ZM191.38 688.78C189.66 690.86 189.92 692.4 191.37 693.61C192.82 694.82 194.39 694.79 196.12 692.71L209.16 677C210.88 674.92 210.62 673.38 209.17 672.17C207.72 670.96 206.15 670.99 204.42 673.07L191.38 688.78Z" fill="#09A9E7"/>
<path d="M229.06 681.35L212.14 705.11C210.57 707.31 210.98 708.79 212.52 709.89C214.06 710.99 215.59 710.88 217.16 708.68L234.08 684.93L238.66 688.19L221.96 711.64C218.45 716.57 213.98 717.63 209.23 714.24C204.48 710.85 204.02 706.29 207.53 701.36L224.23 677.91L229.07 681.36L229.06 681.35Z" fill="#09A9E7"/>
<path d="M235.3 730.62C235.53 729.62 235.65 729 237.24 726.37L240.32 721.29C242.14 718.29 241.79 716.56 239.48 715.17L237.72 714.11L229.75 727.28L224.67 724.21L244.24 691.87L251.91 696.51C257.18 699.7 257.96 703.52 254.94 708.51L253.4 711.05C251.39 714.38 249.04 715.86 246.13 715.55L246.07 715.64C247.97 718.24 247.35 721.15 245.31 724.52L242.29 729.51C241.34 731.08 240.69 732.26 240.47 733.77L235.3 730.64V730.62ZM246.53 699.55L240.52 709.48L242.51 710.68C244.4 711.83 246.06 711.69 247.63 709.11L249.56 705.92C250.96 703.61 250.79 702.12 248.98 701.03L246.53 699.55Z" fill="#09A9E7"/>
<path d="M281.92 738.64L279.82 743.2C277.29 748.69 273.09 750.57 267.8 748.12C262.5 745.68 261.21 741.27 263.74 735.78L271.97 717.93C274.5 712.44 278.7 710.56 283.99 713.01C289.29 715.45 290.59 719.86 288.05 725.35L286.51 728.68L281.41 726.33L283.11 722.65C284.24 720.2 283.59 718.77 281.87 717.98C280.15 717.19 278.65 717.62 277.51 720.07L268.96 738.61C267.83 741.06 268.5 742.44 270.22 743.23C271.94 744.02 273.42 743.64 274.55 741.18L276.81 736.28L281.91 738.63L281.92 738.64Z" fill="#09A9E7"/>
<path d="M294.03 727.85C296.15 722.19 300.35 720.07 305.81 722.11C311.27 724.15 313.04 728.51 310.92 734.17L304.03 752.58C301.91 758.24 297.71 760.36 292.25 758.32C286.79 756.28 285.02 751.92 287.14 746.26L294.03 727.85ZM292.57 748.7C291.62 751.23 292.38 752.61 294.15 753.27C295.92 753.93 297.39 753.39 298.34 750.86L305.5 731.74C306.45 729.21 305.69 727.83 303.92 727.17C302.15 726.51 300.68 727.05 299.73 729.58L292.57 748.69V748.7Z" fill="#09A9E7"/>
<path d="M324.66 756.92L324.76 756.95L335.84 732.18L343.8 734.4L333.62 770.8L328.21 769.29L335.51 743.19L335.41 743.16L324.26 768.19L318.85 766.68L321.89 739.78L321.79 739.75L314.59 765.49L309.6 764.09L319.78 727.69L327.74 729.92L324.67 756.93L324.66 756.92Z" fill="#09A9E7"/>
<path d="M357.45 764.39L357.56 764.41L366.2 738.69L374.33 740.14L367.71 777.35L362.18 776.37L366.93 749.68L366.82 749.66L358.14 775.65L352.61 774.67L353.04 747.6L352.93 747.58L348.25 773.9L343.15 772.99L349.77 735.78L357.9 737.23L357.45 764.41V764.39Z" fill="#09A9E7"/>
<path d="M386.51 741.37L383.86 770.41C383.61 773.1 384.71 774.17 386.59 774.35C388.47 774.52 389.74 773.66 389.99 770.97L392.64 741.93L398.23 742.44L395.61 771.1C395.06 777.12 391.73 780.29 385.93 779.76C380.12 779.23 377.43 775.51 377.98 769.49L380.6 740.83L386.52 741.37H386.51Z" fill="#09A9E7"/>
<path d="M410.13 753.32H410.02L409.58 780.69L404.24 780.6L404.85 742.81L412.3 742.93L417.93 765.65H418.04L418.4 743.03L423.69 743.11L423.08 780.9L416.98 780.8L410.13 753.31V753.32Z" fill="#09A9E7"/>
<path d="M431.1 742.81L437.03 742.55L438.72 780.31L432.79 780.57L431.1 742.81Z" fill="#09A9E7"/>
<path d="M442.99 742.28L461.26 740.45L461.8 745.82L455.62 746.44L458.85 778.68L452.94 779.27L449.71 747.03L443.53 747.65L442.99 742.28Z" fill="#09A9E7"/>
<path d="M476.36 763.66L464.67 740.04L470.79 738.98L478.14 755.19L478.25 755.17L479.74 737.43L485.33 736.47L482.23 762.65L484.36 774.99L478.51 776L476.38 763.66H476.36Z" fill="#09A9E7"/>
<path d="M519.61 745.73L519.51 745.76L523.38 765.64L515.58 768.02L500.51 733.1L506.04 731.41L517.75 759.01L517.85 758.98L511.83 729.65L517.3 727.98L528.86 755.85L528.96 755.82L523.08 726.22L528.04 724.7L535.06 762.09L527.52 764.39L519.62 745.74L519.61 745.73Z" fill="#09A9E7"/>
<path d="M552.48 755.57L546.98 757.81L532.74 722.8L538.24 720.56L544.34 735.57L550.59 733.03L544.49 718.02L550.09 715.74L564.33 750.75L558.73 753.03L552.63 738.02L546.38 740.56L552.48 755.57Z" fill="#09A9E7"/>
<path d="M568.82 724.44L576.12 720.81L578.52 725.65L571.22 729.28L576.14 739.2L585.33 734.64L587.73 739.48L573.22 746.69L556.41 712.83L570.92 705.62L573.32 710.46L564.13 715.02L568.81 724.45L568.82 724.44Z" fill="#09A9E7"/>
<path d="M606.45 728.82C605.68 728.15 605.19 727.75 603.62 725.1L600.6 719.99C598.82 716.97 597.13 716.46 594.81 717.83L593.04 718.87L600.86 732.12L595.75 735.14L576.54 702.59L584.26 698.03C589.56 694.9 593.29 696.02 596.26 701.04L597.77 703.6C599.75 706.95 599.94 709.72 598.29 712.13L598.35 712.22C601.54 711.78 603.8 713.7 605.81 717.1L608.77 722.12C609.7 723.7 610.44 724.84 611.66 725.74L606.45 728.81V728.82ZM584.4 704.22L590.3 714.22L592.3 713.04C594.21 711.91 594.88 710.39 593.34 707.79L591.45 704.58C590.08 702.25 588.68 701.7 586.87 702.77L584.41 704.23L584.4 704.22Z" fill="#09A9E7"/>
<path d="M611.38 699.62L618.08 694.98L621.16 699.42L614.46 704.06L620.76 713.16L629.19 707.32L632.26 711.76L618.94 720.98L597.42 689.91L610.74 680.69L613.81 685.13L605.38 690.97L611.38 699.63V699.62Z" fill="#09A9E7"/>
<path d="M624.34 670.2L638.23 658.2L641.76 662.29L637.06 666.35L658.24 690.87L653.74 694.75L632.56 670.23L627.86 674.29L624.33 670.2H624.34Z" fill="#09A9E7"/>
<path d="M673.06 677.11L668.86 681.31L642.12 654.59L646.32 650.39L657.78 661.84L662.55 657.07L651.09 645.62L655.37 641.34L682.1 668.06L677.82 672.34L666.36 660.89L661.59 665.66L673.05 677.11H673.06Z" fill="#09A9E7"/>
<path d="M676.03 642.07L681.35 635.89L685.44 639.42L680.12 645.6L688.51 652.83L695.21 645.06L699.3 648.59L688.72 660.86L660.08 636.18L670.66 623.91L674.75 627.44L668.05 635.21L676.03 642.09V642.07Z" fill="#09A9E7"/>
<path d="M698.27 629.53L673.52 620.46L677.23 615.48L693.73 622.17L693.79 622.08L682.65 608.2L686.04 603.65L701.83 624.76L711.88 632.24L708.33 637L698.28 629.52L698.27 629.53Z" fill="#09A9E7"/>
<path d="M737.88 591.47L734.87 596.65L728.43 594.09L724.76 600.39L730.17 604.72L727.43 609.43L697.8 585.2L702.17 577.68L737.88 591.45V591.47ZM720.7 597.16L723.58 592.21L705.65 585.03L705.6 585.12L720.71 597.16H720.7Z" fill="#09A9E7"/>
<path d="M747.09 573.02C746.07 572.89 745.44 572.82 742.67 571.48L737.32 568.89C734.16 567.36 732.48 567.86 731.3 570.29L730.41 572.14L744.26 578.85L741.67 584.2L707.65 567.72L711.56 559.65C714.24 554.11 717.97 552.98 723.22 555.52L725.89 556.81C729.39 558.51 731.08 560.71 731.05 563.63L731.15 563.68C733.56 561.55 736.51 561.9 740.06 563.62L745.31 566.16C746.96 566.96 748.2 567.5 749.72 567.58L747.08 573.02H747.09ZM715.11 564.72L725.56 569.78L726.57 567.69C727.54 565.7 727.25 564.06 724.53 562.74L721.18 561.12C718.75 559.94 717.28 560.25 716.36 562.15L715.11 564.73V564.72Z" fill="#09A9E7"/>
<path d="M735.04 545.98L738.05 538.4L743.07 540.4L740.06 547.98L750.35 552.07L754.14 542.53L759.16 544.53L753.17 559.59L718.04 545.62L724.03 530.57L729.05 532.57L725.26 542.11L735.05 546L735.04 545.98Z" fill="#09A9E7"/>
<path d="M419.31 806.78C633.685 806.78 807.47 632.995 807.47 418.62C807.47 204.245 633.685 30.4599 419.31 30.4599C204.935 30.4599 31.15 204.245 31.15 418.62C31.15 632.995 204.935 806.78 419.31 806.78Z" stroke="#FDFDFC" stroke-width="4.02" stroke-linecap="round" stroke-linejoin="round"/>
<path d="M213.45 202.6L188.59 229.37L193.96 242.32L180.47 256.85L141.58 161.22L141.96 160.8L240.24 192.47L226.71 207.04L213.44 202.6H213.45ZM197.14 197.19L171.7 188.71L181.99 213.5L197.14 197.19Z" fill="#FDFDFC"/>
<path d="M288.48 112.35C302.6 136.89 295.58 160.8 270 175.51L246.98 188.76L201.48 109.68L224.47 96.38C250.02 81.62 274.27 87.66 288.47 112.35H288.48ZM272.41 121.54C263.88 106.72 249.16 103.16 233.5 112.17L226.38 116.27L253.72 163.79L260.99 159.61C276.55 150.66 280.88 136.27 272.41 121.54Z" fill="#FDFDFC"/>
<path d="M350.45 47.3L382.34 43.95C399.92 42.1 415.73 54.4 417.51 71.3C419.28 88.14 406.36 103.4 388.78 105.25L375.15 106.68L378.25 136.2L360 138.12L350.46 47.31L350.45 47.3ZM399.24 73.05C398.52 66.18 391.79 61.25 384.24 62.04L370.61 63.47L373.25 88.59L386.89 87.21C394.44 86.47 399.98 80.08 399.24 73.04V73.05Z" fill="#FDFDFC"/>
<path d="M445.29 42.9399L463.56 44.6299L455.15 135.54L436.88 133.85L445.29 42.9399Z" fill="#FDFDFC"/>
<path d="M532.08 135.21L527.07 152.75L474.14 137.62L499.23 49.8299L516.88 54.8699L496.8 125.12L532.09 135.2L532.08 135.21Z" fill="#FDFDFC"/>
<path d="M554.75 113.1C568.7 90.8899 598.17 84.1099 620.28 97.9999C642.4 111.89 649.14 141.41 635.2 163.62C621.37 185.64 591.91 192.29 569.75 178.38C547.68 164.52 540.92 135.13 554.75 113.11V113.1ZM619.53 153.64C628.02 140.11 623.92 122.15 610.39 113.66C596.91 105.2 579 109.33 570.5 122.86C562.07 136.29 566.15 154.18 579.63 162.64C593.16 171.13 611.09 167.08 619.52 153.64H619.53Z" fill="#FDFDFC"/>
<path d="M707.19 202.91L692.2 186.22L637.79 235.07L625.49 221.37L679.9 172.52L664.88 155.79L678.41 143.64L720.72 190.76L707.19 202.91Z" fill="#FDFDFC"/>
<path d="M419.36 687.71C567.98 687.71 688.46 567.23 688.46 418.61C688.46 269.99 567.98 149.51 419.36 149.51C270.74 149.51 150.26 269.99 150.26 418.61C150.26 567.23 270.74 687.71 419.36 687.71Z" stroke="#FDFDFC" stroke-width="6.03" stroke-linecap="round" stroke-linejoin="round"/>
<path d="M832.54 418.78C832.54 647.29 647.28 832.54 418.78 832.54C190.28 832.54 5.02 647.28 5.02 418.78C5.02 190.28 190.28 5.02 418.78 5.02C647.28 5.02 832.54 190.28 832.54 418.78Z" stroke="#FDFDFC" stroke-width="10.04" stroke-miterlimit="10"/>
<path d="M419.36 667.51C556.824 667.51 668.26 556.074 668.26 418.61C668.26 281.146 556.824 169.71 419.36 169.71C281.896 169.71 170.46 281.146 170.46 418.61C170.46 556.074 281.896 667.51 419.36 667.51Z" stroke="#FDFDFC" stroke-width="8.03" stroke-miterlimit="10"/>
<path d="M602.23 336.01C599.67 331.33 595.83 327.49 591.15 324.93C590.12 324.37 590.12 322.89 591.15 322.33C595.83 319.77 599.67 315.93 602.23 311.25C602.79 310.22 604.27 310.22 604.83 311.25C607.39 315.93 611.23 319.77 615.91 322.33C616.94 322.89 616.94 324.37 615.91 324.93C611.23 327.49 607.39 331.33 604.83 336.01C604.27 337.04 602.79 337.04 602.23 336.01ZM308.01 557C305.45 552.32 301.61 548.48 296.93 545.92C295.9 545.36 295.9 543.88 296.93 543.32C301.61 540.76 305.45 536.92 308.01 532.24C308.57 531.21 310.05 531.21 310.61 532.24C313.17 536.92 317.01 540.76 321.69 543.32C322.72 543.88 322.72 545.36 321.69 545.92C317.01 548.48 313.17 552.32 310.61 557C310.05 558.03 308.57 558.03 308.01 557ZM589.71 486.71C584.22 476.67 575.97 468.42 565.93 462.93C563.88 461.81 563.88 458.86 565.93 457.73C575.97 452.24 584.22 443.99 589.71 433.95C590.83 431.9 593.78 431.9 594.91 433.95C600.4 443.99 608.65 452.24 618.69 457.73C620.74 458.85 620.74 461.8 618.69 462.93C608.65 468.42 600.4 476.67 594.91 486.71C593.79 488.76 590.84 488.76 589.71 486.71ZM225.81 371.19C221.89 364.03 216.01 358.14 208.84 354.22C207.37 353.42 207.37 351.31 208.84 350.51C216 346.59 221.89 340.71 225.81 333.54C226.61 332.07 228.72 332.07 229.52 333.54C233.44 340.7 239.32 346.59 246.49 350.51C247.96 351.31 247.96 353.42 246.49 354.22C239.33 358.14 233.44 364.02 229.52 371.19C228.72 372.66 226.61 372.66 225.81 371.19ZM246.29 537.05C243.73 532.37 239.89 528.53 235.21 525.97C234.18 525.41 234.18 523.93 235.21 523.37C239.89 520.81 243.73 516.97 246.29 512.29C246.85 511.26 248.33 511.26 248.89 512.29C251.45 516.97 255.29 520.81 259.97 523.37C261 523.93 261 525.41 259.97 525.97C255.29 528.53 251.45 532.37 248.89 537.05C248.33 538.08 246.85 538.08 246.29 537.05ZM259.44 280.9C256.88 276.22 253.04 272.38 248.36 269.82C247.33 269.26 247.33 267.78 248.36 267.22C253.04 264.66 256.88 260.82 259.44 256.14C260 255.11 261.48 255.11 262.04 256.14C264.6 260.82 268.44 264.66 273.12 267.22C274.15 267.78 274.15 269.26 273.12 269.82C268.44 272.38 264.6 276.22 262.04 280.9C261.48 281.93 260 281.93 259.44 280.9ZM226.37 457.98C223.81 453.3 219.97 449.46 215.29 446.9C214.26 446.34 214.26 444.86 215.29 444.3C219.97 441.74 223.81 437.9 226.37 433.22C226.93 432.19 228.41 432.19 228.97 433.22C231.53 437.9 235.37 441.74 240.05 444.3C241.08 444.86 241.08 446.34 240.05 446.9C235.37 449.46 231.53 453.3 228.97 457.98C228.41 459.01 226.93 459.01 226.37 457.98ZM560.97 555.53C558.41 550.85 554.57 547.01 549.89 544.45C548.86 543.89 548.86 542.41 549.89 541.85C554.57 539.29 558.41 535.45 560.97 530.77C561.53 529.74 563.01 529.74 563.57 530.77C566.13 535.45 569.97 539.29 574.65 541.85C575.68 542.41 575.68 543.89 574.65 544.45C569.97 547.01 566.13 550.85 563.57 555.53C563.01 556.56 561.53 556.56 560.97 555.53ZM509.67 600.27C507.11 595.59 503.27 591.75 498.59 589.19C497.56 588.63 497.56 587.15 498.59 586.59C503.27 584.03 507.11 580.19 509.67 575.51C510.23 574.48 511.71 574.48 512.27 575.51C514.83 580.19 518.67 584.03 523.35 586.59C524.38 587.15 524.38 588.63 523.35 589.19C518.67 591.75 514.83 595.59 512.27 600.27C511.71 601.3 510.23 601.3 509.67 600.27Z" fill="#58C4F4"/>
<path d="M514.23 507.61C487.03 544.74 455.34 582.98 425.16 617.97C424.25 619.03 420.24 623.87 419.47 623.74C417.88 622.37 416.37 620.89 414.97 619.34C394.88 597.09 373.92 569.99 354.97 546.38C297.25 474.5 230.72 392.45 281.88 296.72C348.81 171.5 534.58 193.02 570.37 330.3C588.84 401.17 553.88 453.51 514.25 507.61H514.23ZM538.5 370.68C538.1 341.38 528.5 312.66 509.05 290.68C472.77 249.66 412.01 238.73 363.45 264.42C353.4 258.26 344.35 250.64 335.16 243.31C334.59 256.29 336.84 269.03 339.14 281.69C303.42 314.02 291.13 367.51 308.72 412.58C309.29 414.04 313.55 423.6 314.09 423.91C314.63 424.22 315.54 424.06 316.07 423.67C330.42 405.88 344.79 387.3 352.7 365.53C355.57 357.63 359.84 344.03 358.17 335.86C357.7 333.56 353.86 329.1 352.52 326.51C346.52 314.96 343.02 302.02 342.3 289.01C345.63 292.56 349.72 295.38 354.24 297.18C352.15 292.77 349.84 288.37 348.27 283.72C345.8 276.38 343.96 268.1 344.02 260.36C359.67 272.35 376.45 281.22 395.69 286.07C440.08 297.24 487.42 300.13 505.43 351.56C506.31 354.08 508.63 365.28 509.18 365.88C510.12 366.9 524.38 372.08 527.2 373.43C534.23 376.78 542.86 381.62 548.88 386.52C550.38 387.75 556.87 393.78 557.42 395.03C557.92 396.2 556.98 395.93 556.49 396.11C538.99 402.68 518.19 403.04 499.82 404.23C498.01 404.35 492.06 404.89 490.91 405.55C487.97 407.23 479.43 417.74 477 420.96C463.89 438.29 459 457.75 457.2 479.23C491.06 468.6 520.12 443.88 532.21 410.03C544.31 408.55 555.52 403.24 567.66 402.18C565.85 386.82 550.45 377.94 538.48 370.68H538.5ZM448.36 335.36C457.78 332.91 467.13 337.51 474.48 342.99C481.77 348.42 479.6 347.72 483 354.93C483.53 356.05 486.99 362.71 487.41 362.88C489.52 363.74 497.68 358.07 498.52 356.49C500.79 352.2 490.59 335.76 487.51 332.01C455.12 292.51 403.96 303.57 363.6 281.36C361.92 280.43 354.07 274.23 352.9 275.36C356.47 288.86 365.34 300.45 376.08 309.11C367.53 310.19 360.03 305.14 352.22 302.63C357.27 321.91 377.53 343.94 397.2 348.67C400.64 349.5 407.78 349.4 410.18 350.35C410.68 350.55 414.59 354.88 417.69 356.14C419.7 356.96 433.49 360.63 435.1 360.63C437.48 360.62 438.85 357.2 438.14 356.49C438.02 356.37 435.84 356.31 434.87 356.01C433.48 355.57 430.69 355.03 429.96 353.77C440.51 350.01 453.61 348.24 460.94 358.58C464.2 363.18 462.88 367.11 470.56 367.42C477.11 367.69 476.28 361.41 475.48 356.31C473.63 344.5 459.07 336.96 448.37 335.35L448.36 335.36ZM452.96 357.29C449.38 357.91 449.56 363.06 452.25 363.86C458.74 365.81 459.19 356.21 452.96 357.29ZM437.25 368.98C432.09 364.87 409.07 363.84 403.83 368.05C402.64 369.01 401.57 374.35 401.39 376.02C400.29 386.63 404.14 402.52 412.96 409.29C414.38 410.38 420.3 413.04 420.4 413.45C420.87 415.44 416.11 415.73 416.26 419.56C416.49 425.39 427.22 437.07 431.63 441.07C437.83 446.69 445.1 451.29 452.76 454.68C453.87 454.44 455.11 446.96 455.66 445.29C459.61 433.26 466.06 421.71 474.28 412.09C476.28 409.75 483.1 404.38 483.1 401.95C483.1 400.31 481.38 394.39 480.54 392.84C476.91 386.14 469.74 387.21 463.35 387.86C466.84 384.24 472.23 377.93 466.05 373.92C460.86 370.55 454.94 378.77 447.37 377.59C441.25 376.64 440.25 371.37 437.24 368.97L437.25 368.98ZM396.38 422.11C396.01 421.74 394.37 421.7 393.55 421.21C381.78 414.19 374.71 399.29 370.96 386.51C370.44 384.73 370.3 380.85 369.59 379.7C369.18 379.04 364.9 377.14 363.58 376.16C362.42 375.3 358.57 370.85 357.67 371.51C352.24 387.49 342.79 401.72 332.72 415.09C330.69 417.79 319.91 429.64 319.58 431.34C319.18 433.37 326.87 442.41 328.68 444.48C352.37 471.52 382.63 484.29 418.66 484.73C422.72 484.78 448.58 482.8 450.1 480.65C450.47 480.13 450.89 471.86 450.49 471.37C449.77 470.5 444.76 468.74 443.13 467.77C429.27 459.59 405 440.19 397.56 426.07C397 425.01 396.79 422.53 396.38 422.13V422.11Z" fill="#FDFDFC"/>
<path d="M396.38 422.11C396.78 422.51 397 424.99 397.56 426.05C405 440.18 429.27 459.57 443.13 467.75C444.76 468.71 449.77 470.48 450.49 471.35C450.9 471.85 450.47 480.11 450.1 480.63C448.58 482.79 422.72 484.76 418.66 484.71C382.63 484.26 352.37 471.5 328.68 444.46C326.87 442.4 319.19 433.36 319.58 431.32C319.91 429.62 330.69 417.76 332.72 415.07C342.8 401.7 352.24 387.47 357.67 371.49C358.57 370.83 362.42 375.28 363.58 376.14C364.9 377.12 369.18 379.02 369.59 379.68C370.3 380.83 370.44 384.71 370.96 386.49C374.71 399.27 381.78 414.17 393.55 421.19C394.37 421.68 396.01 421.72 396.38 422.09V422.11Z" fill="#09A9E7"/>
<path d="M410.17 350.36C407.78 349.41 400.63 349.5 397.19 348.68C377.53 343.95 357.26 321.92 352.21 302.64C360.02 305.15 367.52 310.19 376.07 309.12C365.33 300.46 356.46 288.86 352.89 275.37C354.05 274.24 361.9 280.44 363.59 281.37C403.95 303.58 455.11 292.52 487.5 332.02C490.58 335.77 500.78 352.21 498.51 356.5C497.68 358.08 489.52 363.74 487.4 362.89C486.98 362.72 483.52 356.06 482.99 354.94C479.6 347.73 481.76 348.43 474.47 343C467.12 337.52 457.76 332.92 448.35 335.37C438.87 333.94 426.5 337.26 418.41 342.59C415.6 344.44 411.63 347.41 410.17 350.37V350.36Z" fill="#09A9E7"/>
<path d="M452.96 357.29C459.18 356.21 458.73 365.81 452.25 363.86C449.56 363.05 449.38 357.91 452.96 357.29Z" fill="#3C4555"/>
</svg>
