<svg width="1331" height="347" viewBox="0 0 1331 347" fill="none" xmlns="http://www.w3.org/2000/svg">
<path d="M286.518 337.48C286.068 336.14 285.778 335.32 285.778 331.09V322.91C285.778 318.08 284.138 316.29 280.428 316.29H277.598V337.48H269.418V285.43H281.758C290.238 285.43 293.878 289.37 293.878 297.4V301.49C293.878 306.84 292.168 310.26 288.528 311.97V312.12C292.618 313.83 293.958 317.7 293.958 323.12V331.15C293.958 333.68 294.028 335.54 294.848 337.47H286.518V337.48ZM277.598 292.86V308.85H280.798C283.848 308.85 285.708 307.51 285.708 303.35V298.22C285.708 294.5 284.448 292.87 281.548 292.87H277.608L277.598 292.86Z" fill="#09A9E7"/>
<path d="M307.488 307.36H318.718V314.8H307.488V330.04H321.618V337.48H299.308V285.43H321.618V292.87H307.488V307.37V307.36Z" fill="#09A9E7"/>
<path d="M353.148 337.48H344.898L343.488 328.04H333.448L332.038 337.48H324.528L332.858 285.43H344.828L353.158 337.48H353.148ZM334.478 320.97H342.358L338.488 294.65H338.338L334.468 320.97H334.478Z" fill="#09A9E7"/>
<path d="M380.588 318.07V324.99C380.588 333.32 376.428 338.08 368.398 338.08C360.368 338.08 356.208 333.32 356.208 324.99V297.92C356.208 289.59 360.368 284.83 368.398 284.83C376.428 284.83 380.588 289.59 380.588 297.92V302.98H372.858V297.4C372.858 293.68 371.218 292.27 368.618 292.27C366.018 292.27 364.378 293.68 364.378 297.4V325.51C364.378 329.23 366.018 330.57 368.618 330.57C371.218 330.57 372.858 329.23 372.858 325.51V318.07H380.588Z" fill="#09A9E7"/>
<path d="M393.748 337.48H385.568V285.43H393.748V307.74H403.038V285.43H411.368V337.48H403.038V315.17H393.748V337.48Z" fill="#09A9E7"/>
<path d="M436.508 320.23L426.178 285.43H434.728L440.898 309.15H441.048L447.218 285.43H455.028L444.698 320.23V337.48H436.518V320.23H436.508Z" fill="#09A9E7"/>
<path d="M456.508 297.92C456.508 289.59 460.898 284.83 468.928 284.83C476.958 284.83 481.348 289.59 481.348 297.92V324.99C481.348 333.32 476.958 338.08 468.928 338.08C460.898 338.08 456.508 333.32 456.508 324.99V297.92ZM464.688 325.51C464.688 329.23 466.328 330.64 468.928 330.64C471.528 330.64 473.168 329.23 473.168 325.51V297.4C473.168 293.68 471.528 292.27 468.928 292.27C466.328 292.27 464.688 293.68 464.688 297.4V325.51Z" fill="#09A9E7"/>
<path d="M494.438 285.43V325.58C494.438 329.3 496.078 330.64 498.678 330.64C501.278 330.64 502.918 329.3 502.918 325.58V285.43H510.648V325.06C510.648 333.39 506.488 338.15 498.458 338.15C490.428 338.15 486.268 333.39 486.268 325.06V285.43H494.448H494.438Z" fill="#09A9E7"/>
<path d="M533.328 337.48C532.878 336.14 532.588 335.32 532.588 331.09V322.91C532.588 318.08 530.948 316.29 527.238 316.29H524.408V337.48H516.228V285.43H528.568C537.048 285.43 540.688 289.37 540.688 297.4V301.49C540.688 306.84 538.978 310.26 535.338 311.97V312.12C539.428 313.83 540.768 317.7 540.768 323.12V331.15C540.768 333.68 540.838 335.54 541.658 337.47H533.328V337.48ZM524.398 292.86V308.85H527.598C530.648 308.85 532.508 307.51 532.508 303.35V298.22C532.508 294.5 531.248 292.87 528.348 292.87H524.408L524.398 292.86Z" fill="#09A9E7"/>
<path d="M581.358 318.07V324.99C581.358 333.32 577.198 338.08 569.168 338.08C561.138 338.08 556.978 333.32 556.978 324.99V297.92C556.978 289.59 561.138 284.83 569.168 284.83C577.198 284.83 581.358 289.59 581.358 297.92V302.98H573.628V297.4C573.628 293.68 571.988 292.27 569.388 292.27C566.788 292.27 565.148 293.68 565.148 297.4V325.51C565.148 329.23 566.788 330.57 569.388 330.57C571.988 330.57 573.628 329.23 573.628 325.51V318.07H581.358Z" fill="#09A9E7"/>
<path d="M585.678 297.92C585.678 289.59 590.068 284.83 598.098 284.83C606.128 284.83 610.518 289.59 610.518 297.92V324.99C610.518 333.32 606.128 338.08 598.098 338.08C590.068 338.08 585.678 333.32 585.678 324.99V297.92ZM593.858 325.51C593.858 329.23 595.498 330.64 598.098 330.64C600.698 330.64 602.338 329.23 602.338 325.51V297.4C602.338 293.68 600.698 292.27 598.098 292.27C595.498 292.27 593.858 293.68 593.858 297.4V325.51Z" fill="#09A9E7"/>
<path d="M633.048 322.38H633.198L638.698 285.42H650.078V337.47H642.348V300.14H642.198L636.698 337.47H628.968L623.018 300.66H622.868V337.47H615.728V285.42H627.108L633.058 322.38H633.048Z" fill="#09A9E7"/>
<path d="M673.268 322.38H673.418L678.918 285.42H690.298V337.47H682.568V300.14H682.418L676.918 337.47H669.188L663.238 300.66H663.088V337.47H655.948V285.42H667.328L673.278 322.38H673.268Z" fill="#09A9E7"/>
<path d="M704.058 285.43V325.58C704.058 329.3 705.698 330.64 708.298 330.64C710.898 330.64 712.538 329.3 712.538 325.58V285.43H720.268V325.06C720.268 333.39 716.108 338.15 708.078 338.15C700.048 338.15 695.888 333.39 695.888 325.06V285.43H704.068H704.058Z" fill="#09A9E7"/>
<path d="M733.288 299.78H733.138V337.48H725.778V285.43H736.038L744.288 316.59H744.438V285.43H751.728V337.48H743.328L733.288 299.78Z" fill="#09A9E7"/>
<path d="M757.598 285.43H765.778V337.48H757.598V285.43Z" fill="#09A9E7"/>
<path d="M769.348 285.43H794.628V292.87H786.078V337.48H777.898V292.87H769.348V285.43Z" fill="#09A9E7"/>
<path d="M805.858 320.23L795.528 285.43H804.078L810.248 309.15H810.398L816.568 285.43H824.378L814.048 320.23V337.48H805.868V320.23H805.858Z" fill="#09A9E7"/>
<path d="M836.198 308.11H910.558V314.8H836.198V308.11Z" fill="#09A9E7"/>
<path d="M943.278 309.74H943.128L940.228 337.47H928.998L923.198 285.42H931.158L935.468 326.46H935.618L939.488 285.42H947.368L951.378 326.76H951.528L955.688 285.42H962.828L957.028 337.47H946.168L943.268 309.74H943.278Z" fill="#09A9E7"/>
<path d="M975.108 337.48H966.928V285.43H975.108V307.74H984.398V285.43H992.728V337.48H984.398V315.17H975.108V337.48Z" fill="#09A9E7"/>
<path d="M1006.86 307.36H1018.09V314.8H1006.86V330.04H1020.99V337.48H998.678V285.43H1020.99V292.87H1006.86V307.37V307.36Z" fill="#09A9E7"/>
<path d="M1043.15 337.48C1042.7 336.14 1042.41 335.32 1042.41 331.09V322.91C1042.41 318.08 1040.77 316.29 1037.06 316.29H1034.23V337.48H1026.05V285.43H1038.39C1046.87 285.43 1050.51 289.37 1050.51 297.4V301.49C1050.51 306.84 1048.8 310.26 1045.16 311.97V312.12C1049.25 313.83 1050.59 317.7 1050.59 323.12V331.15C1050.59 333.68 1050.66 335.54 1051.48 337.47H1043.15V337.48ZM1034.23 292.86V308.85H1037.43C1040.48 308.85 1042.34 307.51 1042.34 303.35V298.22C1042.34 294.5 1041.08 292.87 1038.18 292.87H1034.24L1034.23 292.86Z" fill="#09A9E7"/>
<path d="M1064.12 307.36H1075.35V314.8H1064.12V330.04H1078.25V337.48H1055.94V285.43H1078.25V292.87H1064.12V307.37V307.36Z" fill="#09A9E7"/>
<path d="M1092.45 285.43H1117.73V292.87H1109.18V337.48H1101V292.87H1092.45V285.43Z" fill="#09A9E7"/>
<path d="M1129.48 337.48H1121.3V285.43H1129.48V307.74H1138.77V285.43H1147.1V337.48H1138.77V315.17H1129.48V337.48Z" fill="#09A9E7"/>
<path d="M1161.23 307.36H1172.46V314.8H1161.23V330.04H1175.36V337.48H1153.05V285.43H1175.36V292.87H1161.23V307.37V307.36Z" fill="#09A9E7"/>
<path d="M1188.08 320.23L1177.75 285.43H1186.3L1192.47 309.15H1192.62L1198.79 285.43H1206.6L1196.27 320.23V337.48H1188.09V320.23H1188.08Z" fill="#09A9E7"/>
<path d="M1247.87 337.48H1239.62L1238.21 328.04H1228.17L1226.76 337.48H1219.25L1227.58 285.43H1239.55L1247.88 337.48H1247.87ZM1229.2 320.97H1237.08L1233.21 294.65H1233.06L1229.19 320.97H1229.2Z" fill="#09A9E7"/>
<path d="M1268.76 337.48C1268.31 336.14 1268.02 335.32 1268.02 331.09V322.91C1268.02 318.08 1266.38 316.29 1262.67 316.29H1259.84V337.48H1251.66V285.43H1264C1272.48 285.43 1276.12 289.37 1276.12 297.4V301.49C1276.12 306.84 1274.41 310.26 1270.77 311.97V312.12C1274.86 313.83 1276.2 317.7 1276.2 323.12V331.15C1276.2 333.68 1276.27 335.54 1277.09 337.47H1268.76V337.48ZM1259.84 292.86V308.85H1263.04C1266.09 308.85 1267.95 307.51 1267.95 303.35V298.22C1267.95 294.5 1266.69 292.87 1263.79 292.87H1259.85L1259.84 292.86Z" fill="#09A9E7"/>
<path d="M1289.73 307.36H1300.96V314.8H1289.73V330.04H1303.86V337.48H1281.55V285.43H1303.86V292.87H1289.73V307.37V307.36Z" fill="#09A9E7"/>
<path d="M1316.8 329.6V337.48H1308.92V329.6H1316.8Z" fill="#09A9E7"/>
<path d="M412.178 228.68H328.508L315.148 257.87H269.748L369.628 43.5804H370.928L470.938 257.87H425.408L412.178 228.68ZM395.828 192.88L370.408 136.97L344.858 192.88H395.838H395.828Z" fill="#F9F9F9"/>
<path d="M632.558 43.8404V257.87H596.238L594.548 240.88C582.618 255.28 565.488 263.19 544.868 263.19C496.878 263.19 469.118 221.03 469.118 180.3C469.118 134.64 501.288 97.1504 545.258 97.1504C564.718 97.1504 581.578 104.28 593.638 118.16V43.8304H632.548L632.558 43.8404ZM593.648 179.91C593.648 153.32 573.668 137.1 551.748 137.1C527.618 137.1 509.068 156.82 509.068 179.78C509.068 202.74 525.668 223.23 551.748 223.23C575.488 223.23 593.648 205.33 593.648 179.91Z" fill="#F9F9F9"/>
<path d="M745.408 48.7604H818.828C859.298 48.7604 892.378 80.5404 892.378 119.45C892.378 158.36 859.298 189.89 818.828 189.89H787.438V257.86H745.408V48.7604ZM850.348 119.07C850.348 103.24 836.208 90.4004 818.828 90.4004H787.438V148.25L818.828 148.38C836.208 148.51 850.348 135.28 850.348 119.06V119.07Z" fill="#F9F9F9"/>
<path d="M914.688 60.8304C914.688 48.3804 924.808 38.2604 937.258 38.2604C949.708 38.2604 959.828 48.3804 959.828 60.8304C959.828 73.2804 949.708 83.4004 937.258 83.4004C924.808 83.4004 914.688 73.2804 914.688 60.8304ZM917.278 102.21H957.228V257.87H917.278V102.21Z" fill="#F9F9F9"/>
<path d="M993.548 43.8404H1033.5V257.87H993.548V43.8404Z" fill="#F9F9F9"/>
<path d="M1058.8 180.04C1058.8 134.25 1095.9 97.0204 1141.95 97.0204C1188 97.0204 1224.84 134.25 1224.84 180.04C1224.84 225.83 1187.74 263.06 1141.95 263.06C1096.16 263.06 1058.8 225.96 1058.8 180.04ZM1184.88 180.04C1184.88 156.3 1165.68 136.97 1141.94 136.97C1118.2 136.97 1098.74 156.3 1098.74 180.04C1098.74 203.78 1117.94 223.11 1141.94 223.11C1165.94 223.11 1184.88 203.91 1184.88 180.04Z" fill="#F9F9F9"/>
<path d="M1259.08 205.72V141.12H1238.33V104.8H1243.26C1254.68 104.8 1261.68 97.2804 1261.68 85.0804V71.0704H1299.04V102.2H1330.17V141.11H1299.04V205.71C1299.04 216.09 1302.28 222.18 1312.27 222.18C1316.94 222.18 1323.3 220.88 1330.17 218.94V255.78C1322.26 258.37 1307.47 260.45 1298.78 260.45C1272.71 260.45 1259.09 241.64 1259.09 205.71L1259.08 205.72Z" fill="#F9F9F9"/>
<path d="M212.228 248.62C189.198 280.06 162.368 312.44 136.808 342.06C136.038 342.95 132.638 347.06 131.988 346.94C130.648 345.78 129.358 344.52 128.178 343.21C111.168 324.37 93.418 301.42 77.368 281.44C28.498 220.58 -27.842 151.1 15.478 70.0504C72.148 -35.9796 229.448 -17.7596 259.748 98.4804C275.388 158.49 245.788 202.81 212.228 248.62ZM232.788 132.67C232.458 107.86 224.318 83.5504 207.858 64.9304C177.138 30.2004 125.688 20.9404 84.578 42.7004C76.068 37.4904 68.408 31.0404 60.628 24.8204C60.148 35.8104 62.048 46.6004 63.998 57.3204C33.758 84.6904 23.348 129.99 38.238 168.15C38.718 169.38 42.328 177.48 42.788 177.74C43.248 178 44.018 177.87 44.468 177.54C56.618 162.47 68.788 146.74 75.488 128.31C77.918 121.62 81.528 110.11 80.118 103.18C79.718 101.23 76.468 97.4604 75.328 95.2704C70.248 85.4904 67.288 74.5304 66.678 63.5204C69.498 66.5204 72.968 68.9104 76.788 70.4304C75.018 66.7004 73.058 62.9704 71.738 59.0404C69.648 52.8304 68.088 45.8104 68.138 39.2604C81.388 49.4104 95.598 56.9304 111.888 61.0304C149.478 70.4904 189.558 72.9304 204.818 116.48C205.568 118.61 207.528 128.1 207.998 128.61C208.798 129.47 220.868 133.86 223.258 135C229.208 137.84 236.518 141.94 241.618 146.09C242.888 147.13 248.388 152.23 248.848 153.3C249.278 154.29 248.478 154.06 248.058 154.22C233.238 159.78 215.628 160.09 200.068 161.09C198.538 161.19 193.498 161.65 192.528 162.21C190.038 163.64 182.808 172.53 180.748 175.26C169.648 189.93 165.508 206.41 163.988 224.6C192.658 215.6 217.258 194.66 227.498 166.01C237.748 164.76 247.238 160.26 257.518 159.36C255.978 146.35 242.948 138.83 232.808 132.69L232.788 132.67ZM156.458 102.77C164.428 100.7 172.348 104.59 178.578 109.23C184.748 113.83 182.918 113.24 185.788 119.34C186.238 120.29 189.168 125.93 189.518 126.07C191.308 126.79 198.218 122 198.928 120.66C200.848 117.03 192.208 103.11 189.608 99.9304C162.188 66.4804 118.868 75.8504 84.688 57.0504C83.258 56.2604 76.618 51.0104 75.628 51.9704C78.648 63.4004 86.158 73.2104 95.248 80.5504C88.008 81.4604 81.658 77.1904 75.048 75.0604C79.328 91.3904 96.478 110.04 113.128 114.05C116.038 114.75 122.088 114.67 124.118 115.47C124.548 115.64 127.858 119.31 130.478 120.37C132.178 121.06 143.858 124.17 145.218 124.17C147.238 124.17 148.398 121.27 147.798 120.67C147.698 120.57 145.848 120.52 145.028 120.26C143.848 119.89 141.488 119.43 140.868 118.36C149.798 115.18 160.898 113.67 167.098 122.43C169.858 126.32 168.748 129.65 175.238 129.92C180.778 130.15 180.078 124.83 179.408 120.51C177.848 110.51 165.518 104.13 156.448 102.76L156.458 102.77ZM160.348 121.33C157.318 121.86 157.468 126.21 159.748 126.9C165.238 128.55 165.618 120.42 160.348 121.33ZM147.048 131.23C142.678 127.75 123.188 126.88 118.748 130.44C117.738 131.25 116.828 135.77 116.688 137.19C115.758 146.17 119.018 159.62 126.478 165.36C127.678 166.29 132.698 168.53 132.778 168.88C133.178 170.57 129.148 170.81 129.268 174.05C129.458 178.99 138.548 188.88 142.288 192.27C147.538 197.03 153.688 200.93 160.178 203.8C161.118 203.6 162.168 197.26 162.638 195.85C165.988 185.66 171.438 175.89 178.408 167.74C180.108 165.75 185.868 161.21 185.878 159.15C185.878 157.77 184.418 152.75 183.708 151.44C180.638 145.77 174.568 146.67 169.158 147.22C172.118 144.16 176.678 138.81 171.448 135.42C167.058 132.57 162.038 139.53 155.628 138.53C150.448 137.73 149.598 133.27 147.058 131.24L147.048 131.23ZM112.448 176.22C112.138 175.91 110.748 175.87 110.048 175.46C100.078 169.51 94.098 156.9 90.918 146.08C90.478 144.57 90.358 141.28 89.758 140.31C89.418 139.75 85.788 138.14 84.668 137.31C83.688 136.58 80.428 132.81 79.668 133.37C75.068 146.9 67.068 158.95 58.538 170.27C56.818 172.55 47.698 182.59 47.418 184.03C47.078 185.75 53.588 193.4 55.118 195.15C75.178 218.05 100.798 228.85 131.308 229.23C134.748 229.27 156.648 227.6 157.928 225.77C158.238 225.33 158.598 218.33 158.258 217.91C157.648 217.17 153.408 215.68 152.028 214.87C140.298 207.94 119.738 191.52 113.438 179.56C112.968 178.66 112.788 176.56 112.448 176.22Z" fill="#F9F9F9"/>
<path d="M112.448 176.22C112.788 176.56 112.968 178.66 113.438 179.56C119.738 191.52 140.288 207.94 152.028 214.87C153.408 215.69 157.658 217.18 158.258 217.91C158.608 218.33 158.238 225.33 157.928 225.77C156.648 227.6 134.748 229.27 131.308 229.23C100.798 228.85 75.1781 218.05 55.1181 195.15C53.5881 193.4 47.0781 185.75 47.4181 184.03C47.6981 182.59 56.8181 172.55 58.5381 170.27C67.0681 158.95 75.0681 146.9 79.6681 133.37C80.4281 132.81 83.6881 136.58 84.6681 137.31C85.7881 138.14 89.4081 139.75 89.7581 140.31C90.3581 141.28 90.4781 144.57 90.9181 146.08C94.0981 156.9 100.078 169.51 110.048 175.46C110.748 175.88 112.138 175.91 112.448 176.22Z" fill="#09A9E7"/>
<path d="M124.118 115.47C122.088 114.66 116.048 114.75 113.128 114.05C96.4781 110.04 79.318 91.3904 75.048 75.0604C81.658 77.1804 88.008 81.4604 95.248 80.5504C86.158 73.2204 78.6481 63.4004 75.6281 51.9704C76.6181 51.0104 83.258 56.2704 84.688 57.0504C118.858 75.8604 162.178 66.4904 189.608 99.9304C192.208 103.11 200.858 117.02 198.928 120.66C198.218 121.99 191.308 126.79 189.518 126.07C189.158 125.93 186.228 120.29 185.788 119.34C182.918 113.24 184.748 113.83 178.578 109.23C172.348 104.59 164.428 100.7 156.458 102.77C148.428 101.56 137.958 104.37 131.108 108.88C128.728 110.45 125.368 112.97 124.128 115.47H124.118Z" fill="#09A9E7"/>
<path d="M160.348 121.33C165.618 120.42 165.238 128.55 159.748 126.9C157.468 126.22 157.318 121.86 160.348 121.33Z" fill="#3C4555"/>
</svg>
