<svg width="1511" height="347" viewBox="0 0 1511 347" fill="none" xmlns="http://www.w3.org/2000/svg">
<path d="M441.113 263.946H343.383L327.777 298H274.748L391.413 48H392.931L509.748 298H456.567L441.113 263.946ZM422.016 222.18L392.324 156.953L362.48 222.18H422.027H422.016Z" fill="#3C4555"/>
<path d="M697.748 48.0117V297.791H655.304L653.329 277.964C639.387 294.769 619.368 304 595.271 304C539.189 304 506.748 254.798 506.748 207.265C506.748 153.978 544.343 110.226 595.727 110.226C618.469 110.226 638.172 118.547 652.265 134.745V48H697.736L697.748 48.0117ZM652.277 206.81C652.277 175.778 628.928 156.849 603.311 156.849C575.113 156.849 553.435 179.863 553.435 206.658C553.435 233.453 572.834 257.365 603.311 257.365C631.055 257.365 652.277 236.476 652.277 206.81Z" fill="#3C4555"/>
<path d="M828.748 54H914.672C962.034 54 1000.75 91.0843 1000.75 136.489C1000.75 181.893 962.034 218.685 914.672 218.685H877.936V298H828.748V54ZM951.56 136.045C951.56 117.573 935.012 102.59 914.672 102.59H877.936V170.095L914.672 170.247C935.012 170.399 951.56 154.961 951.56 136.033V136.045Z" fill="#3C4555"/>
<path d="M1026.75 68.3099C1026.75 53.7969 1038.41 42 1052.75 42C1067.09 42 1078.75 53.7969 1078.75 68.3099C1078.75 82.8229 1067.09 94.6198 1052.75 94.6198C1038.41 94.6198 1026.75 82.8229 1026.75 68.3099ZM1029.73 116.547H1075.75V298H1029.73V116.547Z" fill="#3C4555"/>
<path d="M1118.75 48H1164.75V298H1118.75V48Z" fill="#3C4555"/>
<path d="M1194.75 207C1194.75 153.499 1237.87 110 1291.4 110C1344.93 110 1387.75 153.499 1387.75 207C1387.75 260.501 1344.62 304 1291.4 304C1238.17 304 1194.75 260.653 1194.75 207ZM1341.3 207C1341.3 179.262 1318.98 156.677 1291.39 156.677C1263.79 156.677 1241.17 179.262 1241.17 207C1241.17 234.738 1263.49 257.323 1291.39 257.323C1319.28 257.323 1341.3 234.89 1341.3 207Z" fill="#3C4555"/>
<path d="M1427.92 237.132V161.746H1403.75V119.362H1409.49C1422.8 119.362 1430.95 110.586 1430.95 96.3492V80H1474.48V116.328H1510.75V161.734H1474.48V237.12C1474.48 249.233 1478.25 256.34 1489.89 256.34C1495.33 256.34 1502.74 254.823 1510.75 252.559V295.55C1501.53 298.573 1484.3 301 1474.18 301C1443.8 301 1427.93 279.049 1427.93 237.12L1427.92 237.132Z" fill="#3C4555"/>
<path d="M212.228 248.62C189.198 280.06 162.368 312.44 136.808 342.06C136.038 342.95 132.638 347.06 131.988 346.94C130.648 345.78 129.358 344.52 128.178 343.21C111.168 324.37 93.418 301.42 77.368 281.44C28.498 220.58 -27.842 151.1 15.478 70.0504C72.148 -35.9796 229.448 -17.7596 259.748 98.4804C275.388 158.49 245.788 202.81 212.228 248.62ZM232.788 132.67C232.458 107.86 224.318 83.5504 207.858 64.9304C177.138 30.2004 125.688 20.9404 84.578 42.7004C76.068 37.4904 68.408 31.0404 60.628 24.8204C60.148 35.8104 62.048 46.6004 63.998 57.3204C33.758 84.6904 23.348 129.99 38.238 168.15C38.718 169.38 42.328 177.48 42.788 177.74C43.248 178 44.018 177.87 44.468 177.54C56.618 162.47 68.788 146.74 75.488 128.31C77.918 121.62 81.528 110.11 80.118 103.18C79.718 101.23 76.468 97.4604 75.328 95.2704C70.248 85.4904 67.288 74.5304 66.678 63.5204C69.498 66.5204 72.968 68.9104 76.788 70.4304C75.018 66.7004 73.058 62.9704 71.738 59.0404C69.648 52.8304 68.088 45.8104 68.138 39.2604C81.388 49.4104 95.598 56.9304 111.888 61.0304C149.478 70.4904 189.558 72.9304 204.818 116.48C205.568 118.61 207.528 128.1 207.998 128.61C208.798 129.47 220.868 133.86 223.258 135C229.208 137.84 236.518 141.94 241.618 146.09C242.888 147.13 248.388 152.23 248.848 153.3C249.278 154.29 248.478 154.06 248.058 154.22C233.238 159.78 215.628 160.09 200.068 161.09C198.538 161.19 193.498 161.65 192.528 162.21C190.038 163.64 182.808 172.53 180.748 175.26C169.648 189.93 165.508 206.41 163.988 224.6C192.658 215.6 217.258 194.66 227.498 166.01C237.748 164.76 247.238 160.26 257.518 159.36C255.978 146.35 242.948 138.83 232.808 132.69L232.788 132.67ZM156.458 102.77C164.428 100.7 172.348 104.59 178.578 109.23C184.748 113.83 182.918 113.24 185.788 119.34C186.238 120.29 189.168 125.93 189.518 126.07C191.308 126.79 198.218 122 198.928 120.66C200.848 117.03 192.208 103.11 189.608 99.9304C162.188 66.4804 118.868 75.8504 84.688 57.0504C83.258 56.2604 76.618 51.0104 75.628 51.9704C78.648 63.4004 86.158 73.2104 95.248 80.5504C88.008 81.4604 81.658 77.1904 75.048 75.0604C79.328 91.3904 96.478 110.04 113.128 114.05C116.038 114.75 122.088 114.67 124.118 115.47C124.548 115.64 127.858 119.31 130.478 120.37C132.178 121.06 143.858 124.17 145.218 124.17C147.238 124.17 148.398 121.27 147.798 120.67C147.698 120.57 145.848 120.52 145.028 120.26C143.848 119.89 141.488 119.43 140.868 118.36C149.798 115.18 160.898 113.67 167.098 122.43C169.858 126.32 168.748 129.65 175.238 129.92C180.778 130.15 180.078 124.83 179.408 120.51C177.848 110.51 165.518 104.13 156.448 102.76L156.458 102.77ZM160.348 121.33C157.318 121.86 157.468 126.21 159.748 126.9C165.238 128.55 165.618 120.42 160.348 121.33ZM147.048 131.23C142.678 127.75 123.188 126.88 118.748 130.44C117.738 131.25 116.828 135.77 116.688 137.19C115.758 146.17 119.018 159.62 126.478 165.36C127.678 166.29 132.698 168.53 132.778 168.88C133.178 170.57 129.148 170.81 129.268 174.05C129.458 178.99 138.548 188.88 142.288 192.27C147.538 197.03 153.688 200.93 160.178 203.8C161.118 203.6 162.168 197.26 162.638 195.85C165.988 185.66 171.438 175.89 178.408 167.74C180.108 165.75 185.868 161.21 185.878 159.15C185.878 157.77 184.418 152.75 183.708 151.44C180.638 145.77 174.568 146.67 169.158 147.22C172.118 144.16 176.678 138.81 171.448 135.42C167.058 132.57 162.038 139.53 155.628 138.53C150.448 137.73 149.598 133.27 147.058 131.24L147.048 131.23ZM112.448 176.22C112.138 175.91 110.748 175.87 110.048 175.46C100.078 169.51 94.098 156.9 90.918 146.08C90.478 144.57 90.358 141.28 89.758 140.31C89.418 139.75 85.788 138.14 84.668 137.31C83.688 136.58 80.428 132.81 79.668 133.37C75.068 146.9 67.068 158.95 58.538 170.27C56.818 172.55 47.698 182.59 47.418 184.03C47.078 185.75 53.588 193.4 55.118 195.15C75.178 218.05 100.798 228.85 131.308 229.23C134.748 229.27 156.648 227.6 157.928 225.77C158.238 225.33 158.598 218.33 158.258 217.91C157.648 217.17 153.408 215.68 152.028 214.87C140.298 207.94 119.738 191.52 113.438 179.56C112.968 178.66 112.788 176.56 112.448 176.22Z" fill="#3C4555"/>
<path d="M112.448 176.22C112.788 176.56 112.968 178.66 113.438 179.56C119.738 191.52 140.288 207.94 152.028 214.87C153.408 215.69 157.658 217.18 158.258 217.91C158.608 218.33 158.238 225.33 157.928 225.77C156.648 227.6 134.748 229.27 131.308 229.23C100.798 228.85 75.178 218.05 55.118 195.15C53.588 193.4 47.078 185.75 47.418 184.03C47.698 182.59 56.818 172.55 58.538 170.27C67.068 158.95 75.068 146.9 79.668 133.37C80.428 132.81 83.688 136.58 84.668 137.31C85.788 138.14 89.408 139.75 89.758 140.31C90.358 141.28 90.478 144.57 90.918 146.08C94.098 156.9 100.078 169.51 110.048 175.46C110.748 175.88 112.138 175.91 112.448 176.22Z" fill="#09A9E7"/>
<path d="M124.118 115.47C122.088 114.66 116.048 114.75 113.128 114.05C96.478 110.04 79.318 91.3904 75.048 75.0604C81.658 77.1804 88.008 81.4604 95.248 80.5504C86.158 73.2204 78.648 63.4004 75.628 51.9704C76.618 51.0104 83.258 56.2704 84.688 57.0504C118.858 75.8604 162.178 66.4904 189.608 99.9304C192.208 103.11 200.858 117.02 198.928 120.66C198.218 121.99 191.308 126.79 189.518 126.07C189.158 125.93 186.228 120.29 185.788 119.34C182.918 113.24 184.748 113.83 178.578 109.23C172.348 104.59 164.428 100.7 156.458 102.77C148.428 101.56 137.958 104.37 131.108 108.88C128.728 110.45 125.368 112.97 124.128 115.47H124.118Z" fill="#09A9E7"/>
<path d="M160.348 121.33C165.618 120.42 165.238 128.55 159.748 126.9C157.468 126.22 157.318 121.86 160.348 121.33Z" fill="#FDFDFC"/>
</svg>
