<svg width="1339" height="347" viewBox="0 0 1339 347" fill="none" xmlns="http://www.w3.org/2000/svg">
<path d="M284.688 337.48C284.228 336.09 283.918 335.25 283.918 330.86V322.39C283.918 317.39 282.228 315.54 278.378 315.54H275.448V337.48H266.978V283.58H279.758C288.538 283.58 292.308 287.66 292.308 295.98V300.22C292.308 305.76 290.538 309.3 286.768 311.08V311.23C290.998 313 292.388 317.01 292.388 322.63V330.95C292.388 333.57 292.468 335.49 293.308 337.49H284.688V337.48ZM275.448 291.28V307.83H278.758C281.918 307.83 283.838 306.44 283.838 302.13V296.82C283.838 292.97 282.528 291.28 279.528 291.28H275.448Z" fill="#09A9E7"/>
<path d="M309.018 306.29H320.648V313.99H309.018V329.78H323.648V337.48H300.548V283.58H323.648V291.28H309.018V306.29Z" fill="#09A9E7"/>
<path d="M358.908 337.48H350.358L348.898 327.7H338.508L337.048 337.48H329.268L337.888 283.58H350.288L358.908 337.48ZM339.588 320.38H347.748L343.748 293.12H343.598L339.598 320.38H339.588Z" fill="#09A9E7"/>
<path d="M389.938 317.38V324.54C389.938 333.16 385.628 338.09 377.308 338.09C368.988 338.09 364.678 333.16 364.678 324.54V296.51C364.678 287.89 368.988 282.96 377.308 282.96C385.628 282.96 389.938 287.89 389.938 296.51V301.75H381.928V295.98C381.928 292.13 380.238 290.67 377.538 290.67C374.838 290.67 373.148 292.13 373.148 295.98V325.08C373.148 328.93 374.838 330.32 377.538 330.32C380.238 330.32 381.928 328.93 381.928 325.08V317.38H389.938Z" fill="#09A9E7"/>
<path d="M406.188 337.48H397.718V283.58H406.188V306.68H415.808V283.58H424.428V337.48H415.808V314.38H406.188V337.48Z" fill="#09A9E7"/>
<path d="M455.698 319.61L444.998 283.58H453.848L460.238 308.14H460.388L466.778 283.58H474.858L464.158 319.61V337.47H455.688V319.61H455.698Z" fill="#09A9E7"/>
<path d="M479.028 296.52C479.028 287.9 483.568 282.97 491.888 282.97C500.208 282.97 504.748 287.9 504.748 296.52V324.55C504.748 333.17 500.208 338.1 491.888 338.1C483.568 338.1 479.028 333.17 479.028 324.55V296.52ZM487.498 325.08C487.498 328.93 489.188 330.39 491.888 330.39C494.588 330.39 496.278 328.93 496.278 325.08V295.98C496.278 292.13 494.588 290.67 491.888 290.67C489.188 290.67 487.498 292.13 487.498 295.98V325.08Z" fill="#09A9E7"/>
<path d="M520.918 283.58V325.16C520.918 329.01 522.608 330.4 525.308 330.4C528.008 330.4 529.698 329.01 529.698 325.16V283.58H537.708V324.62C537.708 333.24 533.398 338.17 525.078 338.17C516.758 338.17 512.448 333.24 512.448 324.62V283.58H520.918Z" fill="#09A9E7"/>
<path d="M563.808 337.48C563.348 336.09 563.038 335.25 563.038 330.86V322.39C563.038 317.39 561.348 315.54 557.498 315.54H554.568V337.48H546.098V283.58H558.878C567.658 283.58 571.428 287.66 571.428 295.98V300.22C571.428 305.76 569.658 309.3 565.888 311.08V311.23C570.118 313 571.508 317.01 571.508 322.63V330.95C571.508 333.57 571.588 335.49 572.428 337.49H563.808V337.48ZM554.568 291.28V307.83H557.878C561.038 307.83 562.958 306.44 562.958 302.13V296.82C562.958 292.97 561.648 291.28 558.648 291.28H554.568Z" fill="#09A9E7"/>
<path d="M618.778 317.38V324.54C618.778 333.16 614.468 338.09 606.148 338.09C597.828 338.09 593.518 333.16 593.518 324.54V296.51C593.518 287.89 597.828 282.96 606.148 282.96C614.468 282.96 618.778 287.89 618.778 296.51V301.75H610.768V295.98C610.768 292.13 609.078 290.67 606.378 290.67C603.678 290.67 601.988 292.13 601.988 295.98V325.08C601.988 328.93 603.678 330.32 606.378 330.32C609.078 330.32 610.768 328.93 610.768 325.08V317.38H618.778Z" fill="#09A9E7"/>
<path d="M625.868 296.52C625.868 287.9 630.408 282.97 638.728 282.97C647.048 282.97 651.588 287.9 651.588 296.52V324.55C651.588 333.17 647.048 338.1 638.728 338.1C630.408 338.1 625.868 333.17 625.868 324.55V296.52ZM634.338 325.08C634.338 328.93 636.028 330.39 638.728 330.39C641.428 330.39 643.118 328.93 643.118 325.08V295.98C643.118 292.13 641.428 290.67 638.728 290.67C636.028 290.67 634.338 292.13 634.338 295.98V325.08Z" fill="#09A9E7"/>
<path d="M677.528 321.85H677.678L683.378 283.58H695.158V337.48H687.148V298.83H686.998L681.298 337.48H673.288L667.128 299.37H666.978V337.48H659.588V283.58H671.368L677.528 321.85Z" fill="#09A9E7"/>
<path d="M721.808 321.85H721.958L727.658 283.58H739.438V337.48H731.428V298.83H731.278L725.578 337.48H717.568L711.408 299.37H711.258V337.48H703.868V283.58H715.648L721.808 321.85Z" fill="#09A9E7"/>
<path d="M756.298 283.58V325.16C756.298 329.01 757.988 330.4 760.688 330.4C763.388 330.4 765.078 329.01 765.078 325.16V283.58H773.088V324.62C773.088 333.24 768.778 338.17 760.458 338.17C752.138 338.17 747.828 333.24 747.828 324.62V283.58H756.298Z" fill="#09A9E7"/>
<path d="M789.178 298.44H789.028V337.48H781.408V283.58H792.028L800.578 315.84H800.728V283.58H808.268V337.48H799.568L789.178 298.44Z" fill="#09A9E7"/>
<path d="M816.978 283.58H825.448V337.48H816.978V283.58Z" fill="#09A9E7"/>
<path d="M831.758 283.58H857.938V291.28H849.088V337.48H840.618V291.28H831.768V283.58H831.758Z" fill="#09A9E7"/>
<path d="M872.188 319.61L861.488 283.58H870.338L876.728 308.14H876.878L883.268 283.58H891.348L880.648 319.61V337.47H872.178V319.61H872.188Z" fill="#09A9E7"/>
<path d="M930.778 308.76H930.628L927.628 337.48H915.998L909.998 283.58H918.238L922.708 326.08H922.858L926.858 283.58H935.018L939.178 326.39H939.328L943.638 283.58H951.028L945.028 337.48H933.788L930.788 308.76H930.778Z" fill="#09A9E7"/>
<path d="M966.348 337.48H957.878V283.58H966.348V306.68H975.968V283.58H984.588V337.48H975.968V314.38H966.348V337.48Z" fill="#09A9E7"/>
<path d="M1001.85 306.29H1013.48V313.99H1001.85V329.78H1016.48V337.48H993.378V283.58H1016.48V291.28H1001.85V306.29Z" fill="#09A9E7"/>
<path d="M1042.04 337.48C1041.58 336.09 1041.27 335.25 1041.27 330.86V322.39C1041.27 317.39 1039.58 315.54 1035.73 315.54H1032.8V337.48H1024.33V283.58H1037.11C1045.89 283.58 1049.66 287.66 1049.66 295.98V300.22C1049.66 305.76 1047.89 309.3 1044.12 311.08V311.23C1048.35 313 1049.74 317.01 1049.74 322.63V330.95C1049.74 333.57 1049.82 335.49 1050.66 337.49H1042.04V337.48ZM1032.8 291.28V307.83H1036.11C1039.27 307.83 1041.19 306.44 1041.19 302.13V296.82C1041.19 292.97 1039.88 291.28 1036.88 291.28H1032.8Z" fill="#09A9E7"/>
<path d="M1066.38 306.29H1078.01V313.99H1066.38V329.78H1081.01V337.48H1057.91V283.58H1081.01V291.28H1066.38V306.29Z" fill="#09A9E7"/>
<path d="M1100.95 283.58H1127.13V291.28H1118.28V337.48H1109.81V291.28H1100.96V283.58H1100.95Z" fill="#09A9E7"/>
<path d="M1141.91 337.48H1133.44V283.58H1141.91V306.68H1151.53V283.58H1160.15V337.48H1151.53V314.38H1141.91V337.48Z" fill="#09A9E7"/>
<path d="M1177.41 306.29H1189.04V313.99H1177.41V329.78H1192.04V337.48H1168.94V283.58H1192.04V291.28H1177.41V306.29Z" fill="#09A9E7"/>
<path d="M1207.82 319.61L1197.12 283.58H1205.97L1212.36 308.14H1212.51L1218.9 283.58H1226.98L1216.28 319.61V337.47H1207.81V319.61H1207.82Z" fill="#09A9E7"/>
<path d="M1274.96 337.48H1266.41L1264.95 327.7H1254.56L1253.1 337.48H1245.32L1253.94 283.58H1266.34L1274.96 337.48ZM1255.64 320.38H1263.8L1259.8 293.12H1259.65L1255.65 320.38H1255.64Z" fill="#09A9E7"/>
<path d="M1299.22 337.48C1298.76 336.09 1298.45 335.25 1298.45 330.86V322.39C1298.45 317.39 1296.76 315.54 1292.91 315.54H1289.98V337.48H1281.51V283.58H1294.29C1303.07 283.58 1306.84 287.66 1306.84 295.98V300.22C1306.84 305.76 1305.07 309.3 1301.3 311.08V311.23C1305.53 313 1306.92 317.01 1306.92 322.63V330.95C1306.92 333.57 1307 335.49 1307.84 337.49H1299.22V337.48ZM1289.98 291.28V307.83H1293.29C1296.45 307.83 1298.37 306.44 1298.37 302.13V296.82C1298.37 292.97 1297.06 291.28 1294.06 291.28H1289.98Z" fill="#09A9E7"/>
<path d="M1323.55 306.29H1335.18V313.99H1323.55V329.78H1338.18V337.48H1315.08V283.58H1338.18V291.28H1323.55V306.29Z" fill="#09A9E7"/>
<path d="M412.178 228.68H328.508L315.148 257.87H269.748L369.628 43.5804H370.928L470.938 257.87H425.408L412.178 228.68ZM395.828 192.88L370.408 136.97L344.858 192.88H395.838H395.828Z" fill="#3C4555"/>
<path d="M632.558 43.8404V257.87H596.238L594.548 240.88C582.618 255.28 565.488 263.19 544.868 263.19C496.878 263.19 469.118 221.03 469.118 180.3C469.118 134.64 501.288 97.1504 545.258 97.1504C564.718 97.1504 581.578 104.28 593.638 118.16V43.8304H632.548L632.558 43.8404ZM593.648 179.91C593.648 153.32 573.668 137.1 551.748 137.1C527.618 137.1 509.068 156.82 509.068 179.78C509.068 202.74 525.668 223.24 551.748 223.24C575.488 223.24 593.648 205.34 593.648 179.91Z" fill="#3C4555"/>
<path d="M745.408 48.7704H818.828C859.298 48.7704 892.378 80.5504 892.378 119.46C892.378 158.37 859.298 189.89 818.828 189.89H787.438V257.86H745.408V48.7604V48.7704ZM850.348 119.07C850.348 103.25 836.208 90.4004 818.828 90.4004H787.438V148.25L818.828 148.38C836.208 148.51 850.348 135.28 850.348 119.06V119.07Z" fill="#3C4555"/>
<path d="M914.688 60.8304C914.688 48.3804 924.808 38.2604 937.258 38.2604C949.708 38.2604 959.828 48.3804 959.828 60.8304C959.828 73.2804 949.708 83.4004 937.258 83.4004C924.808 83.4004 914.688 73.2804 914.688 60.8304ZM917.278 102.21H957.228V257.87H917.278V102.21Z" fill="#3C4555"/>
<path d="M993.548 43.8404H1033.5V257.87H993.548V43.8404Z" fill="#3C4555"/>
<path d="M1058.8 180.04C1058.8 134.25 1095.9 97.0204 1141.95 97.0204C1188 97.0204 1224.84 134.25 1224.84 180.04C1224.84 225.83 1187.74 263.06 1141.95 263.06C1096.16 263.06 1058.8 225.96 1058.8 180.04ZM1184.88 180.04C1184.88 156.3 1165.68 136.97 1141.94 136.97C1118.2 136.97 1098.74 156.3 1098.74 180.04C1098.74 203.78 1117.94 223.1 1141.94 223.1C1165.94 223.1 1184.88 203.9 1184.88 180.04Z" fill="#3C4555"/>
<path d="M1259.08 205.72V141.12H1238.33V104.8H1243.26C1254.68 104.8 1261.68 97.2804 1261.68 85.0804V71.0704H1299.04V102.2H1330.17V141.11H1299.04V205.71C1299.04 216.09 1302.28 222.18 1312.27 222.18C1316.94 222.18 1323.3 220.88 1330.17 218.94V255.78C1322.26 258.37 1307.47 260.45 1298.78 260.45C1272.71 260.45 1259.09 241.64 1259.09 205.71L1259.08 205.72Z" fill="#3C4555"/>
<path d="M212.228 248.62C189.198 280.06 162.368 312.44 136.808 342.06C136.038 342.95 132.638 347.06 131.988 346.94C130.648 345.78 129.358 344.52 128.178 343.21C111.168 324.37 93.418 301.42 77.368 281.44C28.498 220.58 -27.842 151.1 15.478 70.0504C72.148 -35.9796 229.448 -17.7596 259.748 98.4804C275.388 158.49 245.788 202.81 212.228 248.62ZM232.788 132.67C232.458 107.86 224.318 83.5504 207.858 64.9304C177.138 30.2004 125.688 20.9404 84.578 42.7004C76.068 37.4904 68.408 31.0404 60.628 24.8204C60.148 35.8104 62.048 46.6004 63.998 57.3204C33.758 84.6904 23.348 129.99 38.238 168.15C38.718 169.38 42.328 177.48 42.788 177.74C43.248 178 44.018 177.87 44.468 177.54C56.618 162.47 68.788 146.74 75.488 128.31C77.918 121.62 81.528 110.11 80.118 103.18C79.718 101.23 76.468 97.4604 75.328 95.2704C70.248 85.4904 67.288 74.5304 66.678 63.5204C69.498 66.5204 72.968 68.9104 76.788 70.4304C75.018 66.7004 73.058 62.9704 71.738 59.0404C69.648 52.8304 68.088 45.8104 68.138 39.2604C81.388 49.4104 95.598 56.9304 111.888 61.0304C149.478 70.4904 189.558 72.9304 204.818 116.48C205.568 118.61 207.528 128.1 207.998 128.61C208.798 129.47 220.868 133.86 223.258 135C229.208 137.84 236.518 141.94 241.618 146.09C242.888 147.13 248.388 152.23 248.848 153.3C249.278 154.29 248.478 154.06 248.058 154.22C233.238 159.78 215.628 160.09 200.068 161.09C198.538 161.19 193.498 161.65 192.528 162.21C190.038 163.64 182.808 172.53 180.748 175.26C169.648 189.93 165.508 206.41 163.988 224.6C192.658 215.6 217.258 194.66 227.498 166.01C237.748 164.76 247.238 160.26 257.518 159.36C255.978 146.35 242.948 138.83 232.808 132.69L232.788 132.67ZM156.458 102.77C164.428 100.7 172.348 104.59 178.578 109.23C184.748 113.83 182.918 113.24 185.788 119.34C186.238 120.29 189.168 125.93 189.518 126.07C191.308 126.79 198.218 122 198.928 120.66C200.848 117.03 192.208 103.11 189.608 99.9304C162.188 66.4804 118.868 75.8504 84.688 57.0504C83.258 56.2604 76.618 51.0104 75.628 51.9704C78.648 63.4004 86.158 73.2104 95.248 80.5504C88.008 81.4604 81.658 77.1904 75.048 75.0604C79.328 91.3904 96.478 110.04 113.128 114.05C116.038 114.75 122.088 114.67 124.118 115.47C124.548 115.64 127.858 119.31 130.478 120.37C132.178 121.06 143.858 124.17 145.218 124.17C147.238 124.17 148.398 121.27 147.798 120.67C147.698 120.57 145.848 120.52 145.028 120.26C143.848 119.89 141.488 119.43 140.868 118.36C149.798 115.18 160.898 113.67 167.098 122.43C169.858 126.32 168.748 129.65 175.238 129.92C180.778 130.15 180.078 124.83 179.408 120.51C177.848 110.51 165.518 104.13 156.448 102.76L156.458 102.77ZM160.348 121.33C157.318 121.86 157.468 126.21 159.748 126.9C165.238 128.55 165.618 120.42 160.348 121.33ZM147.048 131.23C142.678 127.75 123.188 126.88 118.748 130.44C117.738 131.25 116.828 135.77 116.688 137.19C115.758 146.17 119.018 159.62 126.478 165.36C127.678 166.29 132.698 168.53 132.778 168.88C133.178 170.57 129.148 170.81 129.268 174.05C129.458 178.99 138.548 188.88 142.288 192.27C147.538 197.03 153.688 200.93 160.178 203.8C161.118 203.6 162.168 197.26 162.638 195.85C165.988 185.66 171.438 175.89 178.408 167.74C180.108 165.75 185.868 161.21 185.878 159.15C185.878 157.77 184.418 152.75 183.708 151.44C180.638 145.77 174.568 146.67 169.158 147.22C172.118 144.16 176.678 138.81 171.448 135.42C167.058 132.57 162.038 139.53 155.628 138.53C150.448 137.73 149.598 133.27 147.058 131.24L147.048 131.23ZM112.448 176.22C112.138 175.91 110.748 175.87 110.048 175.46C100.078 169.51 94.098 156.9 90.918 146.08C90.478 144.57 90.358 141.28 89.758 140.31C89.418 139.75 85.788 138.14 84.668 137.31C83.688 136.58 80.428 132.81 79.668 133.37C75.068 146.9 67.068 158.95 58.538 170.27C56.818 172.55 47.698 182.59 47.418 184.03C47.078 185.75 53.588 193.4 55.118 195.15C75.178 218.05 100.798 228.85 131.308 229.23C134.748 229.27 156.648 227.6 157.928 225.77C158.238 225.33 158.598 218.33 158.258 217.91C157.648 217.17 153.408 215.68 152.028 214.87C140.298 207.94 119.738 191.52 113.438 179.56C112.968 178.66 112.788 176.56 112.448 176.22Z" fill="#3C4555"/>
<path d="M112.448 176.22C112.788 176.56 112.968 178.66 113.438 179.56C119.738 191.52 140.288 207.94 152.028 214.87C153.408 215.69 157.658 217.18 158.258 217.91C158.608 218.33 158.238 225.33 157.928 225.77C156.648 227.6 134.748 229.27 131.308 229.23C100.798 228.85 75.178 218.05 55.118 195.15C53.588 193.4 47.078 185.75 47.418 184.03C47.698 182.59 56.818 172.55 58.538 170.27C67.068 158.95 75.068 146.9 79.668 133.37C80.428 132.81 83.688 136.58 84.668 137.31C85.788 138.14 89.408 139.75 89.758 140.31C90.358 141.28 90.478 144.57 90.918 146.08C94.098 156.9 100.078 169.51 110.048 175.46C110.748 175.88 112.138 175.91 112.448 176.22Z" fill="#09A9E7"/>
<path d="M124.118 115.47C122.088 114.66 116.048 114.75 113.128 114.05C96.478 110.04 79.318 91.3904 75.048 75.0604C81.658 77.1804 88.008 81.4604 95.248 80.5504C86.158 73.2204 78.648 63.4004 75.628 51.9704C76.618 51.0104 83.258 56.2704 84.688 57.0504C118.858 75.8604 162.178 66.4904 189.608 99.9304C192.208 103.11 200.858 117.02 198.928 120.66C198.218 121.99 191.308 126.79 189.518 126.07C189.158 125.93 186.228 120.29 185.788 119.34C182.918 113.24 184.748 113.83 178.578 109.23C172.348 104.59 164.428 100.7 156.458 102.77C148.428 101.56 137.958 104.37 131.108 108.88C128.728 110.45 125.368 112.97 124.128 115.47H124.118Z" fill="#09A9E7"/>
<path d="M160.348 121.33C165.618 120.42 165.238 128.55 159.748 126.9C157.468 126.22 157.318 121.86 160.348 121.33Z" fill="#FDFDFC"/>
</svg>
