<?xml version="1.0" encoding="UTF-8"?><svg id="Capa_2" xmlns="http://www.w3.org/2000/svg" viewBox="0 0 2299.26 1253.92"><defs><style>.cls-1{stroke-width:8.03px;}.cls-1,.cls-2{stroke-miterlimit:10;}.cls-1,.cls-2,.cls-3,.cls-4{fill:none;stroke:#f9f9f9;}.cls-2{stroke-width:10.04px;}.cls-5{fill:#3c4555;}.cls-6{fill:#09a9e7;}.cls-7{fill:#f9f9f9;}.cls-3{stroke-width:4.02px;}.cls-3,.cls-4{stroke-linecap:round;stroke-linejoin:round;}.cls-4{stroke-width:6.03px;}.cls-8{fill:#58c4f4;}</style></defs><g id="Capa_1-2"><rect class="cls-5" width="2299.26" height="1253.92"/><path class="cls-6" d="M768.83,680.71c.85-.58,1.36-.94,4.32-1.78l5.72-1.61c3.38-.95,4.3-2.44,3.57-5.04l-.56-1.98-14.82,4.17-1.61-5.72,36.39-10.23,2.43,8.63c1.67,5.93-.37,9.25-5.99,10.83l-2.86.8c-3.74,1.05-6.47.53-8.38-1.68l-.1.03c-.39,3.2-2.83,4.89-6.63,5.96l-5.62,1.58c-1.77.5-3.05.91-4.24,1.87l-1.64-5.82ZM798.27,665.7l-11.18,3.14.63,2.24c.6,2.13,1.9,3.17,4.81,2.35l3.59-1.01c2.6-.73,3.49-1.94,2.92-3.96l-.77-2.76Z"/><path class="cls-6" d="M795.79,692.94l2.77,7.67-5.08,1.84-2.77-7.67-10.41,3.77,3.49,9.65-5.08,1.84-5.51-15.23,35.55-12.86,5.51,15.23-5.08,1.84-3.49-9.65-9.9,3.58Z"/><path class="cls-6" d="M789.97,736.06l-2.45-5.47,5.84-3.74-2.98-6.66-6.68,1.86-2.23-4.98,36.98-9.91,3.55,7.94-32.04,20.96ZM795.38,718.79l2.34,5.23,16.31-10.37-.04-.1-18.6,5.24Z"/><path class="cls-6" d="M814.22,751.81l-4.42,2.38c-5.32,2.87-9.8,1.85-12.57-3.28-2.77-5.13-1.16-9.43,4.16-12.3l17.3-9.33c5.32-2.87,9.8-1.85,12.57,3.28s1.16,9.43-4.16,12.3l-3.23,1.74-2.67-4.94,3.56-1.92c2.38-1.28,2.71-2.81,1.82-4.48-.9-1.66-2.36-2.22-4.74-.94l-17.96,9.69c-2.38,1.28-2.67,2.79-1.77,4.45.9,1.66,2.32,2.25,4.69.97l4.75-2.56,2.67,4.94Z"/><path class="cls-6" d="M809.63,771.33l-3.21-5,31.81-20.41,3.21,5-13.63,8.75,3.65,5.68,13.63-8.75,3.27,5.09-31.81,20.41-3.27-5.09,13.63-8.75-3.65-5.68-13.63,8.75Z"/><path class="cls-6" d="M843.64,797.54l14.83-21.8,3.93,4.81-10.51,14.36.07.08,16.18-7.42,3.58,4.39-24.32,10.17-9.7,7.92-3.76-4.6,9.7-7.92Z"/><path class="cls-6" d="M867.71,801.07c4.4-4.15,9.1-4.2,13.1.04,4,4.24,3.67,8.93-.73,13.08l-14.3,13.49c-4.4,4.15-9.1,4.2-13.1-.04-4-4.24-3.67-8.93.73-13.08l14.3-13.49ZM857.21,819.13c-1.96,1.85-1.9,3.42-.6,4.8,1.3,1.38,2.86,1.54,4.82-.32l14.85-14c1.96-1.85,1.9-3.42.6-4.8-1.3-1.38-2.86-1.54-4.82.32l-14.85,14Z"/><path class="cls-6" d="M895.51,816.34l-19.68,21.51c-1.82,1.99-1.6,3.51-.21,4.79s2.93,1.36,4.75-.63l19.68-21.51,4.14,3.79-19.43,21.23c-4.08,4.46-8.65,4.97-12.95,1.03s-4.2-8.53-.12-12.99l19.43-21.24,4.38,4.01Z"/><path class="cls-6" d="M895.71,866.01c.35-.96.54-1.56,2.45-3.98l3.67-4.67c2.17-2.76,2.04-4.51-.08-6.18l-1.61-1.27-9.51,12.09-4.67-3.67,23.37-29.7,7.04,5.54c4.84,3.81,5.15,7.69,1.54,12.27l-1.84,2.33c-2.4,3.06-4.92,4.24-7.76,3.58l-.07.08c1.57,2.81.59,5.62-1.84,8.72l-3.61,4.58c-1.14,1.44-1.93,2.54-2.33,4.01l-4.75-3.74ZM910.65,836.55l-7.18,9.12,1.83,1.44c1.74,1.37,3.4,1.44,5.27-.94l2.3-2.93c1.67-2.12,1.68-3.62.03-4.93l-2.25-1.77Z"/><path class="cls-6" d="M941,879.68l-2.65,4.27c-3.19,5.14-7.58,6.48-12.54,3.41-4.96-3.07-5.71-7.6-2.52-12.75l10.36-16.71c3.19-5.14,7.58-6.48,12.54-3.41,4.96,3.07,5.71,7.6,2.52,12.75l-1.94,3.12-4.77-2.96,2.13-3.44c1.42-2.29.95-3.79-.65-4.79-1.61-1-3.16-.75-4.58,1.54l-10.76,17.35c-1.42,2.29-.93,3.75.68,4.74s3.13.8,4.55-1.5l2.85-4.59,4.77,2.96Z"/><path class="cls-6" d="M954.37,870.46c2.8-5.36,7.23-6.95,12.4-4.25,5.17,2.7,6.39,7.24,3.59,12.6l-9.1,17.42c-2.8,5.36-7.23,6.95-12.4,4.25-5.17-2.7-6.39-7.24-3.59-12.6l9.1-17.42ZM950.35,890.97c-1.25,2.39-.67,3.85,1,4.73,1.68.88,3.2.52,4.45-1.88l9.45-18.09c1.25-2.39.67-3.85-1-4.73-1.68-.88-3.2-.52-4.45,1.88l-9.45,18.09Z"/><path class="cls-6" d="M981.19,903.08l.1.04,14.05-23.22,7.62,3.19-14.59,34.87-5.18-2.17,10.46-25.01-.1-.04-14.15,23.47-5.18-2.17,6.33-26.33-.1-.04-10.32,24.66-4.78-2,14.59-34.87,7.62,3.19-6.37,26.43Z"/><path class="cls-6" d="M1012.8,914.54l.1.03,11.74-24.46,7.89,2.44-11.16,36.11-5.37-1.66,8-25.9-.1-.03-11.82,24.72-5.37-1.66,3.77-26.81-.1-.03-7.89,25.54-4.95-1.53,11.16-36.11,7.89,2.44-3.8,26.92Z"/><path class="cls-6" d="M1044.47,895.26l-6.19,28.49c-.57,2.64.38,3.84,2.23,4.24s3.21-.3,3.79-2.94l6.19-28.49,5.49,1.19-6.11,28.12c-1.28,5.91-4.97,8.64-10.67,7.41-5.7-1.24-7.92-5.26-6.64-11.17l6.11-28.12,5.8,1.26Z"/><path class="cls-6" d="M1066.4,909.99h-.11s-3.74,27.11-3.74,27.11l-5.3-.73,5.17-37.45,7.38,1.02,2.84,23.24h.11s3.09-22.4,3.09-22.4l5.24.72-5.17,37.45-6.04-.83-3.48-28.12Z"/><path class="cls-6" d="M1088.48,902.08l5.92.45-2.88,37.69-5.92-.45,2.88-37.69Z"/><path class="cls-6" d="M1100.33,903l18.35.39-.11,5.4-6.21-.13-.69,32.39-5.94-.13.69-32.39-6.21-.13.12-5.4Z"/><path class="cls-6" d="M1130.9,928.26l-8.73-24.88,6.2-.3,5.32,16.99h.11s3.63-17.43,3.63-17.43l5.66-.28-6.26,25.61.61,12.51-5.93.29-.61-12.51Z"/><path class="cls-6" d="M1160.14,918.06l52.86-11.03.99,4.76-52.86,11.03-.99-4.76Z"/><path class="cls-6" d="M1242.53,896.97l-.1.04,5.46,19.5-7.58,3-17.83-33.59,5.37-2.13,13.89,26.56.1-.04-8.37-28.75,5.32-2.11,13.76,26.84.1-.04-8.24-29.03,4.82-1.91,10,36.69-7.33,2.9-9.37-17.95Z"/><path class="cls-6" d="M1276.08,904.13l-5.31,2.67-16.99-33.76,5.31-2.67,7.28,14.47,6.03-3.03-7.28-14.47,5.4-2.72,16.99,33.76-5.4,2.72-7.28-14.47-6.03,3.03,7.28,14.47Z"/><path class="cls-6" d="M1289.88,871.8l6.99-4.2,2.78,4.63-6.99,4.2,5.7,9.49,8.8-5.28,2.78,4.63-13.89,8.34-19.46-32.41,13.89-8.34,2.78,4.63-8.8,5.28,5.42,9.03Z"/><path class="cls-6" d="M1327.76,873.14c-.82-.61-1.34-.97-3.11-3.49l-3.42-4.86c-2.02-2.87-3.74-3.25-5.95-1.69l-1.68,1.18,8.86,12.59-4.86,3.42-21.76-30.91,7.33-5.16c5.03-3.54,8.85-2.73,12.2,2.04l1.71,2.43c2.24,3.18,2.65,5.93,1.2,8.46l.06.09c3.14-.69,5.55,1.04,7.82,4.27l3.36,4.77c1.06,1.5,1.88,2.57,3.17,3.38l-4.95,3.48ZM1303.81,850.37l6.68,9.49,1.9-1.34c1.81-1.27,2.36-2.85.62-5.32l-2.15-3.05c-1.55-2.21-2.99-2.65-4.71-1.44l-2.34,1.65Z"/><path class="cls-6" d="M1330.35,843.64l6.31-5.16,3.42,4.18-6.31,5.16,7.01,8.57,7.94-6.49,3.42,4.18-12.54,10.25-23.93-29.27,12.54-10.25,3.42,4.18-7.94,6.49,6.67,8.15Z"/><path class="cls-6" d="M1340.93,813.3l12.9-13.06,3.84,3.79-4.36,4.42,23.05,22.76-4.17,4.23-23.05-22.76-4.36,4.42-3.84-3.79Z"/><path class="cls-6" d="M1390.04,816.32l-3.85,4.52-28.76-24.52,3.85-4.52,12.33,10.51,4.38-5.14-12.33-10.51,3.92-4.6,28.76,24.52-3.92,4.6-12.33-10.51-4.38,5.14,12.33,10.51Z"/><path class="cls-6" d="M1390.22,781.16l4.82-6.58,4.36,3.19-4.82,6.58,8.93,6.54,6.06-8.28,4.36,3.19-9.57,13.07-30.5-22.32,9.57-13.07,4.36,3.19-6.06,8.28,8.5,6.22Z"/><path class="cls-6" d="M1411.41,766.87l-25.4-7.07,3.3-5.26,16.97,5.35.06-.09-12.21-12.95,3.01-4.8,17.42,19.78,10.61,6.66-3.16,5.03-10.61-6.66Z"/><path class="cls-6" d="M1447.82,725.82l-2.59,5.4-6.63-2.04-3.15,6.57,5.74,3.89-2.36,4.92-31.47-21.78,3.76-7.84,36.7,10.88ZM1431.15,732.86l2.47-5.16-18.45-5.73-.05.1,16.02,10.79Z"/><path class="cls-6" d="M1455.53,706.67c-1.02-.05-1.66-.06-4.52-1.18l-5.54-2.15c-3.27-1.27-4.91-.64-5.89,1.88l-.74,1.91,14.34,5.58-2.15,5.54-35.23-13.7,3.25-8.35c2.23-5.74,5.86-7.17,11.29-5.05l2.77,1.08c3.62,1.41,5.49,3.47,5.69,6.38l.1.04c2.23-2.32,5.2-2.21,8.88-.78l5.43,2.11c1.71.67,2.99,1.1,4.51,1.06l-2.19,5.64ZM1422.99,700.96l10.82,4.21.84-2.16c.8-2.06.39-3.67-2.43-4.77l-3.47-1.35c-2.52-.98-3.96-.55-4.72,1.41l-1.04,2.67Z"/><path class="cls-6" d="M1441.35,680.68l2.39-7.79,5.16,1.59-2.39,7.79,10.58,3.25,3.01-9.81,5.16,1.59-4.76,15.49-36.13-11.1,4.76-15.49,5.16,1.59-3.01,9.81,10.07,3.09Z"/><path class="cls-6" d="M1463.36,661.54l5.56,1.37-1.37,5.56-5.56-1.37,1.37-5.56Z"/><circle class="cls-3" cx="1116.47" cy="578.89" r="388.16"/><path class="cls-7" d="M910.61,362.87l-24.86,26.77,5.37,12.95-13.49,14.53-38.89-95.63.38-.42,98.28,31.67-13.53,14.57-13.27-4.44ZM894.3,357.46l-25.44-8.48,10.29,24.79,15.15-16.31Z"/><path class="cls-7" d="M985.64,272.62c14.12,24.54,7.1,48.45-18.48,63.16l-23.02,13.25-45.5-79.08,22.99-13.3c25.55-14.76,49.8-8.73,64,15.97ZM969.57,281.81c-8.53-14.82-23.25-18.38-38.91-9.37l-7.12,4.1,27.34,47.52,7.27-4.18c15.56-8.95,19.89-23.34,11.42-38.06Z"/><path class="cls-7" d="M1047.61,207.57l31.89-3.35c17.58-1.85,33.39,10.45,35.17,27.35,1.77,16.84-11.15,32.1-28.73,33.95l-13.63,1.43,3.1,29.52-18.25,1.92-9.54-90.81ZM1096.4,233.32c-.72-6.87-7.45-11.8-15-11.01l-13.63,1.43,2.64,25.13,13.64-1.38c7.55-.74,13.09-7.13,12.35-14.17Z"/><path class="cls-7" d="M1142.45,203.21l18.27,1.69-8.41,90.91-18.27-1.69,8.41-90.91Z"/><path class="cls-7" d="M1229.24,295.48l-5.01,17.54-52.93-15.13,25.09-87.79,17.65,5.04-20.08,70.25,35.29,10.09Z"/><path class="cls-7" d="M1251.91,273.37c13.95-22.21,43.42-28.99,65.53-15.1,22.12,13.89,28.86,43.41,14.92,65.62-13.83,22.02-43.29,28.67-65.45,14.76-22.07-13.86-28.83-43.25-15-65.27ZM1316.69,313.91c8.49-13.53,4.39-31.49-9.14-39.98-13.48-8.46-31.39-4.33-39.89,9.2-8.43,13.43-4.35,31.32,9.13,39.78,13.53,8.49,31.46,4.44,39.89-9Z"/><path class="cls-7" d="M1404.35,363.18l-14.99-16.69-54.41,48.85-12.3-13.7,54.41-48.85-15.02-16.73,13.53-12.15,42.31,47.12-13.53,12.15Z"/><circle class="cls-4" cx="1116.52" cy="578.88" r="269.1"/><path class="cls-2" d="M1529.7,579.05c0,228.51-185.26,413.76-413.76,413.76s-413.76-185.26-413.76-413.76,185.26-413.76,413.76-413.76,413.76,185.26,413.76,413.76Z"/><circle class="cls-1" cx="1116.52" cy="578.88" r="248.9"/><path class="cls-8" d="M1299.39,496.28c-2.56-4.68-6.4-8.52-11.08-11.08-1.03-.56-1.03-2.04,0-2.6,4.68-2.56,8.52-6.4,11.08-11.08.56-1.03,2.04-1.03,2.6,0,2.56,4.68,6.4,8.52,11.08,11.08,1.03.56,1.03,2.04,0,2.6-4.68,2.56-8.52,6.4-11.08,11.08-.56,1.03-2.04,1.03-2.6,0ZM1005.17,717.27c-2.56-4.68-6.4-8.52-11.08-11.08-1.03-.56-1.03-2.04,0-2.6,4.68-2.56,8.52-6.4,11.08-11.08.56-1.03,2.04-1.03,2.6,0,2.56,4.68,6.4,8.52,11.08,11.08,1.03.56,1.03,2.04,0,2.6-4.68,2.56-8.52,6.4-11.08,11.08-.56,1.03-2.04,1.03-2.6,0ZM1286.87,646.98h0c-5.49-10.04-13.74-18.29-23.78-23.78-2.05-1.12-2.05-4.07,0-5.2,10.04-5.49,18.29-13.74,23.78-23.78,1.12-2.05,4.07-2.05,5.2,0h0c5.49,10.04,13.74,18.29,23.78,23.78,2.05,1.12,2.05,4.07,0,5.2-10.04,5.49-18.29,13.74-23.78,23.78h0c-1.12,2.05-4.07,2.05-5.2,0ZM922.97,531.46h0c-3.92-7.16-9.8-13.05-16.97-16.97-1.47-.8-1.47-2.91,0-3.71,7.16-3.92,13.05-9.8,16.97-16.97.8-1.47,2.91-1.47,3.71,0h0c3.92,7.16,9.8,13.05,16.97,16.97,1.47.8,1.47,2.91,0,3.71-7.16,3.92-13.05,9.8-16.97,16.97h0c-.8,1.47-2.91,1.47-3.71,0ZM943.45,697.32c-2.56-4.68-6.4-8.52-11.08-11.08-1.03-.56-1.03-2.04,0-2.6,4.68-2.56,8.52-6.4,11.08-11.08.56-1.03,2.04-1.03,2.6,0,2.56,4.68,6.4,8.52,11.08,11.08,1.03.56,1.03,2.04,0,2.6-4.68,2.56-8.52,6.4-11.08,11.08-.56,1.03-2.04,1.03-2.6,0ZM956.6,441.17c-2.56-4.68-6.4-8.52-11.08-11.08-1.03-.56-1.03-2.04,0-2.6,4.68-2.56,8.52-6.4,11.08-11.08.56-1.03,2.04-1.03,2.6,0,2.56,4.68,6.4,8.52,11.08,11.08,1.03.56,1.03,2.04,0,2.6-4.68,2.56-8.52,6.4-11.08,11.08-.56,1.03-2.04,1.03-2.6,0ZM923.53,618.25c-2.56-4.68-6.4-8.52-11.08-11.08-1.03-.56-1.03-2.04,0-2.6,4.68-2.56,8.52-6.4,11.08-11.08.56-1.03,2.04-1.03,2.6,0,2.56,4.68,6.4,8.52,11.08,11.08,1.03.56,1.03,2.04,0,2.6-4.68,2.56-8.52,6.4-11.08,11.08-.56,1.03-2.04,1.03-2.6,0ZM1258.13,715.8c-2.56-4.68-6.4-8.52-11.08-11.08-1.03-.56-1.03-2.04,0-2.6,4.68-2.56,8.52-6.4,11.08-11.08.56-1.03,2.04-1.03,2.6,0,2.56,4.68,6.4,8.52,11.08,11.08,1.03.56,1.03,2.04,0,2.6-4.68,2.56-8.52,6.4-11.08,11.08-.56,1.03-2.04,1.03-2.6,0ZM1206.83,760.54c-2.56-4.68-6.4-8.52-11.08-11.08-1.03-.56-1.03-2.04,0-2.6,4.68-2.56,8.52-6.4,11.08-11.08.56-1.03,2.04-1.03,2.6,0,2.56,4.68,6.4,8.52,11.08,11.08,1.03.56,1.03,2.04,0,2.6-4.68,2.56-8.52,6.4-11.08,11.08-.56,1.03-2.04,1.03-2.6,0Z"/><path class="cls-7" d="M1211.39,667.88c-27.2,37.13-58.89,75.37-89.07,110.36-.91,1.06-4.92,5.9-5.69,5.77-1.59-1.37-3.1-2.85-4.5-4.4-20.09-22.25-41.05-49.35-60-72.96-57.72-71.88-124.25-153.93-73.09-249.66,66.93-125.22,252.7-103.7,288.49,33.58,18.47,70.87-16.49,123.21-56.12,177.31ZM1235.66,530.95c-.4-29.3-10-58.02-29.45-80-36.28-41.02-97.04-51.95-145.6-26.26-10.05-6.16-19.1-13.78-28.29-21.11-.57,12.98,1.68,25.72,3.98,38.38-35.72,32.33-48.01,85.82-30.42,130.89.57,1.46,4.83,11.02,5.37,11.33s1.45.15,1.98-.24c14.35-17.79,28.72-36.37,36.63-58.14,2.87-7.9,7.14-21.5,5.47-29.67-.47-2.3-4.31-6.76-5.65-9.35-6-11.55-9.5-24.49-10.22-37.5,3.33,3.55,7.42,6.37,11.94,8.17-2.09-4.41-4.4-8.81-5.97-13.46-2.47-7.34-4.31-15.62-4.25-23.36,15.65,11.99,32.43,20.86,51.67,25.71,44.39,11.17,91.73,14.06,109.74,65.49.88,2.52,3.2,13.72,3.75,14.32.94,1.02,15.2,6.2,18.02,7.55,7.03,3.35,15.66,8.19,21.68,13.09,1.5,1.23,7.99,7.26,8.54,8.51.5,1.17-.44.9-.93,1.08-17.5,6.57-38.3,6.93-56.67,8.12-1.81.12-7.76.66-8.91,1.32-2.94,1.68-11.48,12.19-13.91,15.41-13.11,17.33-18,36.79-19.8,58.27,33.86-10.63,62.92-35.35,75.01-69.2,12.1-1.48,23.31-6.79,35.45-7.85-1.81-15.36-17.21-24.24-29.18-31.5ZM1145.52,495.63c9.42-2.45,18.77,2.15,26.12,7.63,7.29,5.43,5.12,4.73,8.52,11.94.53,1.12,3.99,7.78,4.41,7.95,2.11.86,10.27-4.81,11.11-6.39,2.27-4.29-7.93-20.73-11.01-24.48-32.39-39.5-83.55-28.44-123.91-50.65-1.68-.93-9.53-7.13-10.7-6,3.57,13.5,12.44,25.09,23.18,33.75-8.55,1.08-16.05-3.97-23.86-6.48,5.05,19.28,25.31,41.31,44.98,46.04,3.44.83,10.58.73,12.98,1.68.5.2,4.41,4.53,7.51,5.79,2.01.82,15.8,4.49,17.41,4.49,2.38-.01,3.75-3.43,3.04-4.14-.12-.12-2.3-.18-3.27-.48-1.39-.44-4.18-.98-4.91-2.24,10.55-3.76,23.65-5.53,30.98,4.81,3.26,4.6,1.94,8.53,9.62,8.84,6.55.27,5.72-6.01,4.92-11.11-1.85-11.81-16.41-19.35-27.11-20.96ZM1150.12,517.56c-3.58.62-3.4,5.77-.71,6.57,6.49,1.95,6.94-7.65.71-6.57ZM1134.41,529.25c-5.16-4.11-28.18-5.14-33.42-.93-1.19.96-2.26,6.3-2.44,7.97-1.1,10.61,2.75,26.5,11.57,33.27,1.42,1.09,7.34,3.75,7.44,4.16.47,1.99-4.29,2.28-4.14,6.11.23,5.83,10.96,17.51,15.37,21.51,6.2,5.62,13.47,10.22,21.13,13.61,1.11-.24,2.35-7.72,2.9-9.39,3.95-12.03,10.4-23.58,18.62-33.2,2-2.34,8.82-7.71,8.82-10.14,0-1.64-1.72-7.56-2.56-9.11-3.63-6.7-10.8-5.63-17.19-4.98,3.49-3.62,8.88-9.93,2.7-13.94-5.19-3.37-11.11,4.85-18.68,3.67-6.12-.95-7.12-6.22-10.13-8.62ZM1093.54,582.38c-.37-.37-2.01-.41-2.83-.9-11.77-7.02-18.84-21.92-22.59-34.7-.52-1.78-.66-5.66-1.37-6.81-.41-.66-4.69-2.56-6.01-3.54-1.16-.86-5.01-5.31-5.91-4.65-5.43,15.98-14.88,30.21-24.95,43.58-2.03,2.7-12.81,14.55-13.14,16.25-.4,2.03,7.29,11.07,9.1,13.14,23.69,27.04,53.95,39.81,89.98,40.25,4.06.05,29.92-1.93,31.44-4.08.37-.52.79-8.79.39-9.28-.72-.87-5.73-2.63-7.36-3.6-13.86-8.18-38.13-27.58-45.57-41.7-.56-1.06-.77-3.54-1.18-3.94Z"/><path class="cls-6" d="M1093.54,582.38c.4.4.62,2.88,1.18,3.94,7.44,14.13,31.71,33.52,45.57,41.7,1.63.96,6.64,2.73,7.36,3.6.41.5-.02,8.76-.39,9.28-1.52,2.16-27.38,4.13-31.44,4.08-36.03-.45-66.29-13.21-89.98-40.25-1.81-2.06-9.49-11.1-9.1-13.14.33-1.7,11.11-13.56,13.14-16.25,10.08-13.37,19.52-27.6,24.95-43.58.9-.66,4.75,3.79,5.91,4.65,1.32.98,5.6,2.88,6.01,3.54.71,1.15.85,5.03,1.37,6.81,3.75,12.78,10.82,27.68,22.59,34.7.82.49,2.46.53,2.83.9Z"/><path class="cls-6" d="M1107.33,510.63c-2.39-.95-9.54-.86-12.98-1.68-19.66-4.73-39.93-26.76-44.98-46.04,7.81,2.51,15.31,7.55,23.86,6.48-10.74-8.66-19.61-20.26-23.18-33.75,1.16-1.13,9.01,5.07,10.7,6,40.36,22.21,91.52,11.15,123.91,50.65,3.08,3.75,13.28,20.19,11.01,24.48-.83,1.58-8.99,7.24-11.11,6.39-.42-.17-3.88-6.83-4.41-7.95-3.39-7.21-1.23-6.51-8.52-11.94-7.35-5.48-16.71-10.08-26.12-7.63-9.48-1.43-21.85,1.89-29.94,7.22-2.81,1.85-6.78,4.82-8.24,7.78Z"/><path class="cls-5" d="M1150.12,517.56c6.22-1.08,5.77,8.52-.71,6.57-2.69-.81-2.87-5.95.71-6.57Z"/></g></svg>