<?xml version="1.0" encoding="UTF-8"?><svg id="Capa_2" xmlns="http://www.w3.org/2000/svg" viewBox="0 0 2299.26 1253.92"><defs><style>.cls-1{fill:#3c4555;}.cls-2{fill:#09a9e7;}.cls-3{fill:#f9f9f9;}</style></defs><g id="Capa_1-2"><rect class="cls-1" width="2299.26" height="1253.92"/><path class="cls-2" d="M771.78,779.04c-.45-1.34-.74-2.16-.74-6.39v-8.18c0-4.83-1.64-6.62-5.35-6.62h-2.83v21.19h-8.18v-52.05h12.34c8.48,0,12.12,3.94,12.12,11.97v4.09c0,5.35-1.71,8.77-5.35,10.48v.15c4.09,1.71,5.43,5.58,5.43,11v8.03c0,2.53.07,4.39.89,6.32h-8.33ZM762.86,734.42v15.99h3.2c3.05,0,4.91-1.34,4.91-5.5v-5.13c0-3.72-1.26-5.35-4.16-5.35h-3.94Z"/><path class="cls-2" d="M792.75,748.92h11.23v7.44h-11.23v15.24h14.13v7.44h-22.31v-52.05h22.31v7.44h-14.13v14.5Z"/><path class="cls-2" d="M838.41,779.04h-8.25l-1.41-9.44h-10.04l-1.41,9.44h-7.51l8.33-52.05h11.97l8.33,52.05ZM819.74,762.53h7.88l-3.87-26.32h-.15l-3.87,26.32Z"/><path class="cls-2" d="M865.85,759.63v6.92c0,8.33-4.16,13.09-12.19,13.09s-12.19-4.76-12.19-13.09v-27.07c0-8.33,4.16-13.09,12.19-13.09s12.19,4.76,12.19,13.09v5.06h-7.73v-5.58c0-3.72-1.64-5.13-4.24-5.13s-4.24,1.41-4.24,5.13v28.11c0,3.72,1.64,5.06,4.24,5.06s4.24-1.34,4.24-5.06v-7.44h7.73Z"/><path class="cls-2" d="M879.01,779.04h-8.18v-52.05h8.18v22.31h9.29v-22.31h8.33v52.05h-8.33v-22.31h-9.29v22.31Z"/><path class="cls-2" d="M921.77,761.79l-10.33-34.8h8.55l6.17,23.72h.15l6.17-23.72h7.81l-10.33,34.8v17.25h-8.18v-17.25Z"/><path class="cls-2" d="M941.77,739.48c0-8.33,4.39-13.09,12.42-13.09s12.42,4.76,12.42,13.09v27.07c0,8.33-4.39,13.09-12.42,13.09s-12.42-4.76-12.42-13.09v-27.07ZM949.95,767.07c0,3.72,1.64,5.13,4.24,5.13s4.24-1.41,4.24-5.13v-28.11c0-3.72-1.64-5.13-4.24-5.13s-4.24,1.41-4.24,5.13v28.11Z"/><path class="cls-2" d="M979.7,726.99v40.15c0,3.72,1.64,5.06,4.24,5.06s4.24-1.34,4.24-5.06v-40.15h7.73v39.63c0,8.33-4.16,13.09-12.19,13.09s-12.19-4.76-12.19-13.09v-39.63h8.18Z"/><path class="cls-2" d="M1018.59,779.04c-.45-1.34-.74-2.16-.74-6.39v-8.18c0-4.83-1.64-6.62-5.35-6.62h-2.83v21.19h-8.18v-52.05h12.34c8.48,0,12.12,3.94,12.12,11.97v4.09c0,5.35-1.71,8.77-5.35,10.48v.15c4.09,1.71,5.43,5.58,5.43,11v8.03c0,2.53.07,4.39.89,6.32h-8.33ZM1009.66,734.42v15.99h3.2c3.05,0,4.91-1.34,4.91-5.5v-5.13c0-3.72-1.26-5.35-4.16-5.35h-3.94Z"/><path class="cls-2" d="M1066.62,759.63v6.92c0,8.33-4.16,13.09-12.19,13.09s-12.19-4.76-12.19-13.09v-27.07c0-8.33,4.16-13.09,12.19-13.09s12.19,4.76,12.19,13.09v5.06h-7.73v-5.58c0-3.72-1.64-5.13-4.24-5.13s-4.24,1.41-4.24,5.13v28.11c0,3.72,1.64,5.06,4.24,5.06s4.24-1.34,4.24-5.06v-7.44h7.73Z"/><path class="cls-2" d="M1070.94,739.48c0-8.33,4.39-13.09,12.42-13.09s12.42,4.76,12.42,13.09v27.07c0,8.33-4.39,13.09-12.42,13.09s-12.42-4.76-12.42-13.09v-27.07ZM1079.12,767.07c0,3.72,1.64,5.13,4.24,5.13s4.24-1.41,4.24-5.13v-28.11c0-3.72-1.64-5.13-4.24-5.13s-4.24,1.41-4.24,5.13v28.11Z"/><path class="cls-2" d="M1118.31,763.94h.15l5.5-36.96h11.38v52.05h-7.73v-37.33h-.15l-5.5,37.33h-7.73l-5.95-36.81h-.15v36.81h-7.14v-52.05h11.38l5.95,36.96Z"/><path class="cls-2" d="M1158.53,763.94h.15l5.5-36.96h11.38v52.05h-7.73v-37.33h-.15l-5.5,37.33h-7.73l-5.95-36.81h-.15v36.81h-7.14v-52.05h11.38l5.95,36.96Z"/><path class="cls-2" d="M1189.32,726.99v40.15c0,3.72,1.64,5.06,4.24,5.06s4.24-1.34,4.24-5.06v-40.15h7.73v39.63c0,8.33-4.16,13.09-12.19,13.09s-12.19-4.76-12.19-13.09v-39.63h8.18Z"/><path class="cls-2" d="M1218.55,741.34h-.15v37.7h-7.36v-52.05h10.26l8.25,31.16h.15v-31.16h7.29v52.05h-8.4l-10.04-37.7Z"/><path class="cls-2" d="M1242.86,726.99h8.18v52.05h-8.18v-52.05Z"/><path class="cls-2" d="M1254.61,726.99h25.28v7.44h-8.55v44.61h-8.18v-44.61h-8.55v-7.44Z"/><path class="cls-2" d="M1291.12,761.79l-10.33-34.8h8.55l6.17,23.72h.15l6.17-23.72h7.81l-10.33,34.8v17.25h-8.18v-17.25Z"/><path class="cls-2" d="M1321.46,749.67h74.36v6.69h-74.36v-6.69Z"/><path class="cls-2" d="M1428.54,751.3h-.15l-2.9,27.73h-11.23l-5.8-52.05h7.96l4.31,41.04h.15l3.87-41.04h7.88l4.01,41.34h.15l4.16-41.34h7.14l-5.8,52.05h-10.86l-2.9-27.73Z"/><path class="cls-2" d="M1460.37,779.04h-8.18v-52.05h8.18v22.31h9.29v-22.31h8.33v52.05h-8.33v-22.31h-9.29v22.31Z"/><path class="cls-2" d="M1492.12,748.92h11.23v7.44h-11.23v15.24h14.13v7.44h-22.31v-52.05h22.31v7.44h-14.13v14.5Z"/><path class="cls-2" d="M1528.41,779.04c-.45-1.34-.74-2.16-.74-6.39v-8.18c0-4.83-1.64-6.62-5.35-6.62h-2.83v21.19h-8.18v-52.05h12.34c8.48,0,12.12,3.94,12.12,11.97v4.09c0,5.35-1.71,8.77-5.35,10.48v.15c4.09,1.71,5.43,5.58,5.43,11v8.03c0,2.53.07,4.39.89,6.32h-8.33ZM1519.49,734.42v15.99h3.2c3.05,0,4.91-1.34,4.91-5.5v-5.13c0-3.72-1.26-5.35-4.16-5.35h-3.94Z"/><path class="cls-2" d="M1549.38,748.92h11.23v7.44h-11.23v15.24h14.13v7.44h-22.31v-52.05h22.31v7.44h-14.13v14.5Z"/><path class="cls-2" d="M1577.71,726.99h25.28v7.44h-8.55v44.61h-8.18v-44.61h-8.55v-7.44Z"/><path class="cls-2" d="M1614.74,779.04h-8.18v-52.05h8.18v22.31h9.29v-22.31h8.33v52.05h-8.33v-22.31h-9.29v22.31Z"/><path class="cls-2" d="M1646.49,748.92h11.23v7.44h-11.23v15.24h14.13v7.44h-22.31v-52.05h22.31v7.44h-14.13v14.5Z"/><path class="cls-2" d="M1673.34,761.79l-10.33-34.8h8.55l6.17,23.72h.15l6.17-23.72h7.81l-10.33,34.8v17.25h-8.18v-17.25Z"/><path class="cls-2" d="M1733.13,779.04h-8.25l-1.41-9.44h-10.04l-1.41,9.44h-7.51l8.33-52.05h11.97l8.33,52.05ZM1714.46,762.53h7.88l-3.87-26.32h-.15l-3.87,26.32Z"/><path class="cls-2" d="M1754.02,779.04c-.45-1.34-.74-2.16-.74-6.39v-8.18c0-4.83-1.64-6.62-5.35-6.62h-2.83v21.19h-8.18v-52.05h12.34c8.48,0,12.12,3.94,12.12,11.97v4.09c0,5.35-1.71,8.77-5.35,10.48v.15c4.09,1.71,5.43,5.58,5.43,11v8.03c0,2.53.07,4.39.89,6.32h-8.33ZM1745.1,734.42v15.99h3.2c3.05,0,4.91-1.34,4.91-5.5v-5.13c0-3.72-1.26-5.35-4.16-5.35h-3.94Z"/><path class="cls-2" d="M1774.99,748.92h11.23v7.44h-11.23v15.24h14.13v7.44h-22.31v-52.05h22.31v7.44h-14.13v14.5Z"/><path class="cls-2" d="M1802.06,771.16v7.88h-7.88v-7.88h7.88Z"/><path class="cls-3" d="M897.44,670.24h-83.67l-13.36,29.19h-45.4l99.88-214.29h1.3l100.01,214.29h-45.53l-13.23-29.19ZM881.09,634.44l-25.42-55.91-25.55,55.91h50.98Z"/><path class="cls-3" d="M1117.82,485.4v214.03h-36.32l-1.69-16.99c-11.93,14.4-29.06,22.31-49.68,22.31-47.99,0-75.75-42.16-75.75-82.89,0-45.66,32.17-83.15,76.14-83.15,19.46,0,36.32,7.13,48.38,21.01v-74.33h38.91ZM1078.91,621.47c0-26.59-19.98-42.81-41.9-42.81-24.13,0-42.68,19.72-42.68,42.68s16.6,43.45,42.68,43.45c23.74,0,41.9-17.9,41.9-43.32Z"/><path class="cls-3" d="M1230.67,490.32h73.42c40.47,0,73.55,31.78,73.55,70.69s-33.08,70.44-73.55,70.44h-31.39v67.97h-42.03v-209.1ZM1335.61,560.63c0-15.83-14.14-28.67-31.52-28.67h-31.39v57.85l31.39.13c17.38.13,31.52-13.1,31.52-29.32Z"/><path class="cls-3" d="M1399.95,502.39c0-12.45,10.12-22.57,22.57-22.57s22.57,10.12,22.57,22.57-10.12,22.57-22.57,22.57-22.57-10.12-22.57-22.57ZM1402.54,543.77h39.95v155.66h-39.95v-155.66Z"/><path class="cls-3" d="M1478.81,485.4h39.95v214.03h-39.95v-214.03Z"/><path class="cls-3" d="M1544.06,621.6c0-45.79,37.1-83.02,83.15-83.02s82.89,37.23,82.89,83.02-37.1,83.02-82.89,83.02-83.15-37.1-83.15-83.02ZM1670.14,621.6c0-23.74-19.2-43.07-42.94-43.07s-43.2,19.33-43.2,43.07,19.2,43.07,43.2,43.07,42.94-19.2,42.94-43.07Z"/><path class="cls-3" d="M1744.34,647.28v-64.6h-20.75v-36.32h4.93c11.42,0,18.42-7.52,18.42-19.72v-14.01h37.36v31.13h31.13v38.91h-31.13v64.6c0,10.38,3.24,16.47,13.23,16.47,4.67,0,11.03-1.3,17.9-3.24v36.84c-7.91,2.59-22.7,4.67-31.39,4.67-26.07,0-39.69-18.81-39.69-54.74Z"/><path class="cls-3" d="M697.49,690.18c-23.03,31.44-49.86,63.82-75.42,93.44-.77.89-4.17,5-4.82,4.88-1.34-1.16-2.63-2.42-3.81-3.73-17.01-18.84-34.76-41.79-50.81-61.77-48.87-60.86-105.21-130.34-61.89-211.39,56.67-106.03,213.97-87.81,244.27,28.43,15.64,60.01-13.96,104.33-47.52,150.14ZM718.05,574.23c-.33-24.81-8.47-49.12-24.93-67.74-30.72-34.73-82.17-43.99-123.28-22.23-8.51-5.21-16.17-11.66-23.95-17.88-.48,10.99,1.42,21.78,3.37,32.5-30.24,27.37-40.65,72.67-25.76,110.83.48,1.23,4.09,9.33,4.55,9.59s1.23.13,1.68-.2c12.15-15.07,24.32-30.8,31.02-49.23,2.43-6.69,6.04-18.2,4.63-25.13-.4-1.95-3.65-5.72-4.79-7.91-5.08-9.78-8.04-20.74-8.65-31.75,2.82,3,6.29,5.39,10.11,6.91-1.77-3.73-3.73-7.46-5.05-11.39-2.09-6.21-3.65-13.23-3.6-19.78,13.25,10.15,27.46,17.67,43.75,21.77,37.59,9.46,77.67,11.9,92.93,55.45.75,2.13,2.71,11.62,3.18,12.13.8.86,12.87,5.25,15.26,6.39,5.95,2.84,13.26,6.94,18.36,11.09,1.27,1.04,6.77,6.14,7.23,7.21.43.99-.37.76-.79.92-14.82,5.56-32.43,5.87-47.99,6.87-1.53.1-6.57.56-7.54,1.12-2.49,1.43-9.72,10.32-11.78,13.05-11.1,14.67-15.24,31.15-16.76,49.34,28.67-9,53.27-29.94,63.51-58.59,10.25-1.25,19.74-5.75,30.02-6.65-1.54-13.01-14.57-20.53-24.71-26.67ZM641.72,544.33c7.97-2.07,15.89,1.82,22.12,6.46,6.17,4.6,4.34,4.01,7.21,10.11.45.95,3.38,6.59,3.73,6.73,1.79.72,8.7-4.07,9.41-5.41,1.92-3.63-6.72-17.55-9.32-20.73-27.42-33.45-70.74-24.08-104.92-42.88-1.43-.79-8.07-6.04-9.06-5.08,3.02,11.43,10.53,21.24,19.62,28.58-7.24.91-13.59-3.36-20.2-5.49,4.28,16.33,21.43,34.98,38.08,38.99,2.91.7,8.96.62,10.99,1.42.43.17,3.74,3.84,6.36,4.9,1.7.69,13.38,3.8,14.74,3.8,2.02,0,3.18-2.9,2.58-3.5-.1-.1-1.95-.15-2.77-.41-1.18-.37-3.54-.83-4.16-1.9,8.93-3.18,20.03-4.69,26.23,4.07,2.76,3.89,1.65,7.22,8.14,7.49,5.54.23,4.84-5.09,4.17-9.41-1.56-10-13.89-16.38-22.96-17.75ZM645.61,562.89c-3.03.53-2.88,4.88-.6,5.57,5.49,1.65,5.87-6.48.6-5.57ZM632.31,572.79c-4.37-3.48-23.86-4.35-28.3-.79-1.01.81-1.92,5.33-2.06,6.75-.93,8.98,2.33,22.43,9.79,28.17,1.2.93,6.22,3.17,6.3,3.52.4,1.69-3.63,1.93-3.51,5.17.19,4.94,9.28,14.83,13.02,18.22,5.25,4.76,11.4,8.66,17.89,11.53.94-.2,1.99-6.54,2.46-7.95,3.35-10.19,8.8-19.96,15.77-28.11,1.7-1.99,7.46-6.53,7.47-8.59,0-1.38-1.46-6.4-2.17-7.71-3.07-5.67-9.14-4.77-14.55-4.22,2.96-3.06,7.52-8.41,2.29-11.8-4.39-2.85-9.41,4.11-15.82,3.11-5.18-.8-6.03-5.26-8.57-7.29ZM597.71,617.78c-.31-.31-1.7-.35-2.4-.76-9.97-5.95-15.95-18.56-19.13-29.38-.44-1.51-.56-4.8-1.16-5.77-.34-.56-3.97-2.17-5.09-3-.98-.73-4.24-4.5-5-3.94-4.6,13.53-12.6,25.58-21.13,36.9-1.72,2.28-10.84,12.32-11.12,13.76-.34,1.72,6.17,9.37,7.7,11.12,20.06,22.9,45.68,33.7,76.19,34.08,3.44.04,25.34-1.63,26.62-3.46.31-.44.67-7.44.33-7.86-.61-.74-4.85-2.23-6.23-3.04-11.73-6.93-32.29-23.35-38.59-35.31-.47-.9-.65-3-.99-3.34Z"/><path class="cls-2" d="M597.71,617.78c.34.34.52,2.44.99,3.34,6.3,11.96,26.85,28.38,38.59,35.31,1.38.82,5.63,2.31,6.23,3.04.35.42-.02,7.42-.33,7.86-1.28,1.83-23.18,3.5-26.62,3.46-30.51-.38-56.13-11.18-76.19-34.08-1.53-1.75-8.04-9.4-7.7-11.12.28-1.44,9.4-11.48,11.12-13.76,8.53-11.32,16.53-23.37,21.13-36.9.76-.56,4.02,3.21,5,3.94,1.12.83,4.74,2.44,5.09,3,.6.97.72,4.26,1.16,5.77,3.18,10.82,9.16,23.43,19.13,29.38.7.42,2.09.45,2.4.76Z"/><path class="cls-2" d="M609.38,557.03c-2.03-.81-8.07-.72-10.99-1.42-16.65-4.01-33.81-22.66-38.08-38.99,6.61,2.12,12.96,6.4,20.2,5.49-9.09-7.33-16.6-17.15-19.62-28.58.99-.96,7.63,4.3,9.06,5.08,34.17,18.81,77.49,9.44,104.92,42.88,2.6,3.18,11.25,17.09,9.32,20.73-.71,1.33-7.62,6.13-9.41,5.41-.36-.14-3.29-5.78-3.73-6.73-2.87-6.1-1.04-5.51-7.21-10.11-6.23-4.64-14.15-8.53-22.12-6.46-8.03-1.21-18.5,1.6-25.35,6.11-2.38,1.57-5.74,4.09-6.98,6.59Z"/><path class="cls-1" d="M645.61,562.89c5.27-.91,4.89,7.22-.6,5.57-2.28-.68-2.43-5.04.6-5.57Z"/></g></svg>