<?xml version="1.0" encoding="UTF-8"?><svg id="Capa_2" xmlns="http://www.w3.org/2000/svg" viewBox="0 0 666.46 666.46"><defs><style>.cls-1{fill:#3c4555;}.cls-2{fill:#fdfdfc;}.cls-3{fill:#09a9e7;}.cls-4{fill:#f9f9f9;}.cls-5{opacity:0;}</style></defs><g id="Capa_1-2"><g class="cls-5"><rect class="cls-4" width="666.46" height="666.46"/></g><path class="cls-1" d="M461.25,453.78c-35.18,48.03-76.18,97.5-115.22,142.75-1.18,1.37-6.37,7.64-7.36,7.46-2.05-1.77-4.01-3.69-5.82-5.7-25.99-28.79-53.1-63.83-77.62-94.37-74.66-92.98-160.73-199.12-94.55-322.95C247.25,18.99,487.56,46.83,533.85,224.42c23.9,91.68-21.33,159.38-72.6,229.37ZM492.65,276.65c-.51-37.9-12.94-75.05-38.09-103.48-46.93-53.06-125.52-67.2-188.34-33.97-13.01-7.96-24.71-17.82-36.59-27.31-.74,16.79,2.17,33.27,5.15,49.65-46.2,41.82-62.11,111.01-39.35,169.32.74,1.89,6.25,14.25,6.95,14.65.7.4,1.88.19,2.56-.31,18.57-23.02,37.16-47.05,47.39-75.21,3.71-10.21,9.23-27.81,7.08-38.38-.61-2.98-5.57-8.74-7.31-12.09-7.76-14.94-12.28-31.68-13.22-48.51,4.31,4.59,9.6,8.23,15.44,10.56-2.7-5.7-5.7-11.4-7.72-17.41-3.2-9.49-5.58-20.2-5.5-30.22,20.24,15.5,41.95,26.99,66.84,33.26,57.42,14.45,118.65,18.18,141.96,84.72,1.14,3.26,4.14,17.75,4.86,18.52,1.21,1.32,19.66,8.02,23.31,9.76,9.09,4.34,20.26,10.6,28.04,16.94,1.95,1.59,10.34,9.39,11.04,11.01.65,1.51-.57,1.16-1.2,1.4-22.64,8.5-49.54,8.96-73.31,10.5-2.34.15-10.04.86-11.52,1.71-3.81,2.18-14.85,15.77-18,19.93-16.96,22.42-23.28,47.59-25.61,75.37,43.8-13.75,81.39-45.73,97.03-89.51,15.65-1.92,30.15-8.78,45.86-10.16-2.35-19.87-22.26-31.36-37.75-40.75ZM376.04,230.96c12.18-3.17,24.28,2.78,33.79,9.87,9.42,7.02,6.63,6.12,11.02,15.44.68,1.45,5.16,10.07,5.7,10.29,2.73,1.11,13.29-6.22,14.37-8.26,2.94-5.55-10.26-26.82-14.24-31.67-41.89-51.1-108.07-36.78-160.28-65.51-2.18-1.2-12.33-9.22-13.84-7.76,4.62,17.46,16.09,32.45,29.98,43.66-11.06,1.39-20.76-5.13-30.86-8.38,6.53,24.94,32.74,53.44,58.18,59.56,4.45,1.07,13.69.94,16.79,2.18.65.26,5.71,5.86,9.71,7.49,2.6,1.05,20.44,5.81,22.52,5.8,3.08-.01,4.86-4.43,3.94-5.35-.15-.15-2.97-.23-4.23-.63-1.8-.57-5.41-1.27-6.36-2.9,13.64-4.86,30.6-7.16,40.07,6.22,4.21,5.95,2.51,11.03,12.44,11.44,8.47.35,7.4-7.77,6.37-14.37-2.39-15.28-21.23-25.02-35.07-27.11ZM381.99,259.33c-4.64.8-4.4,7.46-.92,8.51,8.39,2.52,8.97-9.9.92-8.51ZM361.67,274.44c-6.67-5.32-36.45-6.65-43.23-1.2-1.54,1.24-2.93,8.15-3.15,10.31-1.43,13.73,3.56,34.27,14.96,43.03,1.84,1.41,9.5,4.84,9.62,5.38.61,2.58-5.55,2.94-5.36,7.9.29,7.54,14.18,22.65,19.89,27.83,8.02,7.27,17.42,13.22,27.33,17.61,1.44-.31,3.04-9.99,3.75-12.15,5.11-15.56,13.45-30.5,24.09-42.94,2.59-3.03,11.4-9.97,11.41-13.12,0-2.12-2.23-9.78-3.31-11.78-4.69-8.66-13.97-7.28-22.23-6.44,4.52-4.68,11.49-12.84,3.49-18.03-6.71-4.35-14.37,6.27-24.17,4.75-7.91-1.23-9.2-8.04-13.1-11.14ZM308.8,343.18c-.48-.48-2.6-.53-3.66-1.17-15.23-9.09-24.36-28.35-29.22-44.89-.68-2.3-.85-7.33-1.77-8.81-.52-.85-6.07-3.31-7.77-4.58-1.5-1.11-6.48-6.87-7.64-6.02-7.03,20.67-19.24,39.07-32.28,56.37-2.63,3.49-16.57,18.82-17,21.02-.51,2.63,9.43,14.32,11.77,16.99,30.65,34.98,69.78,51.49,116.39,52.07,5.25.06,38.7-2.49,40.67-5.28.48-.68,1.03-11.36.5-12.01-.93-1.12-7.41-3.41-9.52-4.65-17.92-10.58-49.32-35.67-58.95-53.95-.72-1.37-1-4.58-1.52-5.1Z"/><path class="cls-3" d="M308.8,343.18c.52.52.8,3.73,1.52,5.1,9.63,18.28,41.02,43.36,58.95,53.95,2.11,1.25,8.6,3.53,9.52,4.65.53.64-.02,11.33-.5,12.01-1.96,2.79-35.41,5.35-40.67,5.28-46.61-.58-85.74-17.08-116.39-52.07-2.34-2.67-12.28-14.36-11.77-16.99.43-2.2,14.37-17.53,17-21.02,13.03-17.3,25.25-35.7,32.28-56.37,1.16-.85,6.14,4.91,7.64,6.02,1.71,1.26,7.25,3.73,7.77,4.58.92,1.49,1.09,6.51,1.77,8.81,4.85,16.54,13.99,35.8,29.22,44.89,1.06.64,3.19.69,3.66,1.17Z"/><path class="cls-3" d="M326.64,250.37c-3.09-1.23-12.33-1.11-16.79-2.18-25.44-6.12-51.65-34.62-58.18-59.56,10.1,3.25,19.8,9.77,30.86,8.38-13.89-11.2-25.36-26.2-29.98-43.66,1.51-1.46,11.66,6.56,13.84,7.76,52.21,28.73,118.39,14.42,160.28,65.51,3.98,4.85,17.18,26.11,14.24,31.67-1.08,2.04-11.64,9.37-14.37,8.26-.55-.22-5.02-8.84-5.7-10.29-4.39-9.32-1.59-8.42-11.02-15.44-9.51-7.09-21.61-13.03-33.79-9.87-12.27-1.85-28.27,2.45-38.73,9.34-3.63,2.39-8.77,6.24-10.66,10.06Z"/><path class="cls-2" d="M381.99,259.33c8.05-1.4,7.47,11.02-.92,8.51-3.48-1.04-3.71-7.7.92-8.51Z"/></g></svg>