<?xml version="1.0" encoding="UTF-8"?><svg id="Capa_2" xmlns="http://www.w3.org/2000/svg" viewBox="0 0 2299.26 1253.92"><defs><style>.cls-1{fill:#3c4555;}.cls-2{fill:#fdfdfc;}.cls-3{fill:#09a9e7;}.cls-4{fill:#f9f9f9;}.cls-5{opacity:0;}</style></defs><g id="Capa_1-2"><g class="cls-5"><rect class="cls-4" y="0" width="2299.26" height="1253.92"/></g><path class="cls-3" d="M727.53,1044.52c-.34-1.02-.57-1.64-.57-4.87v-6.23c0-3.68-1.25-5.04-4.08-5.04h-2.15v16.14h-6.23v-39.64h9.4c6.46,0,9.23,3,9.23,9.12v3.11c0,4.08-1.3,6.68-4.08,7.98v.11c3.11,1.3,4.13,4.25,4.13,8.38v6.12c0,1.93.06,3.34.68,4.81h-6.34ZM720.73,1010.55v12.17h2.43c2.32,0,3.74-1.02,3.74-4.19v-3.91c0-2.83-.96-4.08-3.17-4.08h-3Z"/><path class="cls-3" d="M743.5,1021.59h8.55v5.66h-8.55v11.61h10.76v5.66h-16.99v-39.64h16.99v5.66h-10.76v11.04Z"/><path class="cls-3" d="M778.26,1044.52h-6.29l-1.08-7.19h-7.64l-1.08,7.19h-5.72l6.34-39.64h9.12l6.34,39.64ZM764.05,1031.95h6l-2.94-20.05h-.11l-2.94,20.05Z"/><path class="cls-3" d="M799.16,1029.74v5.27c0,6.34-3.17,9.97-9.29,9.97s-9.29-3.62-9.29-9.97v-20.61c0-6.34,3.17-9.97,9.29-9.97s9.29,3.62,9.29,9.97v3.85h-5.89v-4.25c0-2.83-1.25-3.91-3.23-3.91s-3.23,1.08-3.23,3.91v21.4c0,2.83,1.25,3.85,3.23,3.85s3.23-1.02,3.23-3.85v-5.66h5.89Z"/><path class="cls-3" d="M809.18,1044.52h-6.23v-39.64h6.23v16.99h7.08v-16.99h6.34v39.64h-6.34v-16.99h-7.08v16.99Z"/><path class="cls-3" d="M841.75,1031.38l-7.87-26.5h6.51l4.7,18.06h.11l4.7-18.06h5.95l-7.87,26.5v13.14h-6.23v-13.14Z"/><path class="cls-3" d="M856.98,1014.4c0-6.34,3.34-9.97,9.46-9.97s9.46,3.62,9.46,9.97v20.61c0,6.34-3.34,9.97-9.46,9.97s-9.46-3.62-9.46-9.97v-20.61ZM863.21,1035.41c0,2.83,1.25,3.91,3.23,3.91s3.23-1.08,3.23-3.91v-21.4c0-2.83-1.25-3.91-3.23-3.91s-3.23,1.08-3.23,3.91v21.4Z"/><path class="cls-3" d="M885.86,1004.88v30.58c0,2.83,1.25,3.85,3.23,3.85s3.23-1.02,3.23-3.85v-30.58h5.89v30.18c0,6.34-3.17,9.97-9.29,9.97s-9.29-3.62-9.29-9.97v-30.18h6.23Z"/><path class="cls-3" d="M915.47,1044.52c-.34-1.02-.57-1.64-.57-4.87v-6.23c0-3.68-1.25-5.04-4.08-5.04h-2.15v16.14h-6.23v-39.64h9.4c6.46,0,9.23,3,9.23,9.12v3.11c0,4.08-1.3,6.68-4.08,7.98v.11c3.12,1.3,4.13,4.25,4.13,8.38v6.12c0,1.93.06,3.34.68,4.81h-6.34ZM908.68,1010.55v12.17h2.43c2.32,0,3.74-1.02,3.74-4.19v-3.91c0-2.83-.96-4.08-3.17-4.08h-3Z"/><path class="cls-3" d="M952.06,1029.74v5.27c0,6.34-3.17,9.97-9.29,9.97s-9.29-3.62-9.29-9.97v-20.61c0-6.34,3.17-9.97,9.29-9.97s9.29,3.62,9.29,9.97v3.85h-5.89v-4.25c0-2.83-1.25-3.91-3.23-3.91s-3.23,1.08-3.23,3.91v21.4c0,2.83,1.25,3.85,3.23,3.85s3.23-1.02,3.23-3.85v-5.66h5.89Z"/><path class="cls-3" d="M955.34,1014.4c0-6.34,3.34-9.97,9.46-9.97s9.46,3.62,9.46,9.97v20.61c0,6.34-3.34,9.97-9.46,9.97s-9.46-3.62-9.46-9.97v-20.61ZM961.57,1035.41c0,2.83,1.25,3.91,3.23,3.91s3.23-1.08,3.23-3.91v-21.4c0-2.83-1.25-3.91-3.23-3.91s-3.23,1.08-3.23,3.91v21.4Z"/><path class="cls-3" d="M991.41,1033.03h.11l4.19-28.14h8.66v39.64h-5.89v-28.43h-.11l-4.19,28.43h-5.89l-4.53-28.03h-.11v28.03h-5.44v-39.64h8.66l4.53,28.14Z"/><path class="cls-3" d="M1022.05,1033.03h.11l4.19-28.14h8.66v39.64h-5.89v-28.43h-.11l-4.19,28.43h-5.89l-4.53-28.03h-.11v28.03h-5.44v-39.64h8.66l4.53,28.14Z"/><path class="cls-3" d="M1045.49,1004.88v30.58c0,2.83,1.25,3.85,3.23,3.85s3.23-1.02,3.23-3.85v-30.58h5.89v30.18c0,6.34-3.17,9.97-9.29,9.97s-9.29-3.62-9.29-9.97v-30.18h6.23Z"/><path class="cls-3" d="M1067.75,1015.81h-.11v28.71h-5.61v-39.64h7.81l6.29,23.73h.11v-23.73h5.55v39.64h-6.4l-7.64-28.71Z"/><path class="cls-3" d="M1086.26,1004.88h6.23v39.64h-6.23v-39.64Z"/><path class="cls-3" d="M1095.21,1004.88h19.25v5.66h-6.51v33.98h-6.23v-33.98h-6.51v-5.66Z"/><path class="cls-3" d="M1123.01,1031.38l-7.87-26.5h6.51l4.7,18.06h.11l4.7-18.06h5.95l-7.87,26.5v13.14h-6.23v-13.14Z"/><path class="cls-3" d="M1146.12,1022.15h56.62v5.1h-56.62v-5.1Z"/><path class="cls-3" d="M1227.66,1023.4h-.11l-2.21,21.12h-8.55l-4.42-39.64h6.06l3.28,31.26h.11l2.94-31.26h6l3.06,31.48h.11l3.17-31.48h5.44l-4.42,39.64h-8.27l-2.21-21.12Z"/><path class="cls-3" d="M1251.9,1044.52h-6.23v-39.64h6.23v16.99h7.08v-16.99h6.34v39.64h-6.34v-16.99h-7.08v16.99Z"/><path class="cls-3" d="M1276.08,1021.59h8.55v5.66h-8.55v11.61h10.76v5.66h-16.99v-39.64h16.99v5.66h-10.76v11.04Z"/><path class="cls-3" d="M1303.71,1044.52c-.34-1.02-.57-1.64-.57-4.87v-6.23c0-3.68-1.25-5.04-4.08-5.04h-2.15v16.14h-6.23v-39.64h9.4c6.46,0,9.23,3,9.23,9.12v3.11c0,4.08-1.3,6.68-4.08,7.98v.11c3.12,1.3,4.13,4.25,4.13,8.38v6.12c0,1.93.06,3.34.68,4.81h-6.34ZM1296.92,1010.55v12.17h2.43c2.32,0,3.74-1.02,3.74-4.19v-3.91c0-2.83-.96-4.08-3.17-4.08h-3Z"/><path class="cls-3" d="M1319.68,1021.59h8.55v5.66h-8.55v11.61h10.76v5.66h-16.99v-39.64h16.99v5.66h-10.76v11.04Z"/><path class="cls-3" d="M1341.26,1004.88h19.25v5.66h-6.51v33.98h-6.23v-33.98h-6.51v-5.66Z"/><path class="cls-3" d="M1369.46,1044.52h-6.23v-39.64h6.23v16.99h7.08v-16.99h6.34v39.64h-6.34v-16.99h-7.08v16.99Z"/><path class="cls-3" d="M1393.64,1021.59h8.55v5.66h-8.55v11.61h10.76v5.66h-16.99v-39.64h16.99v5.66h-10.76v11.04Z"/><path class="cls-3" d="M1414.08,1031.38l-7.87-26.5h6.51l4.7,18.06h.11l4.7-18.06h5.95l-7.87,26.5v13.14h-6.23v-13.14Z"/><path class="cls-3" d="M1459.61,1044.52h-6.29l-1.08-7.19h-7.64l-1.08,7.19h-5.72l6.34-39.64h9.12l6.34,39.64ZM1445.4,1031.95h6l-2.94-20.05h-.11l-2.94,20.05Z"/><path class="cls-3" d="M1475.52,1044.52c-.34-1.02-.57-1.64-.57-4.87v-6.23c0-3.68-1.25-5.04-4.08-5.04h-2.15v16.14h-6.23v-39.64h9.4c6.46,0,9.23,3,9.23,9.12v3.11c0,4.08-1.3,6.68-4.08,7.98v.11c3.12,1.3,4.13,4.25,4.13,8.38v6.12c0,1.93.06,3.34.68,4.81h-6.34ZM1468.73,1010.55v12.17h2.43c2.32,0,3.74-1.02,3.74-4.19v-3.91c0-2.83-.96-4.08-3.17-4.08h-3Z"/><path class="cls-3" d="M1491.49,1021.59h8.55v5.66h-8.55v11.61h10.76v5.66h-16.99v-39.64h16.99v5.66h-10.76v11.04Z"/><path class="cls-3" d="M1512.11,1038.52v6h-6v-6h6Z"/><path class="cls-1" d="M818.78,962.73h-63.16l-10.08,22.03h-34.27l75.39-161.76h.98l75.49,161.76h-34.37l-9.99-22.03ZM806.45,935.71l-19.19-42.2-19.29,42.2h38.48Z"/><path class="cls-1" d="M985.15,823.2v161.56h-27.42l-1.27-12.83c-9.01,10.87-21.93,16.84-37.5,16.84-36.23,0-57.18-31.82-57.18-62.57,0-34.47,24.28-62.76,57.48-62.76,14.69,0,27.42,5.39,36.52,15.86v-56.11h29.38ZM955.77,925.92c0-20.07-15.08-32.31-31.63-32.31-18.21,0-32.21,14.88-32.21,32.21s12.53,32.8,32.21,32.8c17.92,0,31.63-13.51,31.63-32.7Z"/><path class="cls-1" d="M1070.34,826.92h55.42c30.55,0,55.52,23.99,55.52,53.36s-24.97,53.17-55.52,53.17h-23.7v51.31h-31.72v-157.84ZM1149.55,879.99c0-11.95-10.67-21.64-23.79-21.64h-23.7v43.67l23.7.1c13.12.1,23.79-9.89,23.79-22.13Z"/><path class="cls-1" d="M1198.12,836.03c0-9.4,7.64-17.04,17.04-17.04s17.04,7.64,17.04,17.04-7.64,17.04-17.04,17.04-17.04-7.64-17.04-17.04ZM1200.08,867.26h30.16v117.5h-30.16v-117.5Z"/><path class="cls-1" d="M1257.66,823.2h30.16v161.56h-30.16v-161.56Z"/><path class="cls-1" d="M1306.91,926.01c0-34.56,28-62.67,62.76-62.67s62.57,28.1,62.57,62.67-28,62.67-62.57,62.67-62.76-28-62.76-62.67ZM1402.08,926.01c0-17.92-14.49-32.51-32.41-32.51s-32.61,14.59-32.61,32.51,14.49,32.51,32.61,32.51,32.41-14.49,32.41-32.51Z"/><path class="cls-1" d="M1458.1,945.4v-48.76h-15.67v-27.42h3.72c8.62,0,13.9-5.68,13.9-14.88v-10.57h28.2v23.5h23.5v29.38h-23.5v48.76c0,7.83,2.45,12.44,9.99,12.44,3.52,0,8.32-.98,13.51-2.45v27.81c-5.97,1.96-17.13,3.52-23.7,3.52-19.68,0-29.96-14.2-29.96-41.32Z"/><path class="cls-1" d="M1234.39,614.22c-40.38,55.12-87.43,111.91-132.25,163.85-1.35,1.57-7.31,8.77-8.45,8.56-2.35-2.03-4.61-4.23-6.69-6.54-29.83-33.04-60.94-73.27-89.09-108.32-85.69-106.72-184.48-228.55-108.52-370.67,99.37-185.92,375.19-153.97,428.32,49.86,27.43,105.23-24.48,182.93-83.33,263.26ZM1270.43,410.91c-.59-43.5-14.85-86.14-43.72-118.77-53.86-60.9-144.08-77.14-216.17-38.99-14.93-9.14-28.36-20.45-42-31.34-.85,19.27,2.49,38.19,5.92,56.99-53.03,48-71.29,127.42-45.17,194.34.84,2.16,7.17,16.36,7.98,16.82.8.46,2.15.22,2.94-.36,21.31-26.42,42.65-54.01,54.39-86.33,4.26-11.72,10.6-31.92,8.12-44.06-.7-3.41-6.39-10.03-8.39-13.88-8.91-17.15-14.1-36.37-15.17-55.68,4.94,5.26,11.02,9.45,17.72,12.12-3.1-6.55-6.54-13.08-8.86-19.98-3.67-10.89-6.4-23.19-6.31-34.68,23.23,17.79,48.14,30.98,76.72,38.17,65.9,16.59,136.19,20.87,162.94,97.24,1.31,3.74,4.76,20.38,5.57,21.26,1.39,1.51,22.57,9.21,26.75,11.2,10.43,4.98,23.26,12.16,32.19,19.44,2.23,1.82,11.87,10.77,12.67,12.64.75,1.73-.65,1.33-1.38,1.61-25.99,9.76-56.86,10.28-84.14,12.05-2.69.17-11.53.99-13.23,1.96-4.37,2.5-17.04,18.1-20.66,22.87-19.47,25.73-26.73,54.63-29.39,86.51,50.28-15.78,93.41-52.49,111.36-102.74,17.96-2.2,34.61-10.08,52.64-11.66-2.69-22.81-25.55-35.99-43.32-46.77ZM1136.59,358.47c13.98-3.64,27.87,3.19,38.79,11.32,10.82,8.06,7.61,7.03,12.64,17.73.78,1.66,5.92,11.55,6.54,11.81,3.14,1.27,15.25-7.14,16.49-9.48,3.37-6.37-11.78-30.78-16.35-36.35-48.09-58.65-124.05-42.22-183.97-75.2-2.5-1.38-14.15-10.58-15.88-8.91,5.3,20.04,18.46,37.25,34.41,50.11-12.7,1.6-23.82-5.89-35.42-9.62,7.5,28.63,37.58,61.34,66.78,68.36,5.11,1.23,15.72,1.08,19.27,2.5.75.3,6.55,6.73,11.14,8.6,2.98,1.21,23.46,6.67,25.85,6.66,3.53-.02,5.57-5.09,4.52-6.14-.17-.17-3.41-.26-4.85-.72-2.06-.65-6.2-1.46-7.29-3.32,15.66-5.58,35.12-8.22,45.99,7.14,4.84,6.83,2.89,12.66,14.28,13.13,9.72.4,8.49-8.92,7.31-16.49-2.74-17.53-24.36-28.72-40.25-31.12ZM1143.42,391.03c-5.32.92-5.05,8.56-1.06,9.76,9.63,2.89,10.3-11.37,1.06-9.76ZM1120.1,408.38c-7.66-6.1-41.84-7.63-49.62-1.38-1.77,1.42-3.36,9.35-3.62,11.83-1.64,15.75,4.09,39.34,17.17,49.39,2.11,1.62,10.9,5.56,11.05,6.18.7,2.96-6.37,3.38-6.15,9.07.34,8.66,16.27,26,22.83,31.94,9.2,8.34,19.99,15.18,31.37,20.21,1.65-.36,3.49-11.46,4.31-13.94,5.87-17.86,15.44-35.01,27.65-49.29,2.98-3.48,13.09-11.44,13.09-15.06,0-2.43-2.56-11.23-3.8-13.52-5.39-9.94-16.03-8.36-25.52-7.39,5.19-5.37,13.19-14.74,4.01-20.7-7.7-5-16.5,7.2-27.74,5.46-9.08-1.41-10.56-9.23-15.03-12.79ZM1059.42,487.27c-.55-.55-2.98-.61-4.21-1.34-17.48-10.43-27.97-32.54-33.54-51.52-.78-2.64-.98-8.41-2.03-10.12-.6-.97-6.96-3.8-8.92-5.25-1.72-1.28-7.43-7.88-8.77-6.91-8.07,23.73-22.09,44.85-37.05,64.7-3.02,4-19.01,21.61-19.51,24.13-.59,3.01,10.82,16.44,13.5,19.5,35.18,40.15,80.1,59.1,133.6,59.76,6.03.07,44.42-2.86,46.68-6.06.55-.78,1.18-13.04.57-13.78-1.06-1.29-8.51-3.91-10.93-5.34-20.57-12.15-56.61-40.94-67.66-61.92-.83-1.58-1.15-5.25-1.74-5.85Z"/><path class="cls-3" d="M1059.42,487.27c.6.6.91,4.28,1.74,5.85,11.05,20.98,47.09,49.77,67.66,61.92,2.42,1.43,9.87,4.05,10.93,5.34.61.74-.03,13-.57,13.78-2.25,3.2-40.65,6.14-46.68,6.06-53.5-.66-98.42-19.61-133.6-59.76-2.69-3.07-14.09-16.49-13.5-19.5.49-2.52,16.49-20.13,19.51-24.13,14.96-19.86,28.98-40.97,37.05-64.7,1.33-.97,7.05,5.63,8.77,6.91,1.96,1.45,8.32,4.28,8.92,5.25,1.05,1.71,1.26,7.47,2.03,10.12,5.57,18.98,16.06,41.09,33.54,51.52,1.22.73,3.66.79,4.21,1.34Z"/><path class="cls-3" d="M1079.9,380.74c-3.55-1.42-14.16-1.27-19.27-2.5-29.2-7.02-59.28-39.73-66.78-68.36,11.6,3.72,22.73,11.21,35.42,9.62-15.95-12.86-29.11-30.07-34.41-50.11,1.73-1.67,13.38,7.53,15.88,8.91,59.92,32.98,135.88,16.55,183.97,75.2,4.57,5.57,19.72,29.97,16.35,36.35-1.24,2.34-13.36,10.76-16.49,9.48-.63-.25-5.76-10.14-6.54-11.81-5.04-10.7-1.83-9.67-12.64-17.73-10.92-8.14-24.81-14.96-38.79-11.32-14.08-2.12-32.44,2.81-44.45,10.72-4.17,2.75-10.07,7.16-12.24,11.55Z"/><path class="cls-2" d="M1143.42,391.03c9.24-1.6,8.57,12.65-1.06,9.76-3.99-1.2-4.26-8.84,1.06-9.76Z"/></g></svg>