<svg width="811" height="867" viewBox="0 0 811 867" fill="none" xmlns="http://www.w3.org/2000/svg">
<path d="M13.5699 866.25C13.2199 865.19 12.98 864.54 12.98 861.18V854.69C12.98 850.85 11.68 849.44 8.72998 849.44H6.48999V866.26H0V824.96H9.78998C16.52 824.96 19.41 828.09 19.41 834.46V837.71C19.41 841.96 18.05 844.67 15.16 846.03V846.15C18.41 847.51 19.47 850.58 19.47 854.88V861.25C19.47 863.26 19.53 864.73 20.18 866.27H13.5699V866.25ZM6.48999 830.85V843.54H9.02997C11.45 843.54 12.92 842.48 12.92 839.17V835.1C12.92 832.15 11.92 830.85 9.62 830.85H6.48999Z" fill="#09A9E7"/>
<path d="M31.9201 842.35H40.8301V848.25H31.9201V860.35H43.13V866.25H25.4301V824.95H43.13V830.85H31.9201V842.36V842.35Z" fill="#09A9E7"/>
<path d="M69.85 866.25H63.3L62.18 858.76H54.21L53.09 866.25H47.1299L53.74 824.95H63.24L69.85 866.25ZM55.04 853.15H61.29L58.22 832.26H58.1L55.03 853.15H55.04Z" fill="#09A9E7"/>
<path d="M93.34 850.85V856.34C93.34 862.95 90.04 866.73 83.66 866.73C77.28 866.73 73.98 862.95 73.98 856.34V834.86C73.98 828.25 77.28 824.48 83.66 824.48C90.04 824.48 93.34 828.26 93.34 834.86V838.87H87.2V834.44C87.2 831.49 85.9 830.37 83.84 830.37C81.78 830.37 80.48 831.49 80.48 834.44V856.74C80.48 859.69 81.78 860.75 83.84 860.75C85.9 860.75 87.2 859.69 87.2 856.74V850.84H93.34V850.85Z" fill="#09A9E7"/>
<path d="M105.49 866.25H99V824.95H105.49V842.65H112.87V824.95H119.48V866.25H112.87V848.549H105.49V866.25Z" fill="#09A9E7"/>
<path d="M142.83 852.56L134.63 824.94H141.42L146.32 843.76H146.44L151.34 824.94H157.54L149.34 852.56V866.25H142.85V852.56H142.83Z" fill="#09A9E7"/>
<path d="M160.42 834.86C160.42 828.25 163.9 824.48 170.27 824.48C176.64 824.48 180.12 828.26 180.12 834.86V856.34C180.12 862.95 176.64 866.73 170.27 866.73C163.9 866.73 160.42 862.95 160.42 856.34V834.86ZM166.91 856.75C166.91 859.7 168.21 860.82 170.27 860.82C172.33 860.82 173.63 859.7 173.63 856.75V834.45C173.63 831.5 172.33 830.38 170.27 830.38C168.21 830.38 166.91 831.5 166.91 834.45V856.75Z" fill="#09A9E7"/>
<path d="M192.22 824.95V856.81C192.22 859.76 193.52 860.82 195.58 860.82C197.64 860.82 198.94 859.76 198.94 856.81V824.95H205.08V856.4C205.08 863.01 201.78 866.78 195.4 866.78C189.02 866.78 185.72 863 185.72 856.4V824.95H192.21H192.22Z" fill="#09A9E7"/>
<path d="M224.79 866.25C224.44 865.19 224.2 864.54 224.2 861.18V854.69C224.2 850.85 222.9 849.44 219.95 849.44H217.71V866.26H211.22V824.96H221.01C227.74 824.96 230.63 828.09 230.63 834.46V837.71C230.63 841.96 229.27 844.67 226.38 846.03V846.15C229.63 847.51 230.69 850.58 230.69 854.88V861.25C230.69 863.26 230.75 864.73 231.4 866.27H224.79V866.25ZM217.7 830.85V843.54H220.24C222.66 843.54 224.13 842.48 224.13 839.17V835.1C224.13 832.15 223.13 830.85 220.83 830.85H217.7Z" fill="#09A9E7"/>
<path d="M266.32 850.85V856.34C266.32 862.95 263.02 866.73 256.64 866.73C250.26 866.73 246.96 862.95 246.96 856.34V834.86C246.96 828.25 250.26 824.48 256.64 824.48C263.02 824.48 266.32 828.26 266.32 834.86V838.87H260.18V834.44C260.18 831.49 258.88 830.37 256.82 830.37C254.76 830.37 253.46 831.49 253.46 834.44V856.74C253.46 859.69 254.76 860.75 256.82 860.75C258.88 860.75 260.18 859.69 260.18 856.74V850.84H266.32V850.85Z" fill="#09A9E7"/>
<path d="M271.45 834.86C271.45 828.25 274.93 824.48 281.3 824.48C287.67 824.48 291.15 828.26 291.15 834.86V856.34C291.15 862.95 287.67 866.73 281.3 866.73C274.93 866.73 271.45 862.95 271.45 856.34V834.86ZM277.94 856.75C277.94 859.7 279.24 860.82 281.3 860.82C283.36 860.82 284.66 859.7 284.66 856.75V834.45C284.66 831.5 283.36 830.38 281.3 830.38C279.24 830.38 277.94 831.5 277.94 834.45V856.75Z" fill="#09A9E7"/>
<path d="M310.75 854.27H310.87L315.24 824.94H324.27V866.24H318.13V836.62H318.01L313.64 866.24H307.5L302.78 837.03H302.66V866.24H296.99V824.94H306.02L310.74 854.27H310.75Z" fill="#09A9E7"/>
<path d="M344.38 854.27H344.5L348.87 824.94H357.9V866.24H351.76V836.62H351.64L347.27 866.24H341.13L336.41 837.03H336.29V866.24H330.62V824.94H339.65L344.37 854.27H344.38Z" fill="#09A9E7"/>
<path d="M370.51 824.95V856.81C370.51 859.76 371.81 860.82 373.87 860.82C375.93 860.82 377.23 859.76 377.23 856.81V824.95H383.37V856.4C383.37 863.01 380.07 866.78 373.69 866.78C367.31 866.78 364.01 863 364.01 856.4V824.95H370.5H370.51Z" fill="#09A9E7"/>
<path d="M395.41 836.34H395.29V866.26H389.45V824.96H397.59L404.14 849.68H404.26V824.96H410.04V866.26H403.37L395.4 836.34H395.41Z" fill="#09A9E7"/>
<path d="M416.41 824.95H422.9V866.25H416.41V824.95Z" fill="#09A9E7"/>
<path d="M427.44 824.95H447.5V830.85H440.71V866.25H434.22V830.85H427.43V824.95H427.44Z" fill="#09A9E7"/>
<path d="M458.12 852.56L449.92 824.94H456.71L461.61 843.76H461.73L466.63 824.94H472.83L464.63 852.56V866.25H458.14V852.56H458.12Z" fill="#09A9E7"/>
<path d="M502.43 844.24H502.31L500.01 866.25H491.1L486.5 824.95H492.81L496.23 857.52H496.35L499.42 824.95H505.67L508.86 857.76H508.98L512.28 824.95H517.94L513.34 866.25H504.73L502.43 844.24Z" fill="#09A9E7"/>
<path d="M529.39 866.25H522.9V824.95H529.39V842.65H536.77V824.95H543.38V866.25H536.77V848.549H529.39V866.25Z" fill="#09A9E7"/>
<path d="M556.3 842.35H565.21V848.25H556.3V860.35H567.51V866.25H549.81V824.95H567.51V830.85H556.3V842.36V842.35Z" fill="#09A9E7"/>
<path d="M586.8 866.25C586.45 865.19 586.21 864.54 586.21 861.18V854.69C586.21 850.85 584.91 849.44 581.96 849.44H579.72V866.26H573.23V824.96H583.02C589.75 824.96 592.64 828.09 592.64 834.46V837.71C592.64 841.96 591.28 844.67 588.39 846.03V846.15C591.64 847.51 592.7 850.58 592.7 854.88V861.25C592.7 863.26 592.76 864.73 593.41 866.27H586.8V866.25ZM579.72 830.85V843.54H582.26C584.68 843.54 586.15 842.48 586.15 839.17V835.1C586.15 832.15 585.15 830.85 582.85 830.85H579.72Z" fill="#09A9E7"/>
<path d="M605.15 842.35H614.06V848.25H605.15V860.35H616.36V866.25H598.66V824.95H616.36V830.85H605.15V842.36V842.35Z" fill="#09A9E7"/>
<path d="M631.05 824.95H651.11V830.85H644.32V866.25H637.83V830.85H631.04V824.95H631.05Z" fill="#09A9E7"/>
<path d="M662.14 866.25H655.65V824.95H662.14V842.65H669.52V824.95H676.13V866.25H669.52V848.549H662.14V866.25Z" fill="#09A9E7"/>
<path d="M689.05 842.35H697.96V848.25H689.05V860.35H700.26V866.25H682.56V824.95H700.26V830.85H689.05V842.36V842.35Z" fill="#09A9E7"/>
<path d="M712.06 852.56L703.86 824.94H710.65L715.55 843.76H715.67L720.57 824.94H726.77L718.57 852.56V866.25H712.08V852.56H712.06Z" fill="#09A9E7"/>
<path d="M762.91 866.25H756.36L755.24 858.76H747.27L746.15 866.25H740.19L746.8 824.95H756.3L762.91 866.25ZM748.1 853.15H754.35L751.28 832.26H751.16L748.09 853.15H748.1Z" fill="#09A9E7"/>
<path d="M781.2 866.25C780.85 865.19 780.61 864.54 780.61 861.18V854.69C780.61 850.85 779.31 849.44 776.36 849.44H774.12V866.26H767.63V824.96H777.42C784.15 824.96 787.04 828.09 787.04 834.46V837.71C787.04 841.96 785.68 844.67 782.79 846.03V846.15C786.04 847.51 787.1 850.58 787.1 854.88V861.25C787.1 863.26 787.16 864.73 787.81 866.27H781.2V866.25ZM774.12 830.85V843.54H776.66C779.08 843.54 780.55 842.48 780.55 839.17V835.1C780.55 832.15 779.55 830.85 777.25 830.85H774.12Z" fill="#09A9E7"/>
<path d="M799.55 842.35H808.46V848.25H799.55V860.35H810.76V866.25H793.06V824.95H810.76V830.85H799.55V842.36V842.35Z" fill="#09A9E7"/>
<path d="M110.5 784.46H47.34L37.2599 806.49H2.98999L78.3799 644.73H79.36L154.85 806.49H120.48L110.49 784.46H110.5ZM98.17 757.44L78.98 715.24L59.6899 757.44H98.17Z" fill="#3C4555"/>
<path d="M276.87 644.93V806.49H249.45L248.18 793.66C239.17 804.53 226.25 810.5 210.68 810.5C174.45 810.5 153.5 778.68 153.5 747.93C153.5 713.46 177.78 685.17 210.98 685.17C225.67 685.17 238.4 690.56 247.5 701.03V644.92H276.88L276.87 644.93ZM247.49 747.65C247.49 727.58 232.41 715.34 215.86 715.34C197.65 715.34 183.65 730.22 183.65 747.55C183.65 764.88 196.18 780.35 215.86 780.35C233.78 780.35 247.49 766.84 247.49 747.65Z" fill="#3C4555"/>
<path d="M362.06 648.65H417.48C448.03 648.65 473 672.64 473 702.01C473 731.38 448.03 755.18 417.48 755.18H393.78V806.49H362.06V648.65ZM441.27 701.72C441.27 689.77 430.6 680.08 417.48 680.08H393.78V723.75L417.48 723.85C430.6 723.95 441.27 713.96 441.27 701.72Z" fill="#3C4555"/>
<path d="M489.84 657.76C489.84 648.36 497.48 640.72 506.88 640.72C516.28 640.72 523.92 648.36 523.92 657.76C523.92 667.16 516.28 674.8 506.88 674.8C497.48 674.8 489.84 667.16 489.84 657.76ZM491.8 688.99H521.96V806.49H491.8V688.99Z" fill="#3C4555"/>
<path d="M549.38 644.93H579.54V806.49H549.38V644.93Z" fill="#3C4555"/>
<path d="M598.63 747.74C598.63 713.18 626.63 685.07 661.39 685.07C696.15 685.07 723.96 713.17 723.96 747.74C723.96 782.31 695.96 810.41 661.39 810.41C626.82 810.41 598.63 782.41 598.63 747.74ZM693.8 747.74C693.8 729.82 679.31 715.23 661.39 715.23C643.47 715.23 628.78 729.82 628.78 747.74C628.78 765.66 643.27 780.25 661.39 780.25C679.51 780.25 693.8 765.76 693.8 747.74Z" fill="#3C4555"/>
<path d="M749.82 767.13V718.37H734.15V690.95H737.87C746.49 690.95 751.77 685.27 751.77 676.07V665.49H779.97V688.99H803.47V718.37H779.97V767.13C779.97 774.96 782.42 779.57 789.96 779.57C793.48 779.57 798.28 778.59 803.47 777.12V804.93C797.5 806.89 786.34 808.45 779.77 808.45C760.09 808.45 749.81 794.25 749.81 767.13H749.82Z" fill="#3C4555"/>
<path d="M526.11 435.95C485.73 491.07 438.68 547.86 393.86 599.8C392.51 601.37 386.55 608.57 385.41 608.36C383.06 606.33 380.8 604.13 378.72 601.82C348.89 568.78 317.78 528.55 289.63 493.5C203.94 386.78 105.15 264.95 181.11 122.83C280.48 -63.0905 556.3 -31.1405 609.43 172.69C636.86 277.92 584.95 355.62 526.1 435.95H526.11ZM562.15 232.64C561.56 189.14 547.3 146.5 518.43 113.87C464.57 52.9695 374.35 36.7295 302.26 74.8795C287.33 65.7395 273.9 54.4295 260.26 43.5395C259.41 62.8095 262.75 81.7294 266.18 100.53C213.15 148.53 194.89 227.95 221.01 294.87C221.85 297.03 228.18 311.23 228.99 311.69C229.79 312.15 231.14 311.91 231.93 311.33C253.24 284.91 274.58 257.32 286.32 225C290.58 213.28 296.92 193.08 294.44 180.94C293.74 177.53 288.05 170.91 286.05 167.06C277.14 149.91 271.95 130.69 270.88 111.38C275.82 116.64 281.9 120.83 288.6 123.5C285.5 116.95 282.06 110.42 279.74 103.52C276.07 92.6295 273.34 80.3295 273.43 68.8395C296.66 86.6295 321.57 99.8195 350.15 107.01C416.05 123.6 486.34 127.88 513.09 204.25C514.4 207.99 517.85 224.63 518.66 225.51C520.05 227.02 541.23 234.72 545.41 236.71C555.84 241.69 568.67 248.87 577.6 256.15C579.83 257.97 589.47 266.92 590.27 268.79C591.02 270.52 589.62 270.12 588.89 270.4C562.9 280.16 532.03 280.68 504.75 282.45C502.06 282.62 493.22 283.44 491.52 284.41C487.15 286.91 474.48 302.51 470.86 307.28C451.39 333.01 444.13 361.91 441.47 393.79C491.75 378.01 534.88 341.3 552.83 291.05C570.79 288.85 587.44 280.97 605.47 279.39C602.78 256.58 579.92 243.4 562.15 232.62V232.64ZM428.31 180.2C442.29 176.56 456.18 183.39 467.1 191.52C477.92 199.58 474.71 198.55 479.74 209.25C480.52 210.91 485.66 220.8 486.28 221.06C489.42 222.33 501.53 213.92 502.77 211.58C506.14 205.21 490.99 180.8 486.42 175.23C438.33 116.58 362.37 133.01 302.45 100.03C299.95 98.6494 288.3 89.4495 286.57 91.1195C291.87 111.16 305.03 128.37 320.98 141.23C308.28 142.83 297.16 135.34 285.56 131.61C293.06 160.24 323.14 192.95 352.34 199.97C357.45 201.2 368.06 201.05 371.61 202.47C372.36 202.77 378.16 209.2 382.75 211.07C385.73 212.28 406.21 217.74 408.6 217.73C412.13 217.71 414.17 212.64 413.12 211.59C412.95 211.42 409.71 211.33 408.27 210.87C406.21 210.22 402.07 209.41 400.98 207.55C416.64 201.97 436.1 199.33 446.97 214.69C451.81 221.52 449.86 227.35 461.25 227.82C470.97 228.22 469.74 218.9 468.56 211.33C465.82 193.8 444.2 182.61 428.31 180.21V180.2ZM435.14 212.76C429.82 213.68 430.09 221.32 434.08 222.52C443.71 225.41 444.38 211.15 435.14 212.76ZM411.82 230.11C404.16 224.01 369.98 222.48 362.2 228.73C360.43 230.15 358.84 238.08 358.58 240.56C356.94 256.31 362.67 279.9 375.75 289.95C377.86 291.57 386.65 295.51 386.8 296.13C387.5 299.09 380.43 299.51 380.65 305.2C380.99 313.86 396.92 331.2 403.48 337.14C412.68 345.48 423.47 352.32 434.85 357.35C436.5 356.99 438.34 345.89 439.16 343.41C445.03 325.55 454.6 308.4 466.81 294.12C469.79 290.64 479.9 282.68 479.9 279.06C479.9 276.63 477.34 267.83 476.1 265.54C470.71 255.6 460.07 257.18 450.58 258.15C455.77 252.78 463.77 243.41 454.59 237.45C446.89 232.45 438.09 244.65 426.85 242.91C417.77 241.5 416.29 233.68 411.82 230.12V230.11ZM351.14 309C350.59 308.45 348.16 308.39 346.93 307.66C329.45 297.23 318.96 275.12 313.39 256.14C312.61 253.5 312.41 247.73 311.36 246.02C310.76 245.05 304.4 242.22 302.44 240.77C300.72 239.49 295.01 232.89 293.67 233.86C285.6 257.59 271.58 278.71 256.62 298.56C253.6 302.56 237.61 320.17 237.11 322.69C236.52 325.7 247.93 339.13 250.61 342.19C285.79 382.34 330.71 401.29 384.21 401.95C390.24 402.02 428.63 399.09 430.89 395.89C431.44 395.11 432.07 382.85 431.46 382.11C430.4 380.82 422.95 378.2 420.53 376.77C399.96 364.62 363.92 335.83 352.87 314.85C352.04 313.27 351.72 309.6 351.13 309H351.14Z" fill="#3C4555"/>
<path d="M351.14 309C351.74 309.6 352.05 313.28 352.88 314.85C363.93 335.83 399.97 364.62 420.54 376.77C422.96 378.2 430.41 380.82 431.47 382.11C432.08 382.85 431.44 395.11 430.9 395.89C428.65 399.09 390.25 402.03 384.22 401.95C330.72 401.29 285.8 382.34 250.62 342.19C247.93 339.12 236.53 325.7 237.12 322.69C237.61 320.17 253.61 302.56 256.63 298.56C271.59 278.7 285.61 257.59 293.68 233.86C295.01 232.89 300.73 239.49 302.45 240.77C304.41 242.22 310.77 245.05 311.37 246.02C312.42 247.73 312.63 253.49 313.4 256.14C318.97 275.12 329.46 297.23 346.94 307.66C348.16 308.39 350.6 308.45 351.15 309H351.14Z" fill="#09A9E7"/>
<path d="M371.62 202.47C368.07 201.05 357.46 201.2 352.35 199.97C323.15 192.95 293.07 160.24 285.57 131.61C297.17 135.33 308.3 142.82 320.99 141.23C305.04 128.37 291.88 111.16 286.58 91.1195C288.31 89.4495 299.96 98.6495 302.46 100.03C362.38 133.01 438.34 116.58 486.43 175.23C491 180.8 506.15 205.2 502.78 211.58C501.54 213.92 489.42 222.34 486.29 221.06C485.66 220.81 480.53 210.92 479.75 209.25C474.71 198.55 477.92 199.58 467.11 191.52C456.19 183.38 442.3 176.56 428.32 180.2C414.24 178.08 395.88 183.01 383.87 190.92C379.7 193.67 373.8 198.08 371.63 202.47H371.62Z" fill="#09A9E7"/>
<path d="M435.14 212.76C444.38 211.16 443.71 225.41 434.08 222.52C430.09 221.32 429.82 213.68 435.14 212.76Z" fill="#FDFDFC"/>
</svg>
